<?xml version="1.0" encoding="utf-8"?>
<!-- Generator: Adobe Illustrator 22.1.0, SVG Export Plug-In . SVG Version: 6.00 Build 0)  -->
<svg version="1.1" id="Layer_1" xmlns="http://www.w3.org/2000/svg" xmlns:xlink="http://www.w3.org/1999/xlink" x="0px" y="0px"
	 viewBox="0 0 100.8 48.9" style="enable-background:new 0 0 100.8 48.9;" xml:space="preserve">
<style type="text/css">
	.st0{fill:#FFFFFF;}
</style>
<g>
	<path class="st0" d="M88,30.2h12.8v1.6L100,39c-1.6,6.6-9.2,9.9-23,9.9c-10.1,0-16.8-1.6-20.1-4.9c-3.3-3.2-5-9.8-5-19.6
		c0-9.6,1.7-16,5-19.4c3.3-3.3,9.8-5,19.4-5c9.3,0,15.6,1.2,18.8,3.6c3.3,2.4,4.9,7,4.9,13.8H87.3c0-5.6-3.6-8.4-10.8-8.4
		c-5.1,0-8.3,0.9-9.6,2.7c-1.3,1.8-2,6.1-2,13c0,6.7,0.7,10.9,2.2,12.6c1.4,1.7,5,2.6,10.6,2.6c4.4,0,7.2-0.6,8.5-1.8
		C87.4,37,88,34.4,88,30.2z"/>
</g>
<g id="XMLID_3_">
	<g>
		<path class="st0" d="M24.7,41.2c7.8,0,11.7-2.4,11.7-7.1c0-4.8-4.2-7.2-12.5-7.2c-7.2,0-10.9,2.2-10.9,6.7c0,3.1,0.7,5.1,2.2,6.1
			C16.8,40.7,19.9,41.2,24.7,41.2z M36.5,41.7c-2.4,4.8-8.1,7.1-17.1,7.1C6.5,48.8,0,43.9,0,34.1c0-8.8,5.2-13.7,15.7-14.7
			c1.3-0.1,2.7-0.2,4.2-0.2c8.8,0,14.2,1.8,16.1,5.5h0.2V17c0-3.7-0.7-6.2-2.2-7.4s-4.4-1.8-9-1.8c-6.5,0-9.8,2.2-9.8,6.7h-13
			C2.2,8.8,3.7,5,6.7,3c3-1.9,8.9-2.9,17.8-2.9c9.6,0,16.2,1.2,19.6,3.5s5.1,6.9,5.1,13.5v31.2H36.3l0.6-6.5L36.5,41.7z"/>
	</g>
</g>
</svg>
