<?xml version="1.0" encoding="utf-8"?>
<!-- Generator: Adobe Illustrator 22.1.0, SVG Export Plug-In . SVG Version: 6.00 Build 0)  -->
<svg version="1.1" id="Layer_1" xmlns="http://www.w3.org/2000/svg" xmlns:xlink="http://www.w3.org/1999/xlink" x="0px" y="0px"
	 viewBox="0 0 300 37" style="enable-background:new 0 0 300 37;" xml:space="preserve">
<style type="text/css">
	.st0{fill:#4D4D4F;}
	.st1{fill:#C0272D;}
</style>
<g>
	<path class="st0" d="M10.1,18.5H3.6c0-2.9,0.7-4.8,2.2-5.7c1.5-1,4.5-1.4,8.9-1.4c4.8,0,8.1,0.6,9.8,1.8c1.7,1.2,2.6,3.4,2.6,6.8
		v15.6h-6.4l0.3-3.3l-0.2,0c-1.2,2.4-4.1,3.6-8.5,3.6c-6.5,0-9.7-2.5-9.7-7.4c0-5,3.3-7.4,9.9-7.4c4.4,0,7.1,0.9,8.1,2.7h0.1v-3.9
		c0-1.9-0.4-3.1-1.1-3.7c-0.7-0.6-2.2-0.9-4.5-0.9C11.7,15.1,10.1,16.2,10.1,18.5z M14.4,24.7c-3.6,0-5.4,1.1-5.4,3.4
		c0,1.6,0.4,2.6,1.1,3.1c0.7,0.5,2.3,0.7,4.7,0.7c3.9,0,5.8-1.2,5.8-3.5C20.7,25.9,18.6,24.7,14.4,24.7z"/>
	<path class="st0" d="M52.9,18.1h-6.3c0-0.2-0.1-0.4-0.1-0.5c-0.1-1.1-0.5-1.9-1.1-2.2c-0.6-0.3-2.1-0.4-4.4-0.4c-3.3,0-5,1-5,2.9
		c0,1.3,0.3,2.1,0.9,2.3c0.6,0.3,2.6,0.4,6,0.6c4.6,0.2,7.6,0.7,8.9,1.6c1.4,0.9,2.1,2.7,2.1,5.4c0,2.9-0.9,4.9-2.8,6.1
		c-1.8,1.1-5.1,1.7-9.9,1.7c-4.6,0-7.7-0.5-9.4-1.5c-1.7-1-2.5-2.9-2.5-5.7l0-0.6h6.7c-0.1,0.3-0.2,0.6-0.2,0.8
		c-0.3,2.1,1.6,3.2,5.5,3.2c4.1,0,6.1-1.1,6.1-3.1c0-2-1.3-3-3.8-3c-5.7,0-9.5-0.5-11.3-1.4c-1.8-1-2.7-3-2.7-6
		c0-2.7,0.8-4.6,2.5-5.5c1.7-1,4.9-1.4,9.6-1.4c4.5,0,7.5,0.5,9,1.4C52.1,13.6,52.9,15.4,52.9,18.1z"/>
	<path class="st0" d="M62.4,1.3v4.8H56V1.3H62.4z M62.4,11.6v23.8H56V11.6H62.4z"/>
	<path class="st0" d="M72.5,18.5H66c0-2.9,0.7-4.8,2.2-5.7c1.5-1,4.5-1.4,8.9-1.4c4.8,0,8.1,0.6,9.8,1.8c1.7,1.2,2.5,3.4,2.5,6.8
		v15.6H83l0.3-3.3l-0.2,0c-1.2,2.4-4.1,3.6-8.5,3.6c-6.5,0-9.7-2.5-9.7-7.4c0-5,3.3-7.4,9.9-7.4c4.4,0,7.1,0.9,8.1,2.7H83v-3.9
		c0-1.9-0.4-3.1-1.1-3.7c-0.7-0.6-2.2-0.9-4.5-0.9C74.2,15.1,72.5,16.2,72.5,18.5z M76.8,24.7c-3.6,0-5.4,1.1-5.4,3.4
		c0,1.6,0.4,2.6,1.1,3.1c0.7,0.5,2.3,0.7,4.7,0.7c3.9,0,5.8-1.2,5.8-3.5C83.1,25.9,81,24.7,76.8,24.7z"/>
	<path class="st0" d="M93,11.6h6.4l-0.3,4l0.1,0c1.3-2.9,4-4.3,8.4-4.3c6.3,0,9.5,2.6,9.5,7.9v16.2h-6.4V21v-0.9l-0.1-1.7
		c-0.3-1.8-1.9-2.7-4.7-2.7c-4.3,0-6.5,1.8-6.5,5.5v14.1H93V11.6z"/>
	<path class="st1" d="M137.5,26.3h6.4l0,0.8l-0.4,3.6c-0.8,3.3-4.6,4.9-11.5,4.9c-5,0-8.4-0.8-10.1-2.4c-1.7-1.6-2.5-4.9-2.5-9.8
		c0-4.8,0.8-8,2.5-9.7c1.7-1.7,4.9-2.5,9.7-2.5c4.6,0,7.8,0.6,9.4,1.8c1.6,1.2,2.5,3.5,2.5,6.9h-6.4c0-2.8-1.8-4.2-5.4-4.2
		c-2.6,0-4.2,0.4-4.8,1.3c-0.7,0.9-1,3-1,6.5c0,3.3,0.4,5.4,1.1,6.3c0.7,0.9,2.5,1.3,5.3,1.3c2.2,0,3.6-0.3,4.2-0.9
		C137.2,29.7,137.5,28.4,137.5,26.3z"/>
	<path class="st1" d="M157.5,11.3c5.2,0,8.6,0.7,10.2,2.2c1.6,1.5,2.4,4.6,2.4,9.3c0,5.3-0.8,8.8-2.4,10.4c-1.6,1.6-4.9,2.5-9.9,2.5
		c-5.5,0-9-0.8-10.6-2.3c-1.6-1.5-2.4-4.9-2.4-10.1c0-5,0.8-8.3,2.4-9.8C148.7,12,152.2,11.3,157.5,11.3z M157.5,15.8
		c-2.7,0-4.4,0.4-5.1,1.3c-0.7,0.9-1.1,2.9-1.1,6c0,3.6,0.3,5.8,1,6.7c0.7,0.9,2.4,1.3,5.2,1.3c2.7,0,4.4-0.5,5.1-1.4
		c0.7-0.9,1-3.2,1-6.8c0-3-0.4-5-1.1-5.8C161.8,16.2,160.1,15.8,157.5,15.8z"/>
	<path class="st1" d="M172.6,11.6h6.4l-0.3,4l0.1,0c1.2-2.9,4-4.3,8.4-4.3c6.3,0,9.5,2.6,9.5,7.9v16.2h-6.4V21v-0.9l-0.1-1.7
		c-0.3-1.8-1.9-2.7-4.7-2.7c-4.3,0-6.5,1.8-6.5,5.5v14.1h-6.4V11.6z"/>
	<path class="st1" d="M200.2,11.6h6.4l-0.3,4l0.1,0c1.3-2.9,4-4.3,8.4-4.3c6.3,0,9.5,2.6,9.5,7.9v16.2h-6.4V21v-0.9l-0.1-1.7
		c-0.3-1.8-1.9-2.7-4.7-2.7c-4.3,0-6.5,1.8-6.5,5.5v14.1h-6.4V11.6z"/>
	<path class="st1" d="M244.9,27.8h6.4l0,0.9c0,4.7-3.9,7-11.8,7c-5.3,0-8.8-0.8-10.5-2.4c-1.6-1.6-2.5-5-2.5-10.3
		c0-4.6,0.9-7.8,2.6-9.4c1.7-1.6,5.1-2.4,10.1-2.4c4.8,0,8,0.8,9.6,2.3c1.6,1.6,2.4,4.6,2.4,9.2l0,1.7h-18.1c0,0.5-0.1,0.9-0.1,1
		c0,2.3,0.4,3.9,1.2,4.7c0.8,0.8,2.4,1.2,4.9,1.2c2.4,0,3.9-0.2,4.6-0.7C244.6,30.3,244.9,29.3,244.9,27.8z M245,21l0-0.9
		c0-1.9-0.4-3.1-1.1-3.7c-0.7-0.6-2.3-0.8-4.8-0.8c-2.4,0-3.9,0.3-4.7,1c-0.7,0.7-1.1,2.2-1.1,4.5H245z"/>
	<path class="st1" d="M270.9,26.3h6.4l0,0.8l-0.4,3.6c-0.8,3.3-4.6,4.9-11.5,4.9c-5,0-8.4-0.8-10.1-2.4c-1.7-1.6-2.5-4.9-2.5-9.8
		c0-4.8,0.8-8,2.5-9.7c1.7-1.7,4.9-2.5,9.7-2.5c4.6,0,7.8,0.6,9.4,1.8c1.6,1.2,2.5,3.5,2.5,6.9h-6.4c0-2.8-1.8-4.2-5.4-4.2
		c-2.6,0-4.2,0.4-4.8,1.3c-0.7,0.9-1,3-1,6.5c0,3.3,0.4,5.4,1.1,6.3c0.7,0.9,2.5,1.3,5.3,1.3c2.2,0,3.6-0.3,4.2-0.9
		C270.6,29.7,270.9,28.4,270.9,26.3z"/>
	<path class="st1" d="M296.4,11.6v4.3h-10.3v12c0,2.2,0.9,3.3,2.8,3.3c2.1,0,3.1-1.3,3.1-4v-1h5.5l0,1.2c0,1.1,0,2-0.1,2.8
		c-0.4,3.6-3.4,5.5-9.1,5.5c-5.7,0-8.6-2.3-8.6-7V15.9h-3.5v-4.3h3.5V6.2h6.4v5.4H296.4z"/>
</g>
</svg>
