<?xml version="1.0" encoding="utf-8"?>
<!-- Generator: Adobe Illustrator 22.1.0, SVG Export Plug-In . SVG Version: 6.00 Build 0)  -->
<svg version="1.1" id="Man_3" xmlns="http://www.w3.org/2000/svg" xmlns:xlink="http://www.w3.org/1999/xlink" x="0px" y="0px"
	 viewBox="0 0 170.7 170.7" style="enable-background:new 0 0 170.7 170.7;" xml:space="preserve">
<style type="text/css">
	.st0{fill:#F6A100;}
	.st1{fill:#ED9A00;}
	.st2{clip-path:url(#SVGID_2_);}
	.st3{fill:#D9A78C;}
	.st4{fill:#C0D0D8;}
	.st5{fill:#A7BDC8;}
	.st6{fill:#14A89A;}
	.st7{fill:#EAC0A7;}
	.st8{fill:#F2D7BC;}
	.st9{fill:#FFFFFF;}
	.st10{fill:#7F97A3;}
	.st11{fill:#8B5F3C;}
</style>
<g>
	<path class="st0" d="M170.3,85.3c0-46.9-38.1-85-85-85s-85,38.1-85,85s38.1,85,85,85C132.3,170.3,170.3,132.3,170.3,85.3z"/>
	<path class="st1" d="M170.3,85.3c0-46.9-38.1-85-85-85v170C132.3,170.3,170.3,132.3,170.3,85.3z"/>
</g>
<g>
	<g>
		<defs>
			<circle id="SVGID_1_" cx="85.3" cy="85.3" r="85"/>
		</defs>
		<clipPath id="SVGID_2_">
			<use xlink:href="#SVGID_1_"  style="overflow:visible;"/>
		</clipPath>
		<g class="st2">
			<rect x="72.9" y="106.8" class="st3" width="24.9" height="27.3"/>
			<path class="st4" d="M69.9,123c0,0-23.7,3.5-27.2,7.1c-3,3.2-9.4,33.5-10.8,40.2c41.6,0,53.5,0,53.5,0v-46L69.9,123z"/>
			<path class="st5" d="M100.8,123c0,0,23.7,3.5,27.2,7.1c3,3.2,9.4,33.5,10.8,40.2c-41.6,0-53.5,0-53.5,0v-46L100.8,123z"/>
			<polygon class="st6" points="83.7,128.8 80.6,161.2 85.3,170.2 90.1,161.2 86.9,128.8 			"/>
			<path class="st6" d="M89.6,128.6l-4.2,4.2l-4.2-4.2l4.2-4.2L89.6,128.6z"/>
			<g>
				<path class="st7" d="M85.3,28.7c12.1,0,31.2,6.9,31.2,39.1c0,18.6-6.1,30.8-8.7,34.1c-2.4,3.1-16.1,9.7-22.5,9.7
					C85.3,79,85.3,28.7,85.3,28.7z"/>
				<path class="st7" d="M122.5,75.4c0.5-5.1-1.9-9.7-5.5-10.2s-6.9,3.3-7.4,8.4s1.9,9.7,5.5,10.2S122,80.6,122.5,75.4z"/>
			</g>
			<g>
				<path class="st8" d="M85.3,28.7c-12.1,0-31.2,6.9-31.2,39.1c0,18.6,6.1,30.8,8.7,34.1c2.4,3.1,16.1,9.7,22.5,9.7
					C85.3,79,85.3,28.7,85.3,28.7z"/>
				<path class="st8" d="M48.1,75.4c-0.5-5.1,1.9-9.7,5.5-10.2s6.9,3.3,7.4,8.4s-1.9,9.7-5.5,10.2C52,84.3,48.7,80.6,48.1,75.4z"/>
			</g>
			<polygon class="st9" points="85.3,124.3 72.7,119.2 69.6,122.4 75.9,136.3 			"/>
			<polygon class="st9" points="85.3,124.3 98,119.2 101.1,122.4 94.8,136.3 			"/>
			<rect x="58" y="156.5" class="st10" width="15.8" height="3.5"/>
			<rect x="97" y="156.5" class="st10" width="15.8" height="3.5"/>
			<path class="st11" d="M58.3,76h2.2c0,0-1.3-8.4,2.5-11.1c0-4.2,0-5.4,0-5.4s-1.5-0.2-1.5-6.5c0-6.4,7.6-10.9,23.8-10.9
				c0-9.1,0-19.6,0-19.6S53.2,26,53.2,49.3c0,9.7,0,16,0,16s2.3-0.4,4,1C59,67.7,58.3,76,58.3,76z"/>
			<path class="st11" d="M112.1,76h-2.2c0,0,1.3-8.4-2.5-11.1c0-4.2,0-5.4,0-5.4s1.5-0.2,1.5-6.5c0-6.4-7.6-10.9-23.8-10.9
				c0-9.1,0-19.6,0-19.6s32.1,3.5,32.1,26.8c0,9.7,0,16,0,16s-2.3-0.4-4,1C111.3,67.7,112.1,76,112.1,76z"/>
			<path class="st9" d="M85.3,97.7c5.6,0,10.2-1.9,10.2-4.2H75.1C75.1,95.8,79.7,97.7,85.3,97.7z"/>
		</g>
	</g>
</g>
</svg>
