<?xml version="1.0" encoding="utf-8"?>
<!-- Generator: Adobe Illustrator 22.1.0, SVG Export Plug-In . SVG Version: 6.00 Build 0)  -->
<svg version="1.1" id="Woman_1" xmlns="http://www.w3.org/2000/svg" xmlns:xlink="http://www.w3.org/1999/xlink" x="0px" y="0px"
	 viewBox="0 0 170.7 170.7" style="enable-background:new 0 0 170.7 170.7;" xml:space="preserve">
<style type="text/css">
	.st0{fill:#5A4980;}
	.st1{fill:#534378;}
	.st2{clip-path:url(#SVGID_2_);}
	.st3{fill:#461811;}
	.st4{fill:#EAC8AD;}
	.st5{fill:#F2D7BC;}
	.st6{fill:#EAC0A7;}
	.st7{fill:#FFFFFF;}
	.st8{fill:#EB1A3A;}
	.st9{fill:#C5132D;}
</style>
<g>
	<path class="st0" d="M170.3,85.3c0-46.9-38.1-85-85-85s-85,38.1-85,85s38.1,85,85,85S170.3,132.3,170.3,85.3z"/>
	<path class="st1" d="M170.3,85.3c0-46.9-38.1-85-85-85v170C132.3,170.3,170.3,132.3,170.3,85.3z"/>
</g>
<g>
	<g>
		<defs>
			<circle id="SVGID_1_" cx="85.3" cy="85.3" r="85"/>
		</defs>
		<clipPath id="SVGID_2_">
			<use xlink:href="#SVGID_1_"  style="overflow:visible;"/>
		</clipPath>
		<g class="st2">
			<path class="st3" d="M52.6,70.2c0,14.2-7.8,14.6-7.3,24c0.6,10.4,8.8,10.5,8.8,17.6c0,7.2-7.5,15.2-0.9,23c29.2,0,32.1,0,32.1,0
				V47.7L52.6,70.2z"/>
			<path class="st3" d="M118.1,70.2c0,14.2,7.8,14.6,7.3,24c-0.6,10.4-8.8,10.5-8.8,17.6c0,7.2,7.5,15.2,0.9,23
				c-29.2,0-32.1,0-32.1,0V47.7L118.1,70.2z"/>
			<g>
				<path class="st3" d="M122.7,55.5c0-20.5-16.7-37.2-37.2-37.2S48.3,35,48.3,55.5S65,92.7,85.5,92.7
					C106.1,92.7,122.7,76,122.7,55.5z"/>
				<polygon class="st4" points="98,135.1 85.3,170.5 73.1,135.1 73.1,107.8 98,107.8 				"/>
				<g>
					<path class="st5" d="M85.5,32.2c-12.1,0-31.2,6.9-31.2,39.1c0,18.6,7.2,27.4,9.9,30.7c2.4,3.1,14.9,13.1,21.3,13.1
						C85.5,82.6,85.5,32.2,85.5,32.2z"/>
					<path class="st5" d="M48.3,78.9c-0.5-5.1,1.9-9.7,5.5-10.2s6.9,3.3,7.4,8.4s-1.9,9.7-5.5,10.2C52.1,87.8,48.8,84.1,48.3,78.9z"
						/>
				</g>
				<g>
					<g>
						<g>
							<path class="st6" d="M85.4,32.2c12.1,0,31.2,6.9,31.2,39.1c0,18.6-7.2,27.4-9.9,30.7c-2.4,3.1-14.9,13.1-21.3,13.1
								C85.4,82.6,85.4,32.2,85.4,32.2z"/>
						</g>
						<g>
							<path class="st6" d="M122.7,78.9c0.5-5.1-1.9-9.7-5.5-10.2s-6.9,3.3-7.4,8.4s1.9,9.7,5.5,10.2
								C118.9,87.8,122.2,84.1,122.7,78.9z"/>
						</g>
					</g>
				</g>
				<path class="st4" d="M85.3,170.5v-34c0,0-9.3-2.3-11.3-9.8c-1-3.6-1-6.5-1-6.5s-20.3,6.9-24.8,13.9c-3.8,11.2-4.8,36.4-4.8,36.4
					H85.3z"/>
				<path class="st4" d="M85.3,170.5v-34c0,0,9.3-2.3,11.3-9.8c1-3.6,1-6.5,1-6.5s20.3,6.9,24.8,13.9c3.8,11.2,4.8,36.4,4.8,36.4
					H85.3z"/>
				<path class="st7" d="M85.5,103.8c4.7,0,8.5-2.9,8.5-6.5H77C77,100.9,80.8,103.8,85.5,103.8z"/>
				<path class="st8" d="M85.3,157.2c0,0-8.9-22.4-12.3-37c-3.4,1.3-6.2,2.1-8.3,3.2c-10.1,21.2-10.5,47.1-10.5,47.1h31v-13.3H85.3z
					"/>
				<path class="st9" d="M85.5,157.2c0,0,8.9-22.4,12.3-37c3.4,1.3,6.2,2.1,8.3,3.2c10.1,21.2,10.5,47.1,10.5,47.1h-31v-13.3H85.5z"
					/>
			</g>
			<path class="st3" d="M83.7,22.9c-22.1,0-28.8,19.3-28.8,28.3c-8,11.1,0.7,21.1,6.9,24.6c0-2.1,0-2.8,0-5.5
				c0-7.2,6.8-13.9,17.1-12.8c9.2,1,15-4.2,19.9-13.1C104.9,32.6,97.4,22.9,83.7,22.9z"/>
			<path class="st3" d="M98,40.8c0,0,5.2,20.9,19.3,27.9c2.5-18.8,4-14.9,0-24.8C113.2,34,98,26.7,98,26.7V40.8z"/>
		</g>
	</g>
</g>
</svg>
