<?xml version="1.0" encoding="utf-8"?>
<!-- Generator: Adobe Illustrator 22.1.0, SVG Export Plug-In . SVG Version: 6.00 Build 0)  -->
<svg version="1.1" id="Man1" xmlns="http://www.w3.org/2000/svg" xmlns:xlink="http://www.w3.org/1999/xlink" x="0px" y="0px"
	 viewBox="0 0 170.7 170.7" style="enable-background:new 0 0 170.7 170.7;" xml:space="preserve">
<style type="text/css">
	.st0{fill:#B5332B;}
	.st1{fill:#A22D26;}
	.st2{clip-path:url(#SVGID_2_);}
	.st3{fill:#D9A78C;}
	.st4{fill:#C0D4DF;}
	.st5{fill:#EAC0A7;}
	.st6{fill:#F2D7BC;}
	.st7{fill:#CFE1EB;}
	.st8{fill:#FFFFFF;}
	.st9{fill:#8B5F3C;}
</style>
<g>
	<path class="st0" d="M170.3,85.3c0-46.9-38.1-85-85-85s-85,38.1-85,85s38.1,85,85,85C132.3,170.3,170.3,132.3,170.3,85.3z"/>
	<path class="st1" d="M170.3,85.3c0-46.9-38.1-85-85-85v170C132.3,170.3,170.3,132.3,170.3,85.3z"/>
</g>
<g>
	<g>
		<defs>
			<circle id="SVGID_1_" cx="85.3" cy="85.3" r="85"/>
		</defs>
		<clipPath id="SVGID_2_">
			<use xlink:href="#SVGID_1_"  style="overflow:visible;"/>
		</clipPath>
		<g class="st2">
			<g>
				<rect x="72.9" y="106.8" class="st3" width="24.9" height="27.3"/>
				<path class="st4" d="M100.8,123c0,0,23.7,3.5,27.2,7.1c3,3.2,9.4,33.5,10.8,40.2c-41.6,0-53.5,0-53.5,0v-46L100.8,123z"/>
				<g>
					<path class="st5" d="M85.3,28.7c12.1,0,31.2,6.9,31.2,39.1c0,18.6-6.1,30.8-8.7,34.1c-2.4,3.1-16.1,9.7-22.5,9.7
						C85.3,79,85.3,28.7,85.3,28.7z"/>
					<path class="st5" d="M122.5,75.4c0.5-5.1-1.9-9.7-5.5-10.2s-6.9,3.3-7.4,8.4s1.9,9.7,5.5,10.2S122,80.6,122.5,75.4z"/>
				</g>
				<g>
					<path class="st6" d="M85.3,28.7c-12.1,0-31.2,6.9-31.2,39.1c0,18.6,6.1,30.8,8.7,34.1c2.4,3.1,16.1,9.7,22.5,9.7
						C85.3,79,85.3,28.7,85.3,28.7z"/>
					<path class="st6" d="M48.1,75.4c-0.5-5.1,1.9-9.7,5.5-10.2s6.9,3.3,7.4,8.4s-1.9,9.7-5.5,10.2C52,84.3,48.7,80.6,48.1,75.4z"/>
				</g>
				<path class="st7" d="M69.9,123c0,0-23.7,3.5-27.2,7.1c-3,3.2-9.4,33.5-10.8,40.2c41.6,0,53.5,0,53.5,0v-46L69.9,123z"/>
				<polygon class="st8" points="85.3,124.3 72.7,119.2 69.6,122.4 75.9,136.3 				"/>
				<polygon class="st8" points="85.3,124.3 98,119.2 101.1,122.4 94.8,136.3 				"/>
			</g>
			<path class="st9" d="M117.2,66c0,0,10.2-46.6-32.1-46.6c-42.5,0-31.9,45.3-31.9,45.3S59,61.4,59,76.3c2.3,0,1.1,0,1.1,0
				s2.1-10,2.7-18.9c15,0,28.2-1.9,39.3-11.1c6.3,0,7.2,7.9,7.2,13.9l-2.8,1.1c0,0,2.7,5.2,2.9,15.1c1.9,0,1.9,0,1.9,0
				S111.1,59.8,117.2,66z"/>
			<path class="st8" d="M85.3,99.4c5.6,0,10.2-1.9,10.2-4.2H75.1C75.1,97.6,79.7,99.4,85.3,99.4z"/>
		</g>
	</g>
</g>
</svg>
