<?xml version="1.0" encoding="utf-8"?>
<!-- Generator: Adobe Illustrator 22.1.0, SVG Export Plug-In . SVG Version: 6.00 Build 0)  -->
<svg version="1.1" id="Woman_2" xmlns="http://www.w3.org/2000/svg" xmlns:xlink="http://www.w3.org/1999/xlink" x="0px" y="0px"
	 viewBox="0 0 170.7 170.7" style="enable-background:new 0 0 170.7 170.7;" xml:space="preserve">
<style type="text/css">
	.st0{fill:#B5332B;}
	.st1{fill:#A22D26;}
	.st2{clip-path:url(#SVGID_2_);}
	.st3{fill:#870B16;}
	.st4{fill:#EAC8AD;}
	.st5{fill:#F2D7BC;}
	.st6{fill:#EAC0A7;}
	.st7{fill:#FFF200;}
	.st8{fill:#F8A41D;}
	.st9{fill:#F98E1C;}
	.st10{fill:#FFFFFF;}
</style>
<g>
	<path class="st0" d="M170.3,85.3c0-46.9-38.1-85-85-85s-85,38.1-85,85s38.1,85,85,85C132.3,170.3,170.3,132.3,170.3,85.3z"/>
	<path class="st1" d="M170.3,85.3c0-46.9-38.1-85-85-85v170C132.3,170.3,170.3,132.3,170.3,85.3z"/>
</g>
<g>
	<g>
		<defs>
			<circle id="SVGID_1_" cx="85.3" cy="85.3" r="85"/>
		</defs>
		<clipPath id="SVGID_2_">
			<use xlink:href="#SVGID_1_"  style="overflow:visible;"/>
		</clipPath>
		<g class="st2">
			<path class="st3" d="M85.5,147.8H55.1c0,0-14-13.6-7-33.7S61.2,86,61.7,64.5c21.1,0,23.9,0,23.9,0L85.5,147.8L85.5,147.8z"/>
			<path class="st3" d="M84.7,147.8h30.4c0,0,14-13.6,7-33.7C115.1,94,109,86,108.5,64.5c-21.1,0-23.9,0-23.9,0L84.7,147.8
				L84.7,147.8z"/>
			<path class="st3" d="M122.7,55.5c0-20.5-16.7-37.2-37.2-37.2S48.3,35,48.3,55.5S65,92.7,85.5,92.7S122.7,76,122.7,55.5z"/>
			<polygon class="st4" points="97.9,135.1 85.3,170.5 73,135.1 73,107.8 97.9,107.8 			"/>
			<g>
				<path class="st5" d="M85.5,32.2c-12.1,0-31.2,6.9-31.2,39.1c0,18.6,7.2,27.4,9.9,30.7c2.4,3.1,14.9,13.1,21.3,13.1
					C85.5,82.6,85.5,32.2,85.5,32.2z"/>
				<path class="st5" d="M48.3,78.9c-0.5-5.1,1.9-9.7,5.5-10.2s6.9,3.3,7.4,8.4s-1.9,9.7-5.5,10.2C52.1,87.8,48.8,84.1,48.3,78.9z"
					/>
			</g>
			<g>
				<g>
					<g>
						<path class="st6" d="M85.4,32.2c12.1,0,31.2,6.9,31.2,39.1c0,18.6-7.2,27.4-9.9,30.7c-2.4,3.1-14.9,13.1-21.3,13.1
							C85.4,82.6,85.4,32.2,85.4,32.2z"/>
					</g>
					<g>
						<path class="st6" d="M122.7,78.9c0.5-5.1-1.9-9.7-5.5-10.2s-6.9,3.3-7.4,8.4s1.9,9.7,5.5,10.2
							C118.9,87.8,122.2,84.1,122.7,78.9z"/>
					</g>
				</g>
			</g>
			<path class="st3" d="M85.1,24.4c-0.6-0.1-1.2-0.1-1.8-0.1c0,0-20.4,1.5-26.1,28.1c-2.7,2-7.7,10-1.1,18.9
				c0.9-7.5,3.7-12.9,8.4-15c8.4-3.7,11.9-0.3,21.7-7.8c5.7-4.4,7.8-13.2,6.5-18.1C90.3,24.3,84.5,24.5,85.1,24.4z"/>
			<path class="st3" d="M91.3,31.8c0,0-7.4,27.5,24.8,38.9C123.8,45.6,109.7,29.2,91.3,31.8z"/>
			
				<rect x="53.3" y="84.8" transform="matrix(0.707 -0.7072 0.7072 0.707 -44.9621 63.9255)" class="st7" width="2.8" height="2.8"/>
			
				<rect x="115.3" y="84.8" transform="matrix(0.707 -0.7072 0.7072 0.707 -26.785 107.7598)" class="st7" width="2.8" height="2.8"/>
			<path class="st8" d="M85.3,170.5v-34c0,0-9.3-2.3-11.3-9.8c-1-3.6-1-6.5-1-6.5s-20.3,6.9-24.8,13.9c-3.8,11.2-4.8,36.4-4.8,36.4
				H85.3z"/>
			<path class="st9" d="M85.3,170.5v-34c0,0,9.3-2.3,11.3-9.8c1-3.6,1-6.5,1-6.5s20.3,6.9,24.8,13.9c3.8,11.2,4.8,36.4,4.8,36.4
				H85.3z"/>
			<path class="st10" d="M85.5,103.8c4.7,0,8.5-2.9,8.5-6.5H77C77,100.9,80.8,103.8,85.5,103.8z"/>
		</g>
	</g>
</g>
</svg>
