<?xml version="1.0" encoding="utf-8"?>
<!-- Generator: Adobe Illustrator 22.1.0, SVG Export Plug-In . SVG Version: 6.00 Build 0)  -->
<svg version="1.1" id="Man_2" xmlns="http://www.w3.org/2000/svg" xmlns:xlink="http://www.w3.org/1999/xlink" x="0px" y="0px"
	 viewBox="0 0 170.7 170.7" style="enable-background:new 0 0 170.7 170.7;" xml:space="preserve">
<style type="text/css">
	.st0{fill:#827977;}
	.st1{fill:#7B7270;}
	.st2{clip-path:url(#SVGID_2_);}
	.st3{fill:#2A2D34;}
	.st4{fill:#D9A78C;}
	.st5{fill:#EAC0A7;}
	.st6{fill:#F2D7BC;}
	.st7{fill:#690102;}
	.st8{fill:#2F343A;}
	.st9{fill:#B9C7D0;}
	.st10{fill:#129E95;}
	.st11{fill:#3A404C;}
	.st12{fill:#FFFFFF;}
</style>
<g>
	<path class="st0" d="M170.3,85.3c0-46.9-38.1-85-85-85s-85,38.1-85,85s38.1,85,85,85C132.3,170.3,170.3,132.3,170.3,85.3z"/>
	<path class="st1" d="M170.3,85.3c0-46.9-38.1-85-85-85v170C132.3,170.3,170.3,132.3,170.3,85.3z"/>
</g>
<g>
	<g>
		<defs>
			<circle id="SVGID_1_" cx="85.3" cy="85.3" r="85"/>
		</defs>
		<clipPath id="SVGID_2_">
			<use xlink:href="#SVGID_1_"  style="overflow:visible;"/>
		</clipPath>
		<g class="st2">
			<g>
				<path class="st3" d="M100.8,123c0,0,23.7,3.5,27.2,7.1c3,3.2,9.4,33.5,10.8,40.2c-41.6,0-53.5,0-53.5,0v-43.1L100.8,123z"/>
				<rect x="72.9" y="107.3" class="st4" width="24.9" height="27.3"/>
				<g>
					<path class="st5" d="M85.3,28.7c12.1,0,31.2,6.9,31.2,39.1c0,18.6-6.1,30.8-8.7,34.1c-2.4,3.1-16.1,9.7-22.5,9.7
						C85.3,79,85.3,28.7,85.3,28.7z"/>
					<path class="st5" d="M122.5,75.4c0.5-5.1-1.9-9.7-5.5-10.2s-6.9,3.3-7.4,8.4s1.9,9.7,5.5,10.2S122,80.6,122.5,75.4z"/>
				</g>
				<g>
					<path class="st6" d="M85.3,28.7c-12.1,0-31.2,6.9-31.2,39.1c0,18.6,6.1,30.8,8.7,34.1c2.4,3.1,16.1,9.7,22.5,9.7
						C85.3,79,85.3,28.7,85.3,28.7z"/>
					<path class="st6" d="M48.1,75.4c-0.5-5.1,1.9-9.7,5.5-10.2s6.9,3.3,7.4,8.4s-1.9,9.7-5.5,10.2C52,84.3,48.7,80.6,48.1,75.4z"/>
				</g>
				<path class="st7" d="M69.1,35.4c0,0-10.6,12.5-6.5,24.2c0.7,13.9-0.7,18.6-5.2,22.5c1.1-13.5-0.2-18-5.2-16.4
					C50.2,55.1,54.6,26.7,69.1,35.4z"/>
				<path class="st7" d="M101.5,35.4c0,0,10.6,12.5,6.5,24.2c-0.7,13.9,0.7,18.6,5.2,22.5c-1.1-13.5,0.2-18,5.2-16.4
					C120.4,55.1,116,26.7,101.5,35.4z"/>
				<path class="st8" d="M69.9,123c0,0-23.7,3.5-27.2,7.1c-3,3.2-9.4,33.5-10.8,40.2c41.6,0,53.5,0,53.5,0v-43.1L69.9,123z"/>
				<polyline class="st9" points="101.1,122.4 85.3,125.6 69.6,122.4 85.3,170.3 				"/>
				<polygon class="st10" points="84,132.1 81.4,164.5 85.3,170.3 89.2,164.5 86.6,132.1 				"/>
				<path class="st11" d="M74,143.1l-12.5-18.6c3.4-1.2,7.1-2.2,11-2.8l12.9,48.6l-18.1-25.9L74,143.1z"/>
				<path class="st11" d="M96.7,143.1l12.5-18.6c-3.4-1.2-7.1-2.2-11-2.8l-12.9,48.6l18.1-25.9L96.7,143.1z"/>
				<path class="st10" d="M89.6,130l-4.2,4.4l-4.2-4.4l4.2-4.4L89.6,130z"/>
				<polygon class="st12" points="85.3,125.6 98,119.2 104.5,123 91,133.8 				"/>
				<polygon class="st12" points="85.3,125.6 72.7,119.2 66.2,123 79.5,133.8 				"/>
			</g>
			<path class="st7" d="M115.2,40.9c-5-20.4-35.3-36.5-56.6-4.4c-1.4,6.3,4.6,9.3,4.6,9.3s4-9.3,22.2-5c9.1-2,17.9-3.5,22,4.9
				C111.5,54.1,115.2,40.9,115.2,40.9z"/>
			<path class="st7" d="M103.2,97.8c-6.2,0-10.7-5.1-17.9-5.1c-7.2,0-11.6,5.1-17.9,5.1c-6.8,0-11.1-11.8-12.4-16
				c1.8,11.9,5.8,19.7,7.8,22.3c2.4,3.1,16.1,9.7,22.5,9.7l0,0l0,0c6.4,0,20.1-6.6,22.5-9.7c2-2.6,6.1-10.4,7.8-22.3
				C114.4,85.9,110.1,97.8,103.2,97.8z"/>
			<path class="st12" d="M85.3,103.5c2.1,0,3.8-0.9,3.8-2h-7.6C81.5,102.6,83.2,103.5,85.3,103.5z"/>
		</g>
	</g>
</g>
</svg>
