<?xml version="1.0" encoding="utf-8"?>
<!-- Generator: Adobe Illustrator 23.0.1, SVG Export Plug-In . SVG Version: 6.00 Build 0)  -->
<svg version="1.1" id="Layer_1" xmlns="http://www.w3.org/2000/svg" xmlns:xlink="http://www.w3.org/1999/xlink" x="0px" y="0px"
	 viewBox="0 0 125 45.9" style="enable-background:new 0 0 125 45.9;" xml:space="preserve">
<style type="text/css">
	.st0{fill:#01AAE9;}
	.st1{fill:#FEFEFE;}
	.st2{fill:#FCFCFC;}
	.st3{fill:#FAFAFA;}
	.st4{enable-background:new    ;}
	.st5{fill:#FFFFFF;}
</style>
<title>bookie-skypebetting</title>
<rect y="0" class="st0" width="125" height="45.9"/>
<path class="st1" d="M19.5,22.3c0.3-0.4,0.8-0.8,1.1-1.2c1.1-1.1,2.1-2.4,3.2-3.5c0.3-0.3,0.7-0.6,1.2-0.7c0.6-0.1,1.2,0.1,1.6,0.5
	c0.2,0.1,0.3,0.3,0.4,0.5c0.1-0.3,0.3-0.5,0.5-0.6c0.9-0.6,2.1-0.4,2.8,0.5c0.2,0.2,0.3,0.5,0.3,0.8c0.8,2.9,1.6,5.8,2.4,8.8
	c0,0.1,0,0.1,0.1,0.1s0.1-0.1,0.1-0.1c0.5-2.1,1.2-4.2,1.7-6.3c0.3-0.9,0.5-1.8,0.7-2.6c0.1-0.5,0.5-0.9,0.9-1.1
	c0.9-0.4,1.9-0.1,2.4,0.6l0.1,0.1l0.1-0.1c0.2-0.5,0.7-0.8,1.3-0.8c0.3,0,0.6,0,0.9,0.1c0.6,0.2,1,0.7,1.1,1.3c0,0.3,0,0.6,0,0.9
	v0.1c0.1,0,0.1,0,0.1-0.1c0.5-1.2,1.6-2,2.9-2.2c2.8-0.6,5.7,1,6.6,3.8c0.2,0.4,0.3,0.8,0.4,1.2c0,0.1,0,0.1,0.1,0.1
	c0.2-1,0.6-1.9,1.2-2.7c0.9-1.1,2.1-1.9,3.4-2.2c1-0.3,2.1-0.4,3.2-0.3c1.2,0,2.3,0.4,3.3,1.1c1.4,0.9,2.4,2.3,2.7,4
	c0.2,0.7,0.2,1.3,0.1,2c-0.1,0.4-0.4,0.8-0.9,0.8c-0.2,0.1-0.5,0.1-0.7,0.1h-8.4c-0.1,0-0.2,0.1-0.2,0.2c0,0,0,0,0,0.1
	c0,1.6,1.1,3,2.7,3.3c1.1,0.2,2.2,0,3.2-0.6c0.3-0.2,0.6-0.4,0.9-0.7c0.5-0.5,1.2-0.6,1.8-0.3c0.8,0.3,1.1,1.2,0.8,2
	c0,0.1-0.1,0.1-0.1,0.2c-0.3,0.6-0.8,1.1-1.4,1.4c-0.8,0.5-1.7,0.8-2.6,1c-0.7,0.1-1.4,0.2-2.2,0.2c-1.2,0-2.4-0.3-3.5-0.8
	c-1.6-0.8-2.9-2.2-3.3-4c0-0.1-0.1-0.2-0.1-0.3c-0.1,0.6-0.3,1.1-0.5,1.6c-0.5,1.3-1.5,2.3-2.7,2.9c-0.9,0.4-1.9,0.6-2.9,0.5
	c-0.7,0-1.4-0.2-2-0.5c-0.5-0.3-1-0.7-1.3-1.2c0-0.1-0.1-0.1-0.1-0.1c-0.1,0,0,0.1,0,0.1v5c0.1,1-0.6,1.8-1.6,1.9
	c-0.1,0-0.3,0-0.4,0c-0.5,0-0.9-0.1-1.3-0.4c-0.3-0.3-0.6-0.7-0.6-1.2c0-0.3,0-0.6,0-0.9V20.2l0,0l-0.9,2.2
	c-1.2,3.5-2.4,6.9-3.7,10.4c-0.3,0.8-0.6,1.5-1.1,2.1c-0.6,0.8-1.5,1.3-2.4,1.4c-0.6,0.1-1.3,0-1.9-0.1c-0.6-0.1-1-0.6-1.2-1.2
	c-0.2-0.8,0.2-1.6,1-1.8c0.1,0,0.3-0.1,0.4-0.1c0.3,0,0.5,0,0.8,0c0.5,0.1,1.1-0.3,1.2-0.8c0,0,0,0,0,0c0.1-0.2,0.1-0.5,0-0.7
	c-1.3-3.7-2.6-7.5-3.9-11.2c-0.1-0.3-0.2-0.6-0.3-0.9c-0.3,0.3-0.6,0.7-0.9,1c-0.7,0.7-1.4,1.5-2.2,2.2c-0.1,0.1-0.1,0.1,0,0.3
	c1.3,1.7,2.6,3.5,3.9,5.2c0.6,0.7,0.6,1.8,0,2.5c-0.7,0.8-1.9,0.9-2.7,0.2c-0.1,0-0.1-0.1-0.2-0.2c-0.4-0.4-0.7-0.9-1-1.4
	c-1-1.3-1.9-2.6-2.8-3.9c-0.1-0.1-0.1-0.1-0.2,0c-0.3,0.3-0.8,0.7-1.2,1c0,0.1-0.1,0.1-0.1,0.2v2.8c0,0.4-0.1,0.8-0.3,1.2
	c-0.3,0.4-0.7,0.7-1.2,0.7c-0.4,0.1-0.9,0-1.3-0.1c-0.5-0.3-0.9-0.8-1-1.4c-0.1-0.6,0-1.2-0.1-1.8c0,0-0.1,0.1-0.1,0.1
	c-0.4,1-1.2,1.8-2.2,2.3c-0.8,0.4-1.7,0.7-2.6,0.8c-1.6,0.1-3.1-0.1-4.6-0.6c-0.8-0.3-1.5-0.7-2-1.3c-0.6-0.6-0.8-1.4-0.5-2.2
	c0.2-0.5,0.7-0.9,1.3-0.9c0.5,0,0.9,0.2,1.3,0.5c0.3,0.3,0.8,0.7,1.1,1c0.7,0.6,1.5,0.9,2.4,0.9c0.5,0,1-0.1,1.4-0.3
	c0.3-0.2,0.6-0.5,0.8-0.8c0.1-0.4-0.1-0.9-0.4-1.1c-0.4-0.2-0.8-0.4-1.2-0.5L7,25c-0.7-0.2-1.4-0.5-2-0.9c-0.8-0.5-1.4-1.4-1.5-2.4
	c-0.1-0.9,0-1.8,0.4-2.6c0.4-0.8,1.1-1.4,1.9-1.7c0.7-0.3,1.5-0.5,2.3-0.6c0.7-0.1,1.4-0.1,2.1,0c1.3,0.1,2.5,0.5,3.7,1.1
	c0.5,0.3,0.9,0.7,1.1,1.2c0.3,0.9-0.1,1.8-0.9,2.2c-0.1,0-0.2,0.1-0.3,0.1c-0.5,0-1-0.1-1.4-0.5c-0.3-0.2-0.5-0.5-0.9-0.8
	c-0.6-0.4-1.2-0.6-1.9-0.6c-0.5,0-1.1,0-1.6,0.2c-0.4,0.1-0.7,0.3-0.7,0.8c-0.1,0.5,0.1,0.9,0.5,1.1c0.4,0.2,0.8,0.3,1.2,0.4
	c1.3,0.2,2.5,0.6,3.7,1c0.8,0.3,1.6,0.8,2.2,1.4c0.3,0.3,0.5,0.6,0.6,1V13.5c0-0.3,0.1-0.6,0.1-0.9c0.2-0.5,0.6-0.8,1.1-1
	c0.6-0.2,1.2-0.1,1.7,0.1c0.5,0.3,0.8,0.7,0.8,1.3c0,0.2,0,0.5,0,0.8C19.5,16.8,19.5,19.5,19.5,22.3z M48.6,24c0-0.3,0-0.5-0.1-0.8
	c0-0.6-0.2-1.3-0.5-1.8c-0.7-1.4-2.4-2-3.8-1.3c-0.5,0.3-0.9,0.6-1.2,1.1c-0.5,0.8-0.7,1.8-0.6,2.7c0,0.9,0.1,1.8,0.5,2.6
	c0.5,1.3,2,2,3.3,1.6c0.8-0.2,1.5-0.8,1.8-1.6C48.4,25.8,48.6,24.9,48.6,24z M62.6,22.6c-0.1-0.8-0.5-1.6-1.1-2.2
	c-1-0.9-2.4-1.1-3.6-0.5c-1.1,0.5-1.9,1.6-2,2.8H62.6z"/>
<path class="st2" d="M69.5,17.8c-0.1,0.3-0.3,0.7-0.3,1C69.1,19,69,19.2,69,19.3c0,0.1-0.1,0.1-0.1,0.1c-0.3,0-0.3,0-0.3-0.3
	s-0.3-0.8-0.4-1.3c0-0.1,0-0.1-0.1-0.1v1.4c0,0.1,0,0.2-0.2,0.2s-0.3,0-0.3-0.3v-1.9c0-0.1,0-0.2,0.1-0.2c0,0,0,0,0.1,0h0.4
	c0.1,0,0.1,0.1,0.2,0.1c0.1,0.5,0.3,1,0.5,1.4c0,0,0,0.1,0.1,0.1c0,0,0,0,0,0c0.1-0.5,0.3-1,0.5-1.5c0-0.1,0.1-0.1,0.2-0.1H70
	C70,17,70,17,70,17v2.2c0,0.1,0,0.1-0.1,0.1c-0.4,0-0.4,0-0.4-0.3C69.6,18.7,69.5,18.3,69.5,17.8L69.5,17.8z"/>
<path class="st3" d="M66.2,17.2h0.9c0.1,0,0.1,0,0.1,0.1c0,0.3,0,0.3-0.3,0.3c-0.1,0-0.3-0.1-0.4,0s0,0.3,0,0.4v1.4
	c0,0.1,0,0.1-0.1,0.1c-0.4,0-0.4,0-0.4-0.4v-1.4c0-0.1,0-0.1-0.1-0.1h-0.5c-0.1,0-0.1-0.1-0.1-0.1c0-0.3,0-0.3,0.3-0.3
	C65.7,17.2,65.9,17.2,66.2,17.2z"/>
<g>
	<g class="st4">
		<path class="st5" d="M73,18.5h1.8c1.1,0,1.9,0.2,2.4,0.6c0.5,0.4,0.8,1.1,0.8,1.9c0,0.4-0.1,0.8-0.3,1.1c-0.2,0.3-0.4,0.6-0.8,0.8
			c0.5,0.2,0.9,0.5,1.2,0.9c0.3,0.4,0.4,0.9,0.4,1.4c0,1-0.3,1.7-0.8,2.2c-0.5,0.5-1.4,0.7-2.6,0.7H73V18.5z M73.9,19.5v3.2h0.6
			c0.9,0,1.6-0.1,2-0.4c0.4-0.3,0.6-0.7,0.6-1.3c0-0.6-0.2-1-0.5-1.2s-0.9-0.4-1.7-0.4H73.9z M73.9,23.6v3.6h1.3
			c0.8,0,1.4-0.1,1.7-0.4c0.4-0.3,0.6-0.8,0.6-1.4c0-0.6-0.2-1.1-0.6-1.4c-0.4-0.3-1-0.5-1.7-0.5H73.9z"/>
		<path class="st5" d="M81.5,22.9h4.1v1h-4.1v3.4h4.1v0.9h-5v-9.7h5v0.9h-4.1V22.9z"/>
	</g>
	<g class="st4">
		<path class="st5" d="M90.1,28.2h-0.9v-8.7h-1.9v-0.9h4.8v0.9h-1.9V28.2z"/>
	</g>
	<g class="st4">
		<path class="st5" d="M96,28.2h-0.9v-8.7h-1.9v-0.9H98v0.9H96V28.2z"/>
		<path class="st5" d="M100.6,28.2h-0.9v-9.7h0.9V28.2z"/>
		<path class="st5" d="M109.5,27l-0.1-8.5h0.9v9.7h-1.1l-5.3-8.5l0.1,8.5H103v-9.7h1.1L109.5,27z"/>
		<path class="st5" d="M116.1,23.6h6c-0.1,1.4-0.6,2.6-1.5,3.5c-0.9,0.9-2.1,1.4-3.4,1.4c-1.4,0-2.6-0.5-3.5-1.5s-1.4-2.2-1.4-3.6
			c0-0.7,0.1-1.3,0.4-1.9c0.3-0.6,0.6-1.2,1.1-1.6c0.5-0.5,1-0.8,1.6-1.1s1.2-0.3,1.9-0.3c0.9,0,1.8,0.2,2.5,0.7
			c0.7,0.5,1.3,1.1,1.8,1.9h-1.2c-0.5-0.6-0.9-1-1.5-1.3s-1.1-0.4-1.7-0.4c-1.1,0-2,0.4-2.8,1.2c-0.8,0.8-1.2,1.7-1.2,2.9
			c0,1.2,0.4,2.2,1.1,3c0.8,0.8,1.7,1.2,2.8,1.2c0.9,0,1.7-0.3,2.4-0.8c0.7-0.6,1.2-1.3,1.4-2.2h-4.9V23.6z"/>
	</g>
</g>
</svg>
