<?xml version="1.0" encoding="utf-8"?>
<!-- Generator: Adobe Illustrator 23.0.1, SVG Export Plug-In . SVG Version: 6.00 Build 0)  -->
<svg version="1.1" id="Layer_1" xmlns="http://www.w3.org/2000/svg" xmlns:xlink="http://www.w3.org/1999/xlink" x="0px" y="0px"
	 viewBox="0 0 125 45.9" style="enable-background:new 0 0 125 45.9;" xml:space="preserve">
<style type="text/css">
	.st0{fill:#FFFFFF;}
	.st1{fill:#2F4B74;}
	.st2{fill:none;}
	.st3{fill:none;stroke:#2F4B74;stroke-miterlimit:10;}
</style>
<title>bookie-skypebetting</title>
<rect x="0.3" y="0.1" class="st0" width="125" height="45.9"/>
<g id="ga288">
	<g>
		<path class="st1" d="M75,11.3c-3.5-0.5-4.8,4-4.8,4c-1.6-2.5-2.4-0.2-2.4-0.2c-0.9,3.3,1.7,6.3,1.7,6.3c0.3,0.5,0.6,0.7,0.7,0.7
			c0.5,0.1,0.7-0.6,0.7-0.6c2-0.9,2,0.8,2,0.8c0.2,1.9,2.4,1.5,2.4,1.5c0.6,0.1,0.7-0.4,0.7-0.4c-0.2-0.7,0.9-8.7,0.9-8.7
			C77.7,11.9,75,11.3,75,11.3z M72.9,18.6c0,0-0.5,0.7-0.8,0.7c0,0-0.9,0.1-1-0.6c0,0-0.3-0.7,0-0.7h1.7
			C72.6,18.1,73.4,18.1,72.9,18.6z M72.5,16.3c0,0-0.2-0.2-0.5-0.1c-0.3,0-0.7,0.3-1.2-0.1c-0.2-0.1-0.5-0.2-0.4-0.7
			c0,0,0.7-1.5,1.5-1.5c0,0,1.5-0.7,1.7,0.9C73.7,14.8,73.6,16.6,72.5,16.3z"/>
	</g>
	<g>
		<path class="st1" d="M76.5,27.6c-0.3,1.8-1.4,0.9-1.4,0.9c-1.2-0.7,0.2-2.5,0.2-2.5l3.5-2.3c0-0.6-0.9,0-0.9,0l-2.5,1.7l-3.1-0.8
			c0.1,0.7-0.8,0.7-0.8,0.7c1.6,0.8,0.4,2.1,0.4,2.1c-3.1,2.5-2.8,0.6-2.8,0.6c0-0.4,0.8-2,0.8-2c-0.7-0.4-0.5-2.3-0.5-2.3
			c-2.4,0.6-2.9,4.7-2.9,4.7c-0.5,1,0.3,1.7,0.3,1.7c0.5,0.7,1.6,0.2,1.6,0.2l2.9-1.9c0.7-0.5,1.2,0.4,1.2,0.4
			c0.3,0.6-0.3,1.1-0.3,1.1l-2.1,1.9c-0.2,0.2,0.4,0.8,0.4,0.8c0.5,0.7,0.7,0.4,0.7,0.4c0.2-0.4,0.5-0.2,0.5-0.2l0.7,0.5
			c0.2,0.2,0.1,0.4,0.1,0.4c-0.3,0.7,0.1,1,0.1,1l1.5,0.7c0.6,0.4,1.4-0.7,1.4-0.7l0.2-2.1c2-0.9,2.5-3.3,2.5-3.3
			C77.8,27.3,76.5,27.6,76.5,27.6z M75.3,31.8c0,0-0.8,0.1-0.7-0.5c0,0,0.2-0.7,0.5-0.9l0.6-0.4c0,0,0.5-0.4,0.8,0.2
			C76.4,30.3,76.8,31.1,75.3,31.8z"/>
	</g>
	<path class="st1" d="M70.8,35.1c0,0,0.4-0.2,0.7-0.3c0,0,0.9-0.5,1.2,0.1c0,0-0.2,0.6-0.9,0.7c0,0-0.3,0-0.5,0.2
		c0,0-0.5,0.5-1.2,0.4c0,0-1.1,0-0.6-0.6C69.6,35.5,70.4,35.2,70.8,35.1z"/>
	<path class="st1" d="M77.7,35.1l3.6,0.2c0,0,0.6,0,0.6,0.2s-0.4,0.9-0.9,1c0,0-5.6-0.9-12.2,1.3c0,0-3.5,0.7-4.2,0
		c0,0-0.6-0.8,1.1-1.2H67c0,0,1.6,0.2,4.5-0.2c1-0.2,2.1-0.6,3.5-0.9C75.7,35.4,76.7,35.3,77.7,35.1z"/>
	<path class="st1" d="M88.9,18.5l2.7-1.5c0,0,0.7-0.4,1.2,0c0,0,0.1,0.5,1.1,0.5c0,0,0.3-0.1,0.3,0.2v1.2c0,0-0.2,0.5-0.6,0.5
		c0,0-0.2,0-0.2,0.6v3.4c0,0-0.5,2,0.5,3c0,0-0.3,1.4-1.6,1.1c0,0-0.4-0.2-0.7-0.5c0,0-0.2-0.7-0.8-0.7c0,0-0.9,0.1-0.7,0.8
		l-0.2,4.6c0,0-0.1,1,1-0.2c0,0,1.1,1.5-1.1,3.3c0,0-1.5,0.1-1.3-1.1c0,0-0.5-10.3,0.5-11.5l0.4-0.6c0,0,0.1-0.1,0.2,0l1,1.4
		c0,0,0.7,0.8,0.7-0.3l0.1-2.2c0,0-0.1-0.7-0.8-0.7l-0.7,0.1c0,0-0.7,0.1-0.8-0.2C89.2,19.5,88.2,19.1,88.9,18.5z"/>
	<g>
		<path class="st2" d="M97,24.4c0,0,0.3,0.7,0.7-0.1c0,0,1.2-1.8,0.4-1.5c-0.5,0.2-0.5,0.6-1.5,1.5C96.6,24.2,97,24.1,97,24.4z"/>
		<path class="st1" d="M107.8,21.1c-0.2-0.2-1.5,0.1-1.5,0.1c-2,0.6-1.4-0.8-1.4-0.8l0.7-1.3c0.8-1.2,0.2-2.5,0.2-2.5
			c-0.8-0.9-1.9-0.2-1.9-0.2l-2.7,1.7c-0.9,0.6-0.8-0.1-0.8-0.1c0.1-1-0.5-1.1-0.5-1.1C99.5,17,99.7,16,99.7,16c0.1-0.4-0.1-1-0.1-1
			c-0.3-0.2-0.1-0.4-0.1-0.4l0.8-0.6c0.8-0.1,1.7-0.9,1.7-0.9s0.4-1.3-1.1-1.7h-0.1c-1.4-0.2-1.1,1.6-1.1,1.6l-2.1,3.8
			c4.4,1.7-0.4,5.3-0.4,5.3c-0.6,0.5-0.6,2-0.6,2c0.9-0.9,0.9-1.3,1.5-1.5c0.8-0.3-0.4,1.5-0.4,1.5c-0.5,0.8-0.7,0.1-0.7,0.1
			c0-0.2-0.4-0.2-0.4-0.2c-0.7,0.3-0.5,1.8-0.5,1.8c0.2-0.7,2.2-1.2,2.2-1.2c0.9,0,1.1-0.9,1.1-0.9c-0.1-0.4,0.6-2.8,0.6-2.8
			l1.1-2.3l3-1.3c0.9-0.4,0.7,0.2,0.7,0.2c0.1,1-0.4,1.9-0.4,1.9c-0.8,0.1-0.7,1.3-0.7,1.3c-0.5,1-1.2,0.3-1.2,0.3
			c-0.5-0.4-0.7,0-0.7,0l-1.5,1.2c-0.6,0.4,0,1.5,0,1.5c0.3,0.7,1.6,0.3,1.6,0.3l3-2c0.1,0.4,1.2,0.6,1.2,0.6l-2.7,1.9l4.6-2.2
			C108.5,21.8,107.8,21.1,107.8,21.1z M101.9,22.7c-0.3,0.2-0.5,0.2-0.6,0c-0.1-0.1,0.1-0.4,0.3-0.5c0.3-0.2,0.5-0.2,0.6,0
			C102.3,22.3,102.2,22.6,101.9,22.7z"/>
	</g>
	<g>
		<path class="st1" d="M106.9,33.1l-1.6-1.3c-0.3-0.3-0.6-0.2-0.6-0.2c-0.9,0.7-1.4,0-1.4,0c-0.3-1.1-1.7-1.3-1.7-1.3
			c-0.7,0-0.7-0.4-0.7-0.4c-0.6-0.4,0-1.1,0-1.1l1.8-1.7c0.5-0.4,0-1.1,0-1.1c-0.5-0.8-1-0.4-1-0.4L99.1,27c-1.1,0.9,0.6,1,0.6,1
			c1.2,0.1,0.7,1.2,0.7,1.2l-1.4,1.5c-0.8,0.7-0.5,1.3-0.5,1.3c0,0.4,0.6,0.2,0.6,0.2c0.1-0.3,1.2-0.6,1.2-0.6c2,0,1.3,1.4,1.3,1.4
			c-0.1,0.6-1.9,1.2-1.9,1.2c-2.7-0.3-3.5,0.6-3.5,0.6c-0.8,0.6-0.2,1-0.2,1c0.9,0.4,2-0.3,2-0.3c0.5-0.4,1.5-0.2,1.5-0.2
			c0.1,0.6,0.9,0.7,0.9,0.7c0,1.6,1.9,0.8,1.9,0.8c0.6-0.2,0.6-0.7,0.6-0.7c-0.3-0.9,0.2-1.8,0.2-1.8c0.8-0.3,0.5-1.5,0.5-1.5
			c0.1-0.5,1-0.2,1-0.2l1.8,1.2c0.7,0.5,0.9,0,0.9,0C107.6,33.6,106.9,33.1,106.9,33.1z M101.5,35.1c0,0-0.5,0.8-1.1,0.7
			c0,0-0.6-0.1-0.8-0.7c0,0,0.7-1,1.6-0.9C101.2,34,102.3,34.1,101.5,35.1z"/>
	</g>
	<g id="_x31_">
		<g>
			<path class="st1" d="M39.8,24.6l0.8-1.7c0.1-0.2,0.1-0.4-0.1-0.6l-1.4-1.3c-0.2-0.1-0.4-0.2-0.6-0.1l-1.7,0.9
				c-0.2,0.1-0.3,0.3-0.3,0.5l0.4,1.9c0,0.2,0.2,0.4,0.4,0.4l1.9,0.3C39.5,24.9,39.7,24.8,39.8,24.6z"/>
			<path class="st1" d="M42,17.2c-1.5-0.8-3.1-1-4.6-0.7v0.1l2.2,1.5L42,17.2z"/>
			<path class="st1" d="M34.2,17.9L34.2,17.9c-0.5,0.4-0.8,0.7-1.1,1.2c-0.7,0.9-0.9,1.6-1,2.6l2-1.2L34.2,17.9z"/>
			<path class="st1" d="M32.6,25.9L32.6,25.9c0.5,1.2,1.1,2,2.2,2.8c0.3,0.2,0.6,0.3,0.8,0.5l0,0l-0.8-2.5L32.6,25.9z"/>
			<path class="st1" d="M41,27.6l-1.6,2.1h0.1c1.6-0.2,2.6-0.6,3.7-1.8v-0.2L41,27.6z"/>
			<path class="st1" d="M44.6,19.8c-0.1,0-0.2-0.1-0.2-0.1l-0.7,2.5l1.4,2.1l0.1-0.1C45.5,22.7,45.3,21.2,44.6,19.8z"/>
		</g>
		<circle class="st3" cx="38.4" cy="23.2" r="14.8"/>
		<g>
			<path class="st1" d="M32.2,15.4c-1.1-1.4-1.3-2.5-1.5-4.2c1.5,0.7,2.3,1.4,3.2,3c1.4-0.7,3-1.1,4.6-1.2c-1.6-2.1-4.5-4.9-8.9-5.6
				c0.4-3.3,2.2-5.7,2.2-5.7c-1.8,2-2.9,3.9-3.6,5.7c-2,0-4.2,0.3-6.8,1.2c0,0,3-0.8,6.3,0.2c-1.1,4.3,0.3,8,1.7,10.3
				C30.1,17.8,31,16.5,32.2,15.4z"/>
			<path class="st1" d="M46.4,16.6c1.3-1.1,2.2-1.2,3.9-1.4c-0.8,1.5-1.2,2.3-2.7,3.3c0.7,1.4,1.1,2.9,1.1,4.5
				c2.1-1.6,4.9-4.5,5.5-8.8c3.4,0.3,5.8,2.1,5.8,2.1c-2-1.8-3.9-2.9-5.7-3.6c0-2-0.3-4.2-1.2-6.8c0,0,0.8,3-0.2,6.3
				c-4.4-1.2-8,0.3-10.2,1.7C44,14.5,45.3,15.4,46.4,16.6z"/>
			<path class="st1" d="M49.4,37.4c1.1-4.3-0.3-7.9-1.7-10.2c-0.7,1.5-1.7,2.8-2.9,3.7c1.1,1.4,1.5,2.6,1.7,4.2
				c-1.4-0.7-2.3-1.6-3.3-3.2c-1.4,0.7-3,1.1-4.6,1.1c1.6,2.2,4.4,5,8.8,5.6c-0.3,3.4-2.1,5.8-2.1,5.8c1.8-2,2.9-3.9,3.6-5.7
				c2,0,4.2-0.3,6.8-1.2C55.7,37.5,52.8,38.4,49.4,37.4z"/>
			<path class="st1" d="M30.9,29.4c-1.5,1.2-2.7,1.5-4.4,1.7c0.8-1.5,1.6-2.5,3.2-3.4c-0.7-1.3-1.1-2.9-1.1-4.5
				c-2.1,1.5-5,4.3-5.6,8.8c-3.4-0.3-5.8-2.1-5.8-2.1c2,1.8,3.9,2.9,5.7,3.6c0,2,0.3,4.2,1.2,6.8c0,0-0.8-3,0.2-6.3
				c4.4,1.2,8-0.3,10.3-1.7C33.3,31.6,32,30.7,30.9,29.4z"/>
		</g>
		<g>
			<path class="st1" d="M33.9,17.2c-0.6-0.5-0.9-0.9-1.3-1.3c-1.2,1-2.2,2.4-2.8,3.9c0.6,0.9,1.1,1.6,1.4,1.9
				C31.6,19.9,32.5,18.3,33.9,17.2z"/>
			<path class="st1" d="M39.2,15.5c0.3,0,0.7,0.1,0.9,0.1c-0.1-0.3-0.5-1-1.1-2c-0.1,0-0.2,0-0.4,0c-1.6,0-3.1,0.4-4.5,1.1
				c0.3,0.5,0.5,1,0.7,1.7c0.9-0.5,2-0.8,3-0.9C38.4,15.5,38.7,15.5,39.2,15.5z"/>
			<path class="st1" d="M42.2,16.4c0.9,0.5,1.8,1.2,2.4,2c0.5-0.6,0.9-0.9,1.3-1.3c-1-1.2-2.4-2.2-4-2.8c-0.9,0.7-1.6,1.2-1.8,1.4
				c0.4,0.1,0.7,0.2,1.1,0.4C41.6,16.1,41.9,16.3,42.2,16.4z"/>
			<path class="st1" d="M46.1,24.5c0.3-0.1,1-0.5,2-1.1c0-0.1,0-0.2,0-0.3c0-1.6-0.4-3-1-4.3c-0.5,0.3-1,0.5-1.7,0.7
				c0.6,1,0.9,2.2,0.9,3.5C46.3,23.6,46.2,24.1,46.1,24.5z"/>
			<path class="st1" d="M43.2,29.1c0.5,0.5,0.9,0.9,1.3,1.3c1.3-1,2.2-2.3,2.9-3.9c-0.6-0.8-1.1-1.5-1.4-1.8
				C45.6,26.5,44.6,28.1,43.2,29.1z"/>
			<path class="st1" d="M37.3,30.5c0.1,0.3,0.5,1,1.1,2c0.1,0,0.2,0,0.3,0c1.6,0,3.1-0.4,4.4-1.1c-0.3-0.5-0.5-1-0.7-1.7
				c-1.1,0.6-2.3,0.9-3.6,0.9C38.2,30.7,37.7,30.6,37.3,30.5z"/>
			<path class="st1" d="M34.5,29.4c-0.7-0.5-1.3-1-1.8-1.7c-0.5,0.6-0.9,0.9-1.3,1.3c1,1.3,2.4,2.2,3.9,2.8c0.9-0.7,1.5-1.2,1.8-1.4
				c-0.3-0.1-0.7-0.2-0.9-0.3C35.5,30,34.9,29.7,34.5,29.4z"/>
			<path class="st1" d="M31.2,21.8c-0.2,0.1-0.9,0.4-2,1c0,0.1,0,0.2,0,0.3c0,1.6,0.4,3,1,4.3c0.5-0.3,1-0.5,1.7-0.7
				c-0.6-1-0.8-2.2-0.8-3.5C31.1,22.7,31.1,22.2,31.2,21.8z"/>
		</g>
	</g>
</g>
</svg>
