<svg id="Layer_2" data-name="Layer 2" xmlns="http://www.w3.org/2000/svg" viewBox="0 0 124.97 45.9"><defs><style>.cls-1{fill:#fff;}.cls-2{fill:#4e4d50;}.cls-3{fill:#bf272d;}</style></defs><title>bookie-ACW</title><rect class="cls-1" width="124.97" height="45.9"/><path class="cls-2" d="M20.12,17.8h-6.5c0-2.9.7-4.8,2.2-5.7s4.5-1.4,8.9-1.4c4.8,0,8.1.6,9.8,1.8s2.6,3.4,2.6,6.8V34.9h-6.4l.3-3.3h-.2c-1.2,2.4-4.1,3.6-8.5,3.6-6.5,0-9.7-2.5-9.7-7.4s3.3-7.4,9.9-7.4q6.6,0,8.1,2.7h.1V19.2c0-1.9-.4-3.1-1.1-3.7s-2.2-.9-4.5-.9C21.72,14.4,20.12,15.5,20.12,17.8Zm4.3,6.2c-3.6,0-5.4,1.1-5.4,3.4,0,1.6.4,2.6,1.1,3.1s2.3.7,4.7.7c3.9,0,5.8-1.2,5.8-3.5C30.72,25.2,28.62,24,24.42,24Z"/><path class="cls-3" d="M57.52,25.9h6.4v.8l-.4,3.6c-.8,3.3-4.6,4.9-11.5,4.9-5,0-8.4-.8-10.1-2.4s-2.5-4.9-2.5-9.8.8-8,2.5-9.7,4.9-2.5,9.7-2.5c4.6,0,7.8.6,9.4,1.8s2.5,3.5,2.5,6.9h-6.4q0-4.2-5.4-4.2c-2.6,0-4.2.4-4.8,1.3s-1,3-1,6.5c0,3.3.4,5.4,1.1,6.3s2.5,1.3,5.3,1.3q3.3,0,4.2-.9C57.22,29.3,57.52,28,57.52,25.9Z"/><path class="cls-2" d="M75.67,19.55l2,8,2.43-8H81l-3,9.73h-.8l-2-7.94-2,7.94h-.79l-3-9.73h1l2.42,8,2-8Z"/><path class="cls-2" d="M81.45,29.28h-1l3.78-9.73h1.15l3.76,9.73h-1l-1.16-3.06H82.61Zm5.16-3.93-1.85-4.88L83,25.35Z"/><path class="cls-2" d="M94.24,29.28H89.85V19.55h1v8.79h3.42Z"/><path class="cls-2" d="M99.87,29.28H95.49V19.55h1v8.79h3.42Z"/><path class="cls-2" d="M102.09,23.91h4.09v1h-4.09v3.46h4.09v.94h-5.05V19.55h5.05v1h-4.09Z"/><path class="cls-2" d="M110.08,29.28h-1V20.51h-1.94v-1H112v1h-1.94Z"/></svg>