<?xml version="1.0" encoding="utf-8"?>
<!-- Generator: Adobe Illustrator 22.1.0, SVG Export Plug-In . SVG Version: 6.00 Build 0)  -->
<svg version="1.1" id="Layer_2_1_" xmlns="http://www.w3.org/2000/svg" xmlns:xlink="http://www.w3.org/1999/xlink" x="0px" y="0px"
	 viewBox="0 0 125 45.9" style="enable-background:new 0 0 125 45.9;" xml:space="preserve">
<style type="text/css">
	.st0{fill:#FFFFFF;}
	.st1{fill:#653007;}
	.st2{fill:#D4860E;}
</style>
<rect class="st0" width="125" height="45.9"/>
<path class="st1" d="M3.8,26.8c2,1,4.2,1.6,6.5,1.6c2.7,0,4.1-1.1,4.1-2.8s-1.2-2.5-4.4-3.6c-4.4-1.5-7.2-3.9-7.2-7.7
	c0-4.4,3.8-7.8,9.8-7.8c2.3,0,4.6,0.4,6.7,1.3L18,12.4c-1.7-0.8-3.5-1.3-5.4-1.2c-2.5,0-3.8,1.2-3.8,2.5c0,1.7,1.5,2.4,4.8,3.7
	c4.6,1.7,6.7,4.1,6.7,7.7c0,4.4-3.3,8-10.4,8c-2.5,0-5-0.5-7.3-1.6L3.8,26.8z"/>
<path class="st1" d="M26,11.7c-1.6,0.1-3-1.1-3.1-2.7s1.1-3,2.7-3.1c0.2,0,0.3,0,0.5,0c1.6-0.1,2.9,1.1,3.1,2.7c0,0.1,0,0.2,0,0.3
	c0,1.6-1.2,2.9-2.8,2.9C26.2,11.7,26.1,11.7,26,11.7z M23.1,32.9V14H29v18.9H23.1z"/>
<path class="st1" d="M32.4,20c0-2.4-0.1-4.3-0.2-6h5l0.3,2.6h0.2c1.3-2,3.5-3.1,5.8-3.1c3.8,0,6.7,2.6,6.7,8.1v11.1h-5.8V22.4
	c0-2.5-0.8-4.1-3-4.1c-1.4,0-2.6,0.9-3,2.2c-0.2,0.5-0.2,1-0.2,1.5v10.9h-5.9L32.4,20z"/>
<path class="st1" d="M71.7,30.1c0,3.6-0.8,6.6-2.9,8.5c-2.1,1.8-4.8,2.3-7.7,2.3c-2.4,0-4.7-0.5-6.8-1.5l1.2-4.4
	c1.7,0.9,3.5,1.4,5.4,1.5c2.8,0,4.9-1.5,4.9-5v-1.2h-0.1c-1.2,1.6-3.1,2.5-5.1,2.4c-4.7,0-8-3.8-8-9.2c0-6.1,3.9-9.9,8.6-9.9
	c2.1-0.1,4.1,0.9,5.1,2.7h0.1l0.3-2.3h5c-0.1,1.2-0.2,2.8-0.2,5.6v10.5H71.7z M65.8,21.7c0-0.4-0.1-0.7-0.2-1.1
	c-0.3-1.5-1.6-2.6-3.1-2.6c-2.1,0-3.8,1.9-3.8,5.4c0,2.8,1.4,5,3.8,5c1.5,0,2.7-1,3.1-2.4c0.2-0.5,0.2-1.1,0.2-1.6L65.8,21.7
	L65.8,21.7z"/>
<path class="st2" d="M75.7,7.2c2-0.4,4.1-0.6,6.1-0.5c3.4,0,5.5,0.6,7.1,1.9c1.4,1.1,2.2,2.8,2.1,4.6c-0.1,2.6-1.8,4.9-4.4,5.7v0.1
	c3.1,0.6,5.3,3.4,5.4,6.5c0,2-0.8,3.8-2.2,5.2c-1.8,1.7-4.8,2.5-9,2.5c-1.7,0-3.5-0.1-5.2-0.3L75.7,7.2z M79.1,17.9h3.1
	c3.5,0,5.6-1.8,5.6-4.4c0-3.1-2.3-4.2-5.7-4.2c-1,0-2,0.1-3,0.2L79.1,17.9z M79.1,30.3c0.9,0.1,1.9,0.2,2.8,0.1c3.4,0,6.7-1.3,6.7-5
	c0-3.5-3.1-5-6.7-5h-2.8V30.3z"/>
<path class="st2" d="M97,24.1c0.1,4.6,3,6.5,6.4,6.5c1.8,0.1,3.5-0.3,5.1-1l0.6,2.5c-2,0.8-4.1,1.2-6.2,1.2c-5.7,0-9.2-3.8-9.2-9.4
	s3.3-10,8.7-10c6.1,0,7.7,5.4,7.7,8.8c0,0.5-0.1,1.1-0.2,1.6L97,24.1L97,24.1z M107,21.7c0.1-2.1-0.9-5.5-4.7-5.5
	c-3.4,0-4.9,3.1-5.2,5.5H107z"/>
<path class="st2" d="M117.4,8.8v5.4h4.8v2.6h-4.8v10c0,2.3,0.7,3.6,2.5,3.6c0.7,0,1.3-0.1,2-0.2l0.2,2.5c-1,0.4-2,0.5-3,0.5
	c-1.4,0.1-2.7-0.5-3.7-1.5c-1-1-1.3-2.7-1.3-4.8V16.8h-2.9v-2.6h2.9V9.8L117.4,8.8z"/>
</svg>
