<svg id="Layer_1" data-name="Layer 1" xmlns="http://www.w3.org/2000/svg" xmlns:xlink="http://www.w3.org/1999/xlink" viewBox="0 0 2729.225 1002.412"><defs><style>.cls-1,.cls-12{fill:none;}.cls-2{fill:#fff;}.cls-3{fill:url(#linear-gradient);}.cls-4{fill:url(#linear-gradient-2);}.cls-5{fill:url(#linear-gradient-3);}.cls-6{fill:url(#linear-gradient-4);}.cls-7{fill:url(#linear-gradient-5);}.cls-8{fill:url(#linear-gradient-6);}.cls-9{fill:url(#linear-gradient-7);}.cls-10{fill:url(#linear-gradient-8);}.cls-11{fill:url(#linear-gradient-9);}.cls-12{stroke:#e2e2e2;stroke-miterlimit:10;stroke-width:5px;}.cls-13{clip-path:url(#clip-path);}.cls-14{fill:#0b0b0b;}.cls-15{fill:url(#linear-gradient-10);}.cls-16{fill:url(#linear-gradient-11);}.cls-17{fill:#961b1f;}</style><linearGradient id="linear-gradient" x1="2384.191" y1="786.676" x2="2384.191" y2="495.315" gradientUnits="userSpaceOnUse"><stop offset="0" stop-color="#646162"/><stop offset="0.85"/></linearGradient><linearGradient id="linear-gradient-2" x1="2678.135" y1="786.676" x2="2678.135" y2="495.315" xlink:href="#linear-gradient"/><linearGradient id="linear-gradient-3" x1="2954.49" y1="791.644" x2="2954.49" y2="490.346" xlink:href="#linear-gradient"/><linearGradient id="linear-gradient-4" x1="667.092" y1="786.676" x2="667.092" y2="495.315" xlink:href="#linear-gradient"/><linearGradient id="linear-gradient-5" x1="937.088" y1="791.644" x2="937.088" y2="490.346" xlink:href="#linear-gradient"/><linearGradient id="linear-gradient-6" x1="1131.56" y1="786.676" x2="1131.56" y2="495.315" xlink:href="#linear-gradient"/><linearGradient id="linear-gradient-7" x1="1323.151" y1="786.676" x2="1323.151" y2="495.315" xlink:href="#linear-gradient"/><linearGradient id="linear-gradient-8" x1="1604.673" y1="786.676" x2="1604.673" y2="495.315" xlink:href="#linear-gradient"/><linearGradient id="linear-gradient-9" x1="1558.613" y1="626.902" x2="1558.613" y2="238.902" gradientUnits="userSpaceOnUse"><stop offset="0" stop-color="#acabab"/><stop offset="0.5" stop-color="#fff"/></linearGradient><clipPath id="clip-path" transform="translate(-443.225 -199.267)"><circle class="cls-1" cx="2001.838" cy="632.169" r="194"/></clipPath><linearGradient id="linear-gradient-10" x1="841.88" y1="717.691" x2="87.38" y2="717.691" gradientUnits="userSpaceOnUse"><stop offset="0.4" stop-color="#961b1f"/><stop offset="1" stop-color="#fff"/></linearGradient><linearGradient id="linear-gradient-11" x1="1872.88" y1="717.691" x2="2627.38" y2="717.691" xlink:href="#linear-gradient-10"/></defs><title>bookie-AO</title><rect class="cls-2" width="2729.225" height="1002.412"/><g id="dds"><path class="cls-3" d="M2263.751,786.676V495.315h100.366q33.985,0,51.873,4.174,25.043,5.766,42.731,20.868,23.052,19.479,34.482,49.785t11.428,69.263q0,33.194-7.752,58.828t-19.874,42.433q-12.124,16.8-26.532,26.433t-34.782,14.608q-20.373,4.97-46.8,4.969Zm38.557-34.383h62.207q28.815,0,45.214-5.367t26.135-15.1q13.715-13.715,21.365-36.868t7.652-56.145q0-45.709-15-70.257t-36.47-32.892q-15.5-5.962-49.885-5.962h-61.213Z" transform="translate(-443.225 -199.267)"/><path class="cls-4" d="M2557.7,786.676V495.315h100.366q33.987,0,51.873,4.174,25.042,5.766,42.73,20.868,23.053,19.479,34.482,49.785t11.428,69.263q0,33.194-7.75,58.828t-19.875,42.433q-12.126,16.8-26.533,26.433t-34.779,14.608q-20.376,4.97-46.805,4.969Zm38.557-34.383h62.207q28.815,0,45.215-5.367t26.135-15.1q13.713-13.715,21.365-36.868t7.652-56.145q0-45.709-15.006-70.257t-36.469-32.892q-15.5-5.962-49.886-5.962h-61.213Z" transform="translate(-443.225 -199.267)"/><path class="cls-5" d="M2838.522,693.067l36.371-3.181q2.58,21.867,12.024,35.874t29.315,22.657q19.87,8.644,44.717,8.645,22.061,0,38.955-6.558t25.141-17.987a41.728,41.728,0,0,0,8.248-24.942,37.937,37.937,0,0,0-7.949-23.949q-7.953-10.235-26.236-17.191-11.729-4.57-51.872-14.211t-56.245-18.185q-20.868-10.928-31.1-27.129a66.457,66.457,0,0,1-10.236-36.271,74.056,74.056,0,0,1,12.521-41.239q12.521-19.177,36.569-29.117t53.463-9.937q32.393,0,57.139,10.434t38.06,30.707q13.313,20.271,14.309,45.91l-36.967,2.782q-2.979-27.622-20.172-41.736T2953.8,524.332q-34.983,0-50.979,12.819t-16,30.9q0,15.7,11.329,25.837,11.127,10.137,58.133,20.769t64.492,18.583q25.438,11.73,37.564,29.713t12.123,41.438q0,23.253-13.315,43.823t-38.259,32q-24.945,11.425-56.146,11.427-39.552,0-66.281-11.527t-41.936-34.681Q2839.317,722.285,2838.522,693.067Z" transform="translate(-443.225 -199.267)"/></g><g id="asian"><path class="cls-6" d="M530.753,786.676,642.646,495.315h41.538L803.432,786.676H759.509l-33.986-88.244H603.692l-32,88.244Zm84.069-119.645H713.6L683.19,586.34q-13.913-36.767-20.669-60.418a371.393,371.393,0,0,1-15.7,55.648Z" transform="translate(-443.225 -199.267)"/><path class="cls-7" d="M821.12,693.067l36.37-3.181q2.582,21.867,12.025,35.874t29.315,22.657q19.87,8.644,44.717,8.645,22.061,0,38.954-6.558t25.142-17.987a41.728,41.728,0,0,0,8.248-24.942,37.938,37.938,0,0,0-7.95-23.949q-7.952-10.235-26.235-17.191-11.729-4.57-51.873-14.211t-56.244-18.185q-20.868-10.928-31.1-27.129a66.465,66.465,0,0,1-10.235-36.271A74.055,74.055,0,0,1,844.77,529.4q12.522-19.177,36.57-29.117t53.462-9.937q32.393,0,57.14,10.434T1030,531.487q13.313,20.271,14.31,45.91l-36.967,2.782q-2.981-27.622-20.172-41.736t-50.78-14.111q-34.982,0-50.978,12.819t-16,30.9q0,15.7,11.329,25.837,11.128,10.137,58.132,20.769t64.494,18.583q25.437,11.73,37.563,29.713t12.123,41.438q0,23.253-13.316,43.823t-38.259,32q-24.944,11.425-56.145,11.427-39.552,0-66.282-11.527t-41.935-34.681Q821.915,722.285,821.12,693.067Z" transform="translate(-443.225 -199.267)"/><path class="cls-8" d="M1112.282,786.676V495.315h38.556V786.676Z" transform="translate(-443.225 -199.267)"/><path class="cls-9" d="M1186.811,786.676l111.894-291.361h41.538L1459.49,786.676h-43.923l-33.985-88.244H1259.751l-32,88.244Zm84.07-119.645h98.776l-30.408-80.691q-13.914-36.767-20.669-60.418a371.511,371.511,0,0,1-15.7,55.648Z" transform="translate(-443.225 -199.267)"/><path class="cls-10" d="M1489.9,786.676V495.315h39.55l153.034,228.756V495.315h36.967V786.676H1679.9L1526.864,557.721V786.676Z" transform="translate(-443.225 -199.267)"/></g><circle class="cls-11" cx="1558.613" cy="432.902" r="194"/><path class="cls-12" d="M2008.713,487.674s-10.58,72.171-7.529,84.856" transform="translate(-443.225 -199.267)"/><path class="cls-12" d="M2062.637,621.842s53.489-19.841,90.734-21.7" transform="translate(-443.225 -199.267)"/><path class="cls-12" d="M1929.745,612.1s-45.947-30.671-79.209-33.3" transform="translate(-443.225 -199.267)"/><path class="cls-12" d="M1903.446,744.02s51.207-55.229,53.682-70.7" transform="translate(-443.225 -199.267)"/><path class="cls-12" d="M2072.693,763.977s-46.837-71.009-47.185-75.186" transform="translate(-443.225 -199.267)"/><path class="cls-12" d="M1864.46,519.621s43.395-42,87.718-54.766" transform="translate(-443.225 -199.267)"/><path class="cls-12" d="M2066.2,470.657s41.152,20.421,89.729,77.352" transform="translate(-443.225 -199.267)"/><path class="cls-12" d="M2173.251,652.435s-10.675,64.976-43.472,97" transform="translate(-443.225 -199.267)"/><path class="cls-12" d="M2033.63,806.908s-57.783,7.89-98.161-8.122" transform="translate(-443.225 -199.267)"/><path class="cls-12" d="M1844.271,719.19s-24.366-43.627-21.581-97.348" transform="translate(-443.225 -199.267)"/><g class="cls-13"><path class="cls-14" d="M1988.611,437.12s-23.206-.541-43.937,30.709c0,0,26.146-1.16,63.043,24.289,0,0,18.8-14.268,70-13.107,0,0-6.5-46.842-70.236-42.664Z" transform="translate(-443.225 -199.267)"/><path class="cls-14" d="M1829.314,529.977s27.383-21.466,44.323-18.449c0,0-12.647,19.377-11.255,69.037,0,0-35.388,32.024-39.8,53.257,0,0-18.217-14.851-11.951-60.1S1829.314,529.977,1829.314,529.977Z" transform="translate(-443.225 -199.267)"/><path class="cls-14" d="M2185.627,560.405s-12.84-22.9-44.864-28.775c0,0,5.879,44.091-4.177,70.391,0,0,28,35.562,33.88,62.636,0,0,25.217-18.081,26.3-52.271C2196.766,612.386,2192.744,561.178,2185.627,560.405Z" transform="translate(-443.225 -199.267)"/><path class="cls-14" d="M2071.8,816.3s-34.189,2.784-47.494-8.819c0,0,27.692-15.78,45.947-47.8,0,0,42.045-4.361,68.036-20.3,0,0,6.687,23.39-15.127,49.225Z" transform="translate(-443.225 -199.267)"/><path class="cls-14" d="M1852.092,757.006s-17.49-21.8-10.219-44.391c0,0,21.659,16.554,64.048,28.93,0,0,6.739,36.3,36.278,59.561,0,0-12.755,8.654-39.674-.937C1902.525,800.169,1850.854,761.028,1852.092,757.006Z" transform="translate(-443.225 -199.267)"/></g><path class="cls-14" d="M1925.375,608.963s58.478-39.218,75.187-45.251c0,0,48.306,38.135,65.633,57.009,0,0-21.813,61.417-33.726,80.291,0,0-67.606-.928-86.944-6.961C1945.525,694.051,1927.038,640.059,1925.375,608.963Z" transform="translate(-443.225 -199.267)"/><rect class="cls-15" x="87.38" y="709.691" width="754.5" height="16"/><rect class="cls-16" x="1872.88" y="709.691" width="754.5" height="16"/><path class="cls-17" d="M1395.937,960.6h-9.455l-25.019-36.074h-18.327V960.6h-8V873.32h27.056c18.764,0,26.909,11.928,26.909,25.6,0,11.782-5.964,21.963-19.2,24.727ZM1381.1,898.922c0-9.019-4.509-18.474-18.909-18.474h-19.055v36.946h19.055C1376.591,917.394,1381.1,908.085,1381.1,898.922Z" transform="translate(-443.225 -199.267)"/><path class="cls-17" d="M1457.322,873.32v7.128h-41.456v30.691h34.183v7.128h-34.183v35.2h41.456V960.6h-49.456V873.32Z" transform="translate(-443.225 -199.267)"/><path class="cls-17" d="M1474.051,960.6h-8.291l36.074-87.275h6.545l36.074,87.275h-8.728l-10.473-25.31h-40.873Zm30.692-75.347-17.455,42.91h35.055Z" transform="translate(-443.225 -199.267)"/><path class="cls-17" d="M1563.8,873.32v80.148h41.455V960.6H1555.8V873.32Z" transform="translate(-443.225 -199.267)"/><path class="cls-17" d="M1635.655,880.448V873.32h70.256v7.128h-31.128V960.6h-8V880.448Z" transform="translate(-443.225 -199.267)"/><path class="cls-17" d="M1724.676,873.32V960.6h-8V873.32Z" transform="translate(-443.225 -199.267)"/><path class="cls-17" d="M1752.6,873.32l34.182,76.656,34.182-76.656h8.728V960.6h-8V901.248c0-6.836.145-14.109.145-14.254-.145.29-3.055,8-5.673,13.963L1789.7,960.6h-6.4l-26.473-59.638c-2.764-6.254-5.382-13.381-5.673-13.963,0,.145.145,7.273.145,14.254V960.6h-7.709V873.32Z" transform="translate(-443.225 -199.267)"/><path class="cls-17" d="M1898.062,873.32v7.128h-41.455v30.691h34.182v7.128h-34.182v35.2h41.455V960.6h-49.455V873.32Z" transform="translate(-443.225 -199.267)"/><path class="cls-17" d="M1982.284,871.139c25.6,0,44.655,19.2,44.655,45.819,0,26.764-19.055,45.819-44.655,45.819-25.746,0-44.656-19.055-44.656-45.819C1937.628,890.339,1956.538,871.139,1982.284,871.139Zm0,7.418c-21.092,0-36.365,15.419-36.365,38.4s15.273,38.4,36.365,38.4c20.8,0,36.364-15.418,36.364-38.4S2003.084,878.557,1982.284,878.557Z" transform="translate(-443.225 -199.267)"/><path class="cls-17" d="M2067.232,873.32c32.728,0,46.692,19.638,46.692,43.638S2099.96,960.6,2067.232,960.6h-25.6V873.32Zm38.4,43.638c0-19.055-9.455-36.074-38.255-36.074h-17.746v72.147h17.746C2096.178,953.031,2105.633,936.012,2105.633,916.958Z" transform="translate(-443.225 -199.267)"/><path class="cls-17" d="M2154.217,873.32c32.728,0,46.692,19.638,46.692,43.638s-13.964,43.637-46.692,43.637h-25.6V873.32Zm38.4,43.638c0-19.055-9.454-36.074-38.254-36.074h-17.746v72.147h17.746C2183.163,953.031,2192.617,936.012,2192.617,916.958Z" transform="translate(-443.225 -199.267)"/><path class="cls-17" d="M2212.838,944.741a37.512,37.512,0,0,0,25.6,10.617c10.764,0,19.491-6.545,19.491-16.873,0-9.745-4.8-15.709-21.382-20.218-14.836-4.073-22.982-13.091-22.982-25.019s10.328-21.818,26.328-21.818a38.987,38.987,0,0,1,21.818,7.272l-1.745,6.837c-5.818-4.073-13.818-6.982-20.073-6.982-11.346,0-18.182,6.109-18.182,14.691,0,7.127,4.073,13.382,18.182,17.164,17.018,4.509,26.182,12.946,26.182,27.055,0,16.583-14.109,25.019-27.637,25.019-12.654,0-22.4-5.091-27.2-9.746Z" transform="translate(-443.225 -199.267)"/></svg>