<svg id="Layer_2" data-name="Layer 2" xmlns="http://www.w3.org/2000/svg" viewBox="0 0 124.97 45.9"><defs><style>.cls-1{fill:#fff;}.cls-2{fill:#d30b17;}</style></defs><title>bookie-matchbook</title><rect class="cls-1" width="124.97" height="45.9"/><polygon class="cls-2" points="115.86 24.71 113.56 27.16 117.88 31.74 122.09 31.74 122.09 31.16 115.86 24.71"/><path class="cls-2" d="M119.66,19.8a1.49,1.49,0,0,0-.32-2.13,1.59,1.59,0,0,0-2.18-.16l-4.27,4.59V18.9a1.71,1.71,0,1,0-3.41,0V31.8h3.41V27.05Z" transform="translate(-0.13)"/><path class="cls-2" d="M109.06,24.33a7.37,7.37,0,0,0-13.92-3.14l1.92,2.88c.7-1.34,2.88-3.36,4.53-3.41a3.89,3.89,0,1,1,.22,7.78,4.55,4.55,0,0,1-3.57-1.65,6.87,6.87,0,0,1-.64-.8c-.11-.16-.59-.75-.59-.75L96.85,25l-3.36-4.69h0a7.38,7.38,0,1,0,.43,7.78l-2-2.93c-.7,1.28-2.78,3.36-4.48,3.36a3.89,3.89,0,0,1,0-7.78A4.66,4.66,0,0,1,91,22.47c.26.37.58.74.74,1s.54.91.54.91l0,.05,2.34,3.36a9.15,9.15,0,0,0,1.12,1.6h0A8,8,0,0,0,101.86,32,7.56,7.56,0,0,0,109.06,24.33Z" transform="translate(-0.13)"/><path class="cls-2" d="M78.78,24.17A3.92,3.92,0,0,0,80,21.35a4,4,0,0,0-4-4H69.51a1.69,1.69,0,0,0-1.71,1.71V31.74h8.26a4.28,4.28,0,0,0,2.72-7.57Zm-2.45-2.61a1,1,0,0,1-1,1H71.21v-2h4.11A1,1,0,0,1,76.33,21.56Zm-.48,6.82H71.26V26h4.59a1.14,1.14,0,0,1,1,1.22A1.16,1.16,0,0,1,75.85,28.38Z" transform="translate(-0.13)"/><path class="cls-2" d="M64.92,17.19a1.68,1.68,0,0,0-1.7,1.71V23H57.41V18.84a1.68,1.68,0,1,0-3.36,0v12.9h3.41V26.15h5.81v5.59h3.41V18.84A1.76,1.76,0,0,0,64.92,17.19Z" transform="translate(-0.13)"/><path class="cls-2" d="M40.19,17.19H32.51a2.28,2.28,0,0,0-2.29,2.29V20.6h4.21V31.8h3.79V20.6h4.21V19.43A2.25,2.25,0,0,0,40.19,17.19Z" transform="translate(-0.13)"/><path class="cls-2" d="M30.12,31.74H34l-6-12.9a2.5,2.5,0,0,0-2.29-1.6,2.44,2.44,0,0,0-2.18,1.34h0L17.38,31.74h3.83l1.18-2.61H29Zm-6.24-6,1.6-3.57h.37l1.6,3.57Z" transform="translate(-0.13)"/><path class="cls-2" d="M18.28,19.22A2.26,2.26,0,0,0,16,17a2.39,2.39,0,0,0-1.92,1h0l-3.52,4.69L7.14,18.1a2.44,2.44,0,0,0-2-1.12,2.26,2.26,0,0,0-2.29,2.24h0V31.74H6.45V23.05l3.46,4.7h1.28L14.71,23v8.79h3.57V19.22Z" transform="translate(-0.13)"/><path class="cls-2" d="M51.44,27.75h-.11a4.37,4.37,0,0,1-2,.95,3.64,3.64,0,0,1-.8.06,4.27,4.27,0,1,1,0-8.53,5.23,5.23,0,0,1,1,.11,4.45,4.45,0,0,1,1.7.8h.27a2.81,2.81,0,0,0,2.56-1.76,7.4,7.4,0,0,0-4.91-2.46H48.4a7.57,7.57,0,1,0,0,15.14,4.35,4.35,0,0,0,.8-.05,7.54,7.54,0,0,0,4.85-2.51A2.75,2.75,0,0,0,51.44,27.75Z" transform="translate(-0.13)"/></svg>