<?xml version="1.0" encoding="utf-8"?>
<!-- Generator: Adobe Illustrator 22.1.0, SVG Export Plug-In . SVG Version: 6.00 Build 0)  -->
<svg version="1.1" id="Layer_1" xmlns="http://www.w3.org/2000/svg" xmlns:xlink="http://www.w3.org/1999/xlink" x="0px" y="0px"
	 viewBox="0 0 125.1 45.9" style="enable-background:new 0 0 125.1 45.9;" xml:space="preserve">
<style type="text/css">
	.st0{fill:#404040;}
	.st1{fill:#FFFFFF;}
	.st2{fill:url(#SVGID_1_);}
	.st3{fill:url(#SVGID_2_);}
</style>
<g>
	<rect x="0" y="-0.1" class="st0" width="125.1" height="46"/>
	<g>
		<path id="O" class="st1" d="M18.1,7.5C12.4,7.5,7.9,12,7.9,17.6s4.6,10.2,10.2,10.2s10.2-4.6,10.2-10.2S23.7,7.5,18.1,7.5z
			 M18.1,23.8c-3.4,0-6.2-2.8-6.2-6.2c0-3.4,2.8-6.2,6.2-6.2s6.2,2.8,6.2,6.2C24.2,21,21.5,23.8,18.1,23.8z"/>
		<path id="R" class="st1" d="M48,14.6c0-4-3.2-7.2-7.2-7.2h-11v14.7v5.6h3.7l0-5.6h5l3.9,5.6h4.8l-4.6-6.3
			C45.7,20.7,48,17.9,48,14.6z M40.6,17.8h-3.7L34,21.3v-3.4v-6h6.6c1.7,0,3,1.3,3,3S42.3,17.8,40.6,17.8z"/>
		<path id="B" class="st1" d="M62.4,16.5c0.7-0.9,1.1-2.1,1.1-3.4c0-3.1-2.5-5.6-5.5-5.6l0,0H49v20.4h10.9c3.1-0.3,5.4-3,5.4-6.1
			C65.3,19.5,64.1,17.5,62.4,16.5z M53.4,15.6v-3.8h3.9c1.1,0,1.9,0.9,1.9,1.9c0,1.1-0.9,1.9-1.9,1.9h-1.8l-2.1,2.2V15.6z
			 M59.2,23.6h-5.8v-4.1h5.8c1.1,0,2.1,0.9,2.1,2.1C61.3,22.7,60.4,23.6,59.2,23.6z"/>
		<path id="I_1_" class="st1" d="M70.8,27.8h-3.7V7.5h3.7V27.8z"/>
		<polygon id="T" class="st1" points="88.3,7.5 82.1,7.5 78.4,7.5 72.2,7.5 72.2,11.4 78.4,11.4 78.4,27.8 82.1,27.8 82.1,11.4 
			88.3,11.4 		"/>
		<g>
			<polygon class="st1" points="102.4,12.8 98.5,16.7 89.2,7.5 97.1,7.5 			"/>
			<polygon class="st1" points="102.4,22.4 98.5,18.5 89.2,27.8 97.1,27.8 			"/>
			<linearGradient id="SVGID_1_" gradientUnits="userSpaceOnUse" x1="107.0011" y1="14.3722" x2="113.395" y2="7.9783">
				<stop  offset="0" style="stop-color:#A6DD00"/>
				<stop  offset="1" style="stop-color:#54A65C"/>
			</linearGradient>
			<polygon class="st2" points="117.6,7.5 110.3,7.5 100.1,17.6 107.4,17.6 			"/>
			
				<linearGradient id="SVGID_2_" gradientUnits="userSpaceOnUse" x1="110.0191" y1="6.1827" x2="105.9597" y2="13.2138" gradientTransform="matrix(1 0 0 -1 0 30.9231)">
				<stop  offset="0" style="stop-color:#A6DD00"/>
				<stop  offset="1" style="stop-color:#54A65C"/>
			</linearGradient>
			<polygon class="st3" points="117.6,27.8 110.3,27.8 100.1,17.6 107.4,17.6 			"/>
		</g>
	</g>
	<g>
		<path class="st1" d="M8.9,37.1c0-1.7,1.1-3.1,3-3.1c2,0,3.1,1.5,3.1,3.1c0,1.7-1.1,3.2-3,3.2S8.9,38.7,8.9,37.1z M13.9,37.1
			c0-1.2-0.6-2.3-2-2.3s-2,1-2,2.3c0,1.2,0.7,2.3,2,2.3C13.3,39.4,13.9,38.3,13.9,37.1z"/>
		<path class="st1" d="M19,34h1.9c1.3,0,2.1,0.6,2.1,1.7c0,1-0.7,1.5-1.5,1.6v0c0.1,0.1,0.3,0.3,0.7,0.8l1.3,1.9h-1.2l-1.2-1.7
			c-0.6-0.8-0.7-0.9-1-0.9H20v2.6h-1V34z M20.8,36.7c0.8,0,1.1-0.3,1.1-0.9c0-0.6-0.4-0.9-1.2-0.9H20v1.9H20.8z"/>
		<path class="st1" d="M27.2,34H29c1.1,0,2,0.4,2,1.5c0,0.8-0.4,1.2-1.1,1.4v0c0.7,0.1,1.3,0.6,1.3,1.5c0,1.2-1,1.7-2.3,1.7h-1.8V34
			z M28.9,36.6c0.8,0,1.1-0.3,1.1-0.9c0-0.6-0.4-0.8-1.1-0.8h-0.7v1.7H28.9z M28.9,39.3c0.9,0,1.3-0.3,1.3-0.9c0-0.6-0.4-1-1.3-1
			h-0.8v1.9H28.9z"/>
		<path class="st1" d="M35.3,34h1v6.1h-1V34z"/>
		<path class="st1" d="M41.8,34.9h-1.7V34h4.4v0.9h-1.7v5.2h-1V34.9z"/>
		<path class="st1" d="M52.8,34h3.3v0.9h-2.3v1.6h2v0.8h-2v1.9h2.4v0.9h-3.4V34z"/>
		<path class="st1" d="M61.6,37L59.7,34h1.2l1.3,2.1l1.2-2.1h1.1L62.7,37l1.9,3.1h-1.2L62,37.8l-1.4,2.3h-1L61.6,37z"/>
		<path class="st1" d="M67.8,37c0-1.6,1.1-3.1,3.1-3.1c0.8,0,1.3,0.2,1.8,0.5l-0.5,0.8c-0.3-0.2-0.7-0.4-1.3-0.4
			c-1.3,0-1.9,1-1.9,2.2c0,1.2,0.6,2.3,2,2.3c0.7,0,1.1-0.2,1.4-0.5l0.4,0.7c-0.3,0.3-1,0.6-1.9,0.6C68.9,40.2,67.8,38.7,67.8,37z"
			/>
		<path class="st1" d="M76.5,34h1v2.5h3V34h1v6.1h-1v-2.7h-3v2.7h-1V34z"/>
		<path class="st1" d="M87.6,34h1l2.4,6.1h-1.1l-0.5-1.3h-2.6l-0.5,1.3h-1L87.6,34z M89.1,37.9l-0.6-1.7c-0.2-0.5-0.3-0.8-0.3-1h0
			c-0.1,0.2-0.2,0.6-0.3,1l-0.6,1.7H89.1z"/>
		<path class="st1" d="M94.6,34h1l2.5,3.6c0.3,0.5,0.5,0.8,0.6,1h0c0-0.1,0-0.4,0-0.9V34h0.9v6.1h-0.9l-2.6-3.8
			c-0.3-0.4-0.4-0.7-0.5-0.8h0c0,0.1,0,0.4,0,0.7v3.9h-0.9V34z"/>
		<path class="st1" d="M103.6,37c0-1.7,1.2-3.1,3.2-3.1c0.9,0,1.5,0.2,2,0.6l-0.5,0.8c-0.4-0.3-0.9-0.5-1.5-0.5
			c-1.4,0-2.1,1-2.1,2.2c0,1.2,0.6,2.3,2,2.3c0.6,0,1-0.1,1.3-0.3v-1.4h-1.2v-0.8h2.2v2.8c-0.4,0.3-1.2,0.6-2.3,0.6
			C104.7,40.2,103.6,38.7,103.6,37z"/>
		<path class="st1" d="M113.2,34h3.3v0.9h-2.3v1.6h2v0.8h-2v1.9h2.4v0.9h-3.4V34z"/>
	</g>
</g>
</svg>
