<svg id="Layer_2" data-name="Layer 2" xmlns="http://www.w3.org/2000/svg" viewBox="0 0 124.97 45.9"><defs><style>.cls-1,.cls-4{fill:#fff;}.cls-2{fill:#020236;}.cls-3{fill:#fd6a05;}.cls-4{isolation:isolate;font-size:2.61px;font-family:ArialMT, Arial;}</style></defs><title>bookie-pinnacle</title><rect class="cls-1" width="124.97" height="45.9"/><path class="cls-2" d="M9.89,11.31c.32-1,.38-2.57,2.7-3.09H122.06s1.67.32,1,2.51l-7.85,25a3.22,3.22,0,0,1-2.25,2H3.33s-1.48-.13-1-2.38C2.36,35.3,8.09,17.29,9.89,11.31Z" transform="translate(-0.13)"/><path class="cls-1" d="M26.48,11.31H14L8.92,27.52H13l1.22-4.18h9.26a4,4,0,0,0,3.54-2.9l1.87-6A2.58,2.58,0,0,0,26.48,11.31Zm-3.21,8H15.55l1.22-4h7.78Z" transform="translate(-0.13)"/><polygon class="cls-1" points="30.15 14.14 33.69 14.14 29.57 27.52 25.97 27.52 30.15 14.14"/><polygon class="cls-1" points="34.91 14.14 37.16 14.14 42.43 21.54 44.68 14.14 48.28 14.14 44.17 27.52 41.92 27.52 36.64 20.18 34.39 27.52 30.73 27.52 34.91 14.14"/><polygon class="cls-1" points="49.57 14.14 51.82 14.14 57.03 21.54 59.35 14.14 62.95 14.14 58.77 27.52 56.58 27.52 51.24 20.18 48.99 27.52 45.39 27.52 49.57 14.14"/><polygon class="cls-3" points="59.99 27.52 72.4 11.31 76.39 27.52 72.47 27.52 70.8 18.38 63.85 27.52 59.99 27.52"/><path class="cls-1" d="M93.56,14.07l-1.09,3.54H83.08l-1.93,6.3h9.39l-1.09,3.61H79.22a2,2,0,0,1-2-2.58l2.57-8.23A4,4,0,0,1,83,14.14H93.56Z" transform="translate(-0.13)"/><polygon class="cls-1" points="94.59 14.07 98.2 14.07 95.11 23.98 102.5 23.98 101.41 27.52 90.41 27.52 94.59 14.07"/><polygon class="cls-1" points="106.75 14.07 117.88 14.07 116.72 17.61 109.26 17.61 108.87 18.96 116.33 18.96 115.24 22.56 107.78 22.56 107.33 23.91 114.72 23.91 113.63 27.52 102.5 27.52 106.75 14.07"/><text class="cls-4" transform="translate(115.06 11.91)">TM</text><path class="cls-1" d="M17.48,31.63c-.13-1-1.16-.9-1.61-.9a7.67,7.67,0,0,0-1.48.32l.13-.25H12.65l-1.73,5.14h1.86l.58-1.61a3.43,3.43,0,0,0,1.87.52,2,2,0,0,0,1.54-1A2.74,2.74,0,0,0,17.48,31.63Zm-2,.52A4.31,4.31,0,0,1,15,33.37c-.06.13-.13.19-.51.26s-.84.06-.77-.39a6.41,6.41,0,0,1,.38-1.09.81.81,0,0,1,.65-.39C14.71,31.83,15.55,31.76,15.48,32.15Z" transform="translate(-0.13)"/><polygon class="cls-1" points="18.25 30.93 20.18 30.93 18.89 34.72 16.96 34.72 18.25 30.93"/><polygon class="cls-1" points="18.76 29.51 20.69 29.51 20.31 30.48 18.44 30.54 18.76 29.51"/><path class="cls-1" d="M21.08,30.86h1.86l-.12.32a2.82,2.82,0,0,1,1.67-.38s1.73.06,1.41,1.28L25,34.72H23.14l.77-2.32s.26-.51-.52-.57a.78.78,0,0,0-1,.57l-.77,2.32H19.73Z" transform="translate(-0.13)"/><path class="cls-1" d="M27,30.86h1.86l-.13.32a2.85,2.85,0,0,1,1.67-.38s1.74.06,1.42,1.28l-.9,2.64H29.05l.78-2.32s.25-.51-.52-.57a.78.78,0,0,0-1,.57l-.78,2.32H25.65Z" transform="translate(-0.13)"/><path class="cls-1" d="M35.42,30.73a4,4,0,0,0-2.57.58l.9.77a2.21,2.21,0,0,1,1.54-.25c.39.12.2.51.2.51a12.08,12.08,0,0,0-2,.06c-1.73.2-1.8.84-1.73,1.42.06,1,1.67,1,1.67,1a2.17,2.17,0,0,0,1.41-.38l-.13.32h1.87l.84-2.51C38,30.8,35.42,30.73,35.42,30.73Zm-.83,3h-.65s-.38-.07-.25-.33a.5.5,0,0,1,.45-.25h1.09A.71.71,0,0,1,34.59,33.76Z" transform="translate(-0.13)"/><path class="cls-1" d="M41.6,32.08l1.54-.77s-.64-.77-2.77-.51c0,0-2.63.51-2.63,2.63a.82.82,0,0,0,.45.84s1.41,1,3.92-.06l-1-.84s-.84.64-1.35.06c0,0-.65-.77.77-1.6A1.05,1.05,0,0,1,41.6,32.08Z" transform="translate(-0.13)"/><path class="cls-1" d="M44,29.57h2l-1.28,3.86s-.13.26.19.2h.77l-.38,1.09H43.91s-1.54-.06-1.09-1.35Z" transform="translate(-0.13)"/><path class="cls-1" d="M51.63,31.76s-.39-.9-2.19-1a4.38,4.38,0,0,0-2.76,1s-1.61,1.73-.13,2.7c0,0,1.61,1,4.31-.32L50,33.43s-2,1.16-2.25-.25h3.67A1.79,1.79,0,0,0,51.63,31.76Zm-1.8.58H48a1.11,1.11,0,0,1,1-.58S50,31.76,49.83,32.34Z" transform="translate(-0.13)"/><path class="cls-3" d="M56.39,32l1.35-.77s-.58-.77-3.15-.39c0,0-2.06.32-1.93,1.67,0,0,.19.71,1.48.65,0,0,1.22,0,1.16.25s-.07.26-.58.33A2.25,2.25,0,0,1,53,33.43l-1.41.78S52,35,55,34.72c0,0,2.06-.26,2.19-1.54,0,0,.13-.9-1.22-.9-.39,0-1.67.06-1.54-.33,0-.06.06-.12.25-.12C55,31.7,56.13,31.63,56.39,32Z" transform="translate(-0.13)"/><path class="cls-3" d="M63.4,31.63c-.13-1-1.16-.9-1.61-.9a7.67,7.67,0,0,0-1.48.32l.13-.25H58.58l-1.74,5.14H58.7l.58-1.61a3.45,3.45,0,0,0,1.87.52,2,2,0,0,0,1.54-1A2.69,2.69,0,0,0,63.4,31.63Zm-2,.52A5,5,0,0,1,61,33.37c-.07.13-.13.19-.52.26s-.83.06-.77-.39a6.46,6.46,0,0,1,.39-1.09.79.79,0,0,1,.64-.39C60.63,31.83,61.47,31.76,61.41,32.15Z" transform="translate(-0.13)"/><path class="cls-3" d="M83.21,32l1.35-.77s-.58-.77-3.15-.39c0,0-2.06.32-1.93,1.67,0,0,.19.71,1.48.65,0,0,1.22,0,1.16.25s-.07.26-.58.33a2.22,2.22,0,0,1-1.67-.33l-1.42.78s.39.83,3.34.51c0,0,2.06-.26,2.19-1.54,0,0,.13-.9-1.22-.9-.39,0-1.67.06-1.54-.33,0-.06.06-.12.25-.12C81.92,31.7,83,31.63,83.21,32Z" transform="translate(-0.13)"/><path class="cls-3" d="M64,32.28a3.1,3.1,0,0,1,2.64-1.42s2.25-.19,2.57.9a2.23,2.23,0,0,1-1,2.32,3.51,3.51,0,0,1-2.31.7S62.63,34.91,64,32.28Zm1.61,1c-.06.45,1,.38,1,.38.77-.26.77-1.35.77-1.35.06-.45-.58-.45-.58-.45a1.15,1.15,0,0,0-.9.51A2,2,0,0,0,65.65,33.31Z" transform="translate(-0.13)"/><path class="cls-1" d="M93.18,32.28a3.08,3.08,0,0,1,2.64-1.42s2.25-.19,2.57.9a2.25,2.25,0,0,1-1,2.32,3.52,3.52,0,0,1-2.32.7S91.83,34.91,93.18,32.28Zm1.61,1c-.07.45,1,.38,1,.38.77-.26.77-1.35.77-1.35.07-.45-.58-.45-.58-.45a1.17,1.17,0,0,0-.9.51A2,2,0,0,0,94.79,33.31Z" transform="translate(-0.13)"/><path class="cls-3" d="M70.54,30.8H72.4l-.12.32s1.8-.77,2.83.06l-1.74,1a1,1,0,0,0-1.42.06l-.9,2.57H69.19Z" transform="translate(-0.13)"/><path class="cls-3" d="M76.46,29.83h1.93L77.94,31h1l-.32.9h-1l-.45,1.29s-.19.45.26.45h.51l-.26,1H76.2s-1.35-.07-1.16-1l.58-1.8H75l.39-.9H76Z" transform="translate(-0.13)"/><polygon class="cls-1" points="84.82 33.37 86.94 33.37 86.43 34.78 84.37 34.78 84.82 33.37"/><path class="cls-1" d="M91.57,32.08l1.54-.77s-.64-.77-2.76-.51c0,0-2.64.51-2.64,2.63a.82.82,0,0,0,.45.84s1.42,1,3.93-.06l-1-.84s-.84.64-1.35.06c0,0-.64-.77.77-1.6A1.05,1.05,0,0,1,91.57,32.08Z" transform="translate(-0.13)"/><path class="cls-1" d="M99.55,30.8h1.86l-.13.32A3,3,0,0,1,103,30.8a1.73,1.73,0,0,1,1.16.45,3.83,3.83,0,0,1,2.18-.45s1.55.19,1.42,1.09l-.9,2.83H105l.77-2.25a.42.42,0,0,0-.45-.58s-.71-.13-.9.45l-.77,2.32h-1.93l.84-2.32s.12-.45-.58-.51c0,0-.71-.07-.9.45l-.78,2.38H98.32Z" transform="translate(-0.13)"/></svg>