<svg id="Layer_2" data-name="Layer 2" xmlns="http://www.w3.org/2000/svg" xmlns:xlink="http://www.w3.org/1999/xlink" viewBox="0 0 124.97 45.9"><defs><style>.cls-1{fill:none;}.cls-2{fill:#fff;}.cls-3{fill:#161616;}.cls-4{fill:#00598f;}.cls-5{clip-path:url(#clip-path);}.cls-6{fill:#2b7ba6;}</style><clipPath id="clip-path" transform="translate(-0.13)"><ellipse class="cls-1" cx="94.96" cy="5.98" rx="39.73" ry="17.28"/></clipPath></defs><title>bookie-betisn</title><rect class="cls-2" width="124.97" height="45.9"/><g id="bet"><path class="cls-3" d="M24.39,26.81a4.38,4.38,0,0,0-1.89-2.75,4.4,4.4,0,0,0,1.89-2.85c.1-1.4.37-4.25,0-5.6s-2.05-3.44-3.83-3.71a62.68,62.68,0,0,0-12.7,0c-1.94.32-4.14.59-5.71,4.63V32.41s1.73,4.09,5.66,4.41c3.33.27,13.4,0,13.4,0a4,4,0,0,0,3.12-3.12A24.47,24.47,0,0,0,24.39,26.81ZM6,18.14A2.89,2.89,0,0,1,8.51,15.4c2.63-.33,9.47,0,10.76,0a1.26,1.26,0,0,1,1.29,1.29s.06,2,.06,4a1.73,1.73,0,0,1-1.29,1.78H6ZM21.26,31.82A1.26,1.26,0,0,1,20,33.11c-1.29,0-8.61.43-11.41,0A2.7,2.7,0,0,1,6,30.63V26.22H20a1.89,1.89,0,0,1,1.23,1.88Z" transform="translate(-0.13)"/><path id="E" class="cls-3" d="M44.63,26.81H29.45v4.47a1.12,1.12,0,0,0,1.23,1.29h14l0,4.36H29.45a4.37,4.37,0,0,1-3.83-4.47v-17A4.44,4.44,0,0,1,30,11.58H44.68V15.4H31.38a1.94,1.94,0,0,0-1.93,1.94V22.4H44.68" transform="translate(-0.13)"/><polygon class="cls-3" points="45.41 11.63 45.41 15.34 53.06 15.34 53.06 36.93 56.93 36.88 56.93 15.4 63.82 15.45 63.82 11.63 45.41 11.63"/></g><rect class="cls-4" x="65.92" y="11.63" width="6.51" height="25.3"/><path class="cls-4" d="M90.65,21.59h-8s-1.88.21-1.88-2.42,1.88-2.43,1.88-2.43h12.7V11.63H80.05c-6.41,0-6.3,7.16-6.3,7.54s-.11,7.53,6.3,7.53h8S90,26.49,90,29.12s-1.88,2.43-1.88,2.43H75.36v5.06H90.65c6.46,0,6.3-7.32,6.3-7.54S97.11,21.59,90.65,21.59Z" transform="translate(-0.13)"/><path class="cls-4" d="M104.86,18.63v18.3H98.62V15.4a3.47,3.47,0,0,1,3.71-3.77H108a4.72,4.72,0,0,1,3.23,3.77c.81,3.6,4.1,12.59,4.42,13.94a.88.88,0,0,0,.64.65c.76,0,.65-.65.65-.65V11.63h5.71V33.86s.43,3.07-2.53,3.07c0,0-5.33.48-6.89-.59-.81-.54-1.35-1.89-2-3.18-2.69-5.27-3.28-10.66-5.11-14.53-.11-.22-.38-.65-.65-.65C104.86,17.87,104.86,18.36,104.86,18.63Z" transform="translate(-0.13)"/><g class="cls-5"><rect class="cls-6" x="65.92" y="11.63" width="6.51" height="25.3"/><path class="cls-6" d="M90.65,21.59h-8s-1.88.21-1.88-2.42,1.88-2.43,1.88-2.43h12.7V11.63H80.05c-6.41,0-6.3,7.16-6.3,7.54s-.11,7.53,6.3,7.53h8S90,26.49,90,29.12s-1.88,2.43-1.88,2.43H75.36v5.06H90.65c6.46,0,6.3-7.32,6.3-7.54S97.11,21.59,90.65,21.59Z" transform="translate(-0.13)"/><path class="cls-6" d="M104.86,18.63v18.3H98.62V15.4a3.47,3.47,0,0,1,3.71-3.77H108a4.72,4.72,0,0,1,3.23,3.77c.81,3.6,4.1,12.59,4.42,13.94a.88.88,0,0,0,.64.65c.76,0,.65-.65.65-.65V11.63h5.71V33.86s.43,3.07-2.53,3.07c0,0-5.33.48-6.89-.59-.81-.54-1.35-1.89-2-3.18-2.69-5.27-3.28-10.66-5.11-14.53-.11-.22-.38-.65-.65-.65C104.86,17.87,104.86,18.36,104.86,18.63Z" transform="translate(-0.13)"/></g></svg>