<?xml version="1.0" encoding="utf-8"?>
<!-- Generator: Adobe Illustrator 22.1.0, SVG Export Plug-In . SVG Version: 6.00 Build 0)  -->
<svg version="1.1" id="Layer_1" xmlns="http://www.w3.org/2000/svg" xmlns:xlink="http://www.w3.org/1999/xlink" x="0px" y="0px"
	 viewBox="0 0 125.1 45.9" style="enable-background:new 0 0 125.1 45.9;" xml:space="preserve">
<style type="text/css">
	.st0{fill:#FFFFFF;}
	.st1{fill:#243B7A;}
	.st2{fill:#909296;}
</style>
<rect x="0.1" class="st0" width="125" height="45.9"/>
<path class="st1" d="M125.1,11.6v5h-5v17.7h-5.2V16.6h-5v-5H125.1L125.1,11.6z M109.2,29v5.3H95.5V11.6H109v5h-8.3V20h7.7v4.8h-7.7
	V29H109.2z M90.6,22.2c1.1,0.4,1.9,1.1,2.4,2c0.6,1,0.8,2.2,0.8,3.6c0,1.2-0.2,2.2-0.6,3.2c-0.4,0.9-0.9,1.7-1.6,2.2
	c-0.4,0.4-1.1,0.6-1.9,0.8c-1.1,0.2-1.9,0.3-2.2,0.3h-8.6V11.6h9.4c1.6,0,2.8,0.6,3.6,1.6c0.8,1.1,1.3,2.4,1.3,4
	c0,1.3-0.3,2.5-0.9,3.5C91.8,21.4,91.3,21.9,90.6,22.2L90.6,22.2z M86,20.4c0.8,0,1.3-0.2,1.5-0.5c0.3-0.3,0.4-0.9,0.4-1.5
	c0-0.6-0.1-1.1-0.4-1.5c-0.3-0.3-0.8-0.5-1.5-0.5H84v4H86z M88.1,25.5c-0.3-0.4-0.9-0.6-1.7-0.6H84v4.3h2.4c0.8,0,1.4-0.2,1.7-0.6
	c0.3-0.4,0.5-0.9,0.5-1.6C88.6,26.4,88.5,25.8,88.1,25.5z M77,22.8c0,2.6-0.3,4.8-1,6.5c-0.6,1.7-1.6,3-2.8,4
	c-1.2,1-2.7,1.4-4.5,1.4c-1.8,0-3.3-0.4-4.5-1.2c-1.2-0.8-2.2-2.1-2.9-3.9c-0.7-1.8-1.1-4-1.1-6.6c0-3.7,0.7-6.5,2.2-8.6
	c1.5-2.1,3.5-3.1,6.2-3.1c2.7,0,4.8,1,6.3,3C76.3,16.3,77,19.2,77,22.8L77,22.8z M70.9,18.1c-0.6-1-1.4-1.4-2.4-1.4
	c-1,0-1.7,0.5-2.3,1.4c-0.6,1-0.9,2.6-0.9,4.9c0,2.3,0.3,3.9,0.9,4.8c0.6,1,1.4,1.4,2.4,1.4c1,0,1.8-0.5,2.4-1.4
	c0.6-0.9,0.9-2.7,0.9-5.2C71.8,20.6,71.5,19.1,70.9,18.1L70.9,18.1z M51.4,20.4c0.8,0,1.3-0.2,1.5-0.5c0.3-0.3,0.4-0.9,0.4-1.5
	c0-0.6-0.1-1.1-0.4-1.5c-0.3-0.3-0.8-0.5-1.5-0.5h-2.1v4H51.4z M53.5,25.5c-0.3-0.4-0.9-0.6-1.7-0.6h-2.4v4.3h2.4
	c0.8,0,1.4-0.2,1.7-0.6c0.3-0.4,0.5-0.9,0.5-1.6C53.9,26.4,53.8,25.8,53.5,25.5L53.5,25.5z M55.9,22.2c1.1,0.4,1.9,1.1,2.4,2
	c0.6,1,0.8,2.2,0.8,3.6c0,1.2-0.2,2.2-0.6,3.2c-0.4,0.9-0.9,1.7-1.6,2.2c-0.4,0.4-1.1,0.6-1.9,0.8c-1.1,0.2-1.9,0.3-2.2,0.3h-8.6
	V11.6h9.4c1.6,0,2.8,0.6,3.6,1.6c0.8,1.1,1.3,2.4,1.3,4c0,1.3-0.3,2.5-0.9,3.5C57.1,21.4,56.6,21.9,55.9,22.2 M42.5,26.9
	c0,1.5-0.3,2.8-0.9,4c-0.6,1.2-1.4,2.2-2.4,2.8c-1,0.6-2.3,1-3.9,1c-2.7,0-4.7-0.7-5.7-2.2c-1-1.5-1.6-3.3-1.8-5.5l0-0.2l4.9-0.4
	l0,0.2c0.1,1,0.3,1.8,0.6,2.3c0.5,0.9,1.2,1.3,2.1,1.3c0.7,0,1.2-0.2,1.6-0.7c0.4-0.4,0.6-1,0.6-1.5c0-0.6-0.2-1.1-0.5-1.5
	c-0.3-0.4-1.2-0.9-2.5-1.3c-2.2-0.7-3.8-1.6-4.7-2.8c-0.9-1.2-1.4-2.6-1.4-4.4c0-1.2,0.2-2.3,0.7-3.3c0.5-1,1.2-1.9,2.2-2.5
	c1-0.6,2.3-0.9,4-0.9c2.1,0,3.7,0.5,4.8,1.6c1.1,1.1,1.7,2.8,1.9,5l0,0.2l-4.9,0.4l0-0.2c-0.1-1-0.4-1.6-0.7-2
	c-0.4-0.4-0.9-0.7-1.6-0.7c-0.6,0-0.9,0.2-1.2,0.5c-0.3,0.3-0.4,0.7-0.4,1.2c0,0.3,0.1,0.6,0.3,0.9c0.2,0.3,0.7,0.5,1.6,0.8
	c2.2,0.7,3.7,1.3,4.7,2c1,0.7,1.6,1.5,2.1,2.5C42.3,24.5,42.5,25.6,42.5,26.9L42.5,26.9z"/>
<path class="st2" d="M15.3,19.3L15.3,19.3c0.4-0.7,1.4-1.8,2.1-2.4l0,0c0.7,0.8,0.1,1.6,1.3,1.8c0.9,0.1,3.3-1.1,4.2-2
	c0.8-0.8,1.5-1.1,2.2-0.4c0.5,0.5,0.5,1-0.4,1.5c-1.7,0.9-4,2.5-5.7,2.7C17.1,20.7,16,20.3,15.3,19.3L15.3,19.3z M4,15.8
	c1.8-2.1,5.1-4.8,8.5-3.7c1.8,0.5,3.2,2.2,3.2,2.2l0,0c-1.9,1.5-3.3,3.2-4.1,4.7c-0.9,1.5,0.1,2.7,0.5,3.1c0.2,0.2,0.8,0.7,1.1,0.8
	c0.2,0.2,0.9,0.9,0.3,1.8c-0.6,1-2.6,3-3.5,3.9c-0.7,0.7-1.9,1.6-3.1,2.4c0,0-1.8-0.4-0.7-2.1c0.1-0.1,0.8-0.6,1.5-1.2
	c0,0,0.7-0.6,1.3-1.2c0.6-0.6,1-1.2,1.3-1.6c0.2-0.5,0.8-1.4-0.2-2c-1-0.6-1.3-0.8-1.5-1.6c-0.2-1,0.9-2.3,1.2-2.6
	c0.3-0.3,1-1.2,1.5-1.7c0.5-0.4,0.6-0.6,0.9-0.8c0.3-0.3,0.9-1.1,0.2-1.9c-0.7-0.8-1.3-0.9-2.2-0.4c-0.7,0.4-1.5,1.2-1.9,1.7
	s-1.6,1.7-3.3,0.6C4.1,16,4,15.8,4,15.8"/>
<path class="st1" d="M21,13.8c-1.7,1.2-2.5,2-3.6,3.1c-0.7,0.7-1.8,1.8-2.1,2.5c-0.4,0.7-0.4,1.5-0.1,1.8c0.4,0.5,1.3,1.1,1.9,2.6
	c0.4,1.2,0.2,1.4-0.6,2.4c-2.5,2.8-6.9,6.4-9.2,7.3c0,0,0.1-0.1,0.3-0.5c0.2-0.4,0.2-0.6-0.4-0.4c-0.6,0.2-0.9,0.5-1.2,0.7
	c-0.4,0.2-0.7,0-0.8-0.4C4.2,33.3,2,34,0,34.1c1.9-0.5,3.4-1.2,5.3-2.1c1.8-1,3.6-2.3,4.6-3.2c1-0.9,3-2.9,3.6-3.9
	c0.6-1-0.1-1.6-0.3-1.8c-0.2-0.2-0.8-0.6-1.1-0.8c-0.3-0.3-1.4-1.6-0.5-3.1c0.9-1.5,2.3-3.2,4.1-4.7C18.7,12,20,12.9,21,13.8"/>
</svg>
