<svg id="Layer_2" data-name="Layer 2" xmlns="http://www.w3.org/2000/svg" xmlns:xlink="http://www.w3.org/1999/xlink" viewBox="0 0 124.97 45.9"><defs><style>.cls-1{fill:url(#linear-gradient);}.cls-2{fill:#0c0d0d;}</style><linearGradient id="linear-gradient" x1="62.61" y1="793.89" x2="62.61" y2="839.79" gradientTransform="translate(-0.13 -793.89)" gradientUnits="userSpaceOnUse"><stop offset="0" stop-color="#fcd704"/><stop offset="1" stop-color="#f3b71a"/></linearGradient></defs><title>bookie-9wickets</title><rect class="cls-1" width="124.97" height="45.9"/><g id="_2" data-name="2"><g id="S"><path class="cls-2" d="M115.73,30.29a5.11,5.11,0,0,1-.86,1.22,3.69,3.69,0,0,1-1.28.71,6.71,6.71,0,0,1-1.86.22h-1.5a5.47,5.47,0,0,1-1.64-.22,1.85,1.85,0,0,1-.93-.64,2,2,0,0,1-.28-1.14,6.41,6.41,0,0,1,.36-1.79l.78-2.14h3.21l-.64,2.07a1,1,0,0,0,0,.64.42.42,0,0,0,.43.22h.71a1,1,0,0,0,.5-.14,1.11,1.11,0,0,0,.36-.58l.43-1.28a1.28,1.28,0,0,0,.07-.86A1.86,1.86,0,0,0,113,26l-1.57-.93a7,7,0,0,1-1-.71,2.06,2.06,0,0,1-.5-.71,1.82,1.82,0,0,1-.07-.93,7.79,7.79,0,0,1,.35-1.36l.29-.78a9.05,9.05,0,0,1,.78-1.86,4.42,4.42,0,0,1,1-1.21,2.71,2.71,0,0,1,1.29-.64,6,6,0,0,1,1.71-.22h1.64a4.71,4.71,0,0,1,1.57.22,1.4,1.4,0,0,1,.86.71,2.52,2.52,0,0,1,.21,1.14,8.32,8.32,0,0,1-.28,1.57l-.79,2.07h-3.21l.57-1.78a.79.79,0,0,0,0-.57c-.07-.15-.21-.22-.5-.22h-.57a.92.92,0,0,0-.93.72l-.35,1.21a.69.69,0,0,0-.08.36.38.38,0,0,0,.08.28c.07.07.14.22.28.29a2.15,2.15,0,0,1,.57.43l2,1.28a2.78,2.78,0,0,1,.5.43,1.42,1.42,0,0,1,.29.43,4.18,4.18,0,0,1,.14.92,5,5,0,0,1-.29,1.29l-.5,1.57A10.63,10.63,0,0,0,115.73,30.29Z" transform="translate(-0.13)"/></g><g id="T"><polygon class="cls-2" points="102.54 32.44 98.9 32.44 104.54 16.38 108.11 16.38 102.54 32.44"/><polygon class="cls-2" points="110.46 16.38 102.54 16.38 101.68 18.38 109.68 18.38 110.46 16.38"/></g><g id="E"><polygon class="cls-2" points="90.69 32.44 87.05 32.44 93.33 16.38 96.9 16.38 90.69 32.44"/><polygon class="cls-2" points="95.76 29.87 89.55 29.87 89.55 32.44 94.83 32.44 95.76 29.87"/><polygon class="cls-2" points="97.97 22.8 91.76 22.8 91.76 25.37 97.04 25.37 97.97 22.8"/><polygon class="cls-2" points="100.4 16.38 94.19 16.38 94.19 18.95 99.4 18.95 100.4 16.38"/></g><path id="K" class="cls-2" d="M82.11,16.38l-5,16.06h3.43l2.29-7.28h.42s1.15,0,.79,1.35-1.79,6-1.79,6h3.07l2.07-7.35s.5-1.65-2.07-1.36l6-7.35H88.25L83.9,21.8,86,16.45l-3.86-.07Z" transform="translate(-0.13)"/><path class="cls-2" d="M78.76,17.09a1.54,1.54,0,0,0-1.36-.71H73.26a3.46,3.46,0,0,0-3.07,2.35l-3.5,10.64c-.5,1.64.36,3,2,3h2.86a4.43,4.43,0,0,0,3.92-3l1.36-4.29H73.12l-1.43,4.43a.85.85,0,0,1-.78.57.45.45,0,0,1-.43-.57l1.42-4.43.86-2.64,1-3.21a.87.87,0,0,1,.79-.57.45.45,0,0,1,.42.57l-1,3.21h3.72l1.21-3.71A1.87,1.87,0,0,0,78.76,17.09Z" transform="translate(-0.13)"/><g id="I"><polygon class="cls-2" points="61.57 13.23 59.57 13.23 52.36 32.44 54.36 32.44 61.57 13.23"/><polygon class="cls-2" points="65.49 13.23 63.5 13.23 56.36 32.44 58.28 32.44 65.49 13.23"/><polygon class="cls-2" points="69.35 13.23 67.35 13.23 60.21 32.44 62.14 32.44 69.35 13.23"/><polygon class="cls-2" points="69.06 13.88 59.36 13.88 59.64 13.02 69.42 13.02 69.06 13.88"/><path class="cls-2" d="M63.05,12h-.78a.56.56,0,0,0-.57.57V13h2v-.5A.64.64,0,0,0,63.05,12Z" transform="translate(-0.13)"/><path class="cls-2" d="M66.91,12h-.79a.57.57,0,0,0-.57.57V13h2v-.5A.69.69,0,0,0,66.91,12Z" transform="translate(-0.13)"/></g><polygon id="W" class="cls-2" points="41.51 16.38 38.09 16.38 37.37 32.44 40.08 32.44 44.65 23.87 44.8 32.44 47.36 32.44 55.43 16.38 52.29 16.38 47.65 24.37 48.44 16.38 45.08 16.38 40.87 24.37 41.51 16.38"/><g id="_9" data-name="9"><path class="cls-2" d="M14.59,14a27.18,27.18,0,0,1,8.28-4.64c-.36,0-.72-.07-1.07-.07A13.51,13.51,0,0,0,8.45,20.59,30.57,30.57,0,0,1,14.59,14Z" transform="translate(-0.13)"/><path class="cls-2" d="M16,15.88c4-3.14,8.28-5.07,11.63-5.36a22.13,22.13,0,0,0-2.28-.92,26.16,26.16,0,0,0-10.28,5.13,28,28,0,0,0-7.21,8.36,13.47,13.47,0,0,0,.28,2.42A26.72,26.72,0,0,1,16,15.88Z" transform="translate(-0.13)"/><path class="cls-2" d="M34.29,18a18,18,0,0,0-.72-1.65,7.61,7.61,0,0,0-.85-1.42c-.29-.36-.57-.79-.86-1.14A17.49,17.49,0,0,0,29,11c-3.43.22-7.93,2.29-12.28,5.78C12.59,20,9.59,23.66,8.59,26.94c0,0-1.71,4.78-2.5,7.21A59.91,59.91,0,0,1,9.73,29.3l1,1.57c.29.35.57.71.93,1.07a10.16,10.16,0,0,0,1.22,1.14c.42.36.92.71,1.42,1.07a13.77,13.77,0,0,0,7.21,2.07A13.55,13.55,0,0,0,35.07,22.66,11.73,11.73,0,0,0,34.29,18Zm-4.43,1.92S28.65,32.44,17.09,31.79V30.44s6,0,7.13-4.64c0,0-5.06,2.42-5.78-1.72-.28-1.57,2.5-5.78,2.5-5.78s1.21-2.14,5.07-2C30.36,16.59,29.86,19.87,29.86,19.87Z" transform="translate(-0.13)"/><path class="cls-2" d="M22.94,24.08h0a1.63,1.63,0,0,1-.79-2.21l1.07-2.28a1.63,1.63,0,0,1,2.22-.79h0A1.64,1.64,0,0,1,26.22,21L25.15,23.3A1.58,1.58,0,0,1,22.94,24.08Z" transform="translate(-0.13)"/></g></g></svg>