<?xml version="1.0" encoding="utf-8"?>
<!-- Generator: Adobe Illustrator 23.0.1, SVG Export Plug-In . SVG Version: 6.00 Build 0)  -->
<svg version="1.1" xmlns="http://www.w3.org/2000/svg" xmlns:xlink="http://www.w3.org/1999/xlink" x="0px" y="0px"
	 viewBox="0 0 125.1 45.9" style="enable-background:new 0 0 125.1 45.9;" xml:space="preserve">
<style type="text/css">
	.st0{display:none;}
	.st1{display:inline;}
	.st2{fill:#404040;}
	.st3{fill:#FFFFFF;}
	.st4{fill:url(#SVGID_1_);}
	.st5{fill:url(#SVGID_2_);}
	.st6{fill:#0C0D0D;}
	.st7{display:inline;fill:#0C0D0D;}
	.st8{fill:#161616;}
	.st9{fill:#00598F;}
	.st10{clip-path:url(#SVGID_4_);}
	.st11{fill:#2B7BA6;}
	.st12{fill:#D30B17;}
	.st13{display:inline;fill:#D30B17;}
	.st14{fill:url(#SVGID_5_);}
	.st15{fill:url(#SVGID_6_);}
	.st16{fill:url(#SVGID_7_);}
	.st17{fill:url(#SVGID_8_);}
	.st18{fill:url(#SVGID_9_);}
	.st19{fill:url(#SVGID_10_);}
	.st20{fill:url(#SVGID_11_);}
	.st21{fill:url(#SVGID_12_);}
	.st22{fill:url(#SVGID_13_);}
	.st23{fill:url(#SVGID_14_);}
	.st24{fill:url(#SVGID_15_);}
	.st25{fill:url(#SVGID_16_);}
	.st26{fill:url(#SVGID_17_);}
	.st27{fill:url(#SVGID_18_);}
</style>
<g id="Layer_1" class="st0">
	<g class="st1">
		<rect y="-0.1" class="st2" width="125.1" height="46"/>
		<g>
			<path id="O" class="st3" d="M18.1,7.5C12.4,7.5,7.9,12,7.9,17.6s4.6,10.2,10.2,10.2s10.2-4.6,10.2-10.2S23.7,7.5,18.1,7.5z
				 M18.1,23.8c-3.4,0-6.2-2.8-6.2-6.2s2.8-6.2,6.2-6.2s6.2,2.8,6.2,6.2C24.2,21,21.5,23.8,18.1,23.8z"/>
			<path id="R" class="st3" d="M48,14.6c0-4-3.2-7.2-7.2-7.2h-11v14.7v5.6h3.7v-5.6h5l3.9,5.6h4.8l-4.6-6.3
				C45.7,20.7,48,17.9,48,14.6z M40.6,17.8h-3.7L34,21.3v-3.4v-6h6.6c1.7,0,3,1.3,3,3C43.6,16.6,42.3,17.8,40.6,17.8z"/>
			<path id="B" class="st3" d="M62.4,16.5c0.7-0.9,1.1-2.1,1.1-3.4c0-3.1-2.5-5.6-5.5-5.6l0,0h-9v20.4h10.9c3.1-0.3,5.4-3,5.4-6.1
				C65.3,19.5,64.1,17.5,62.4,16.5z M53.4,15.6v-3.8h3.9c1.1,0,1.9,0.9,1.9,1.9c0,1.1-0.9,1.9-1.9,1.9h-1.8l-2.1,2.2
				C53.4,17.8,53.4,15.6,53.4,15.6z M59.2,23.6h-5.8v-4.1h5.8c1.1,0,2.1,0.9,2.1,2.1C61.3,22.7,60.4,23.6,59.2,23.6z"/>
			<path id="I_1_" class="st3" d="M70.8,27.8h-3.7V7.5h3.7V27.8z"/>
			<polygon id="T" class="st3" points="88.3,7.5 82.1,7.5 78.4,7.5 72.2,7.5 72.2,11.4 78.4,11.4 78.4,27.8 82.1,27.8 82.1,11.4 
				88.3,11.4 			"/>
			<g>
				<polygon class="st3" points="102.4,12.8 98.5,16.7 89.2,7.5 97.1,7.5 				"/>
				<polygon class="st3" points="102.4,22.4 98.5,18.5 89.2,27.8 97.1,27.8 				"/>
				
					<linearGradient id="SVGID_1_" gradientUnits="userSpaceOnUse" x1="107.0145" y1="31.5042" x2="113.4083" y2="37.8981" gradientTransform="matrix(1 0 0 -1 0 45.8898)">
					<stop  offset="0" style="stop-color:#A6DD00"/>
					<stop  offset="1" style="stop-color:#54A65C"/>
				</linearGradient>
				<polygon class="st4" points="117.6,7.5 110.3,7.5 100.1,17.6 107.4,17.6 				"/>
				
					<linearGradient id="SVGID_2_" gradientUnits="userSpaceOnUse" x1="110.0258" y1="835.7032" x2="105.9664" y2="828.6721" gradientTransform="matrix(1 0 0 1 0 -810.9667)">
					<stop  offset="0" style="stop-color:#A6DD00"/>
					<stop  offset="1" style="stop-color:#54A65C"/>
				</linearGradient>
				<polygon class="st5" points="117.6,27.8 110.3,27.8 100.1,17.6 107.4,17.6 				"/>
			</g>
		</g>
		<g>
			<path class="st3" d="M8.9,37.1c0-1.7,1.1-3.1,3-3.1c2,0,3.1,1.5,3.1,3.1c0,1.7-1.1,3.2-3,3.2S8.9,38.7,8.9,37.1z M13.9,37.1
				c0-1.2-0.6-2.3-2-2.3s-2,1-2,2.3c0,1.2,0.7,2.3,2,2.3C13.3,39.4,13.9,38.3,13.9,37.1z"/>
			<path class="st3" d="M19,34h1.9c1.3,0,2.1,0.6,2.1,1.7c0,1-0.7,1.5-1.5,1.6l0,0c0.1,0.1,0.3,0.3,0.7,0.8l1.3,1.9h-1.2l-1.2-1.7
				c-0.6-0.8-0.7-0.9-1-0.9H20V40h-1V34z M20.8,36.7c0.8,0,1.1-0.3,1.1-0.9c0-0.6-0.4-0.9-1.2-0.9H20v1.9L20.8,36.7L20.8,36.7z"/>
			<path class="st3" d="M27.2,34H29c1.1,0,2,0.4,2,1.5c0,0.8-0.4,1.2-1.1,1.4l0,0c0.7,0.1,1.3,0.6,1.3,1.5c0,1.2-1,1.7-2.3,1.7h-1.8
				V34H27.2z M28.9,36.6c0.8,0,1.1-0.3,1.1-0.9c0-0.6-0.4-0.8-1.1-0.8h-0.7v1.7H28.9z M28.9,39.3c0.9,0,1.3-0.3,1.3-0.9
				c0-0.6-0.4-1-1.3-1h-0.8v1.9H28.9z"/>
			<path class="st3" d="M35.3,34h1v6.1h-1V34z"/>
			<path class="st3" d="M41.8,34.9h-1.7V34h4.4v0.9h-1.7v5.2h-1V34.9z"/>
			<path class="st3" d="M52.8,34h3.3v0.9h-2.3v1.6h2v0.8h-2v1.9h2.4v0.9h-3.4V34z"/>
			<path class="st3" d="M61.6,37l-1.9-3h1.2l1.3,2.1l1.2-2.1h1.1l-1.8,3l1.9,3.1h-1.2L62,37.8l-1.4,2.3h-1L61.6,37z"/>
			<path class="st3" d="M67.8,37c0-1.6,1.1-3.1,3.1-3.1c0.8,0,1.3,0.2,1.8,0.5l-0.5,0.8c-0.3-0.2-0.7-0.4-1.3-0.4
				c-1.3,0-1.9,1-1.9,2.2s0.6,2.3,2,2.3c0.7,0,1.1-0.2,1.4-0.5l0.4,0.7c-0.3,0.3-1,0.6-1.9,0.6C68.9,40.2,67.8,38.7,67.8,37z"/>
			<path class="st3" d="M76.5,34h1v2.5h3V34h1v6.1h-1v-2.7h-3v2.7h-1V34z"/>
			<path class="st3" d="M87.6,34h1l2.4,6.1h-1.1l-0.5-1.3h-2.6l-0.5,1.3h-1L87.6,34z M89.1,37.9l-0.6-1.7c-0.2-0.5-0.3-0.8-0.3-1
				l0,0c-0.1,0.2-0.2,0.6-0.3,1l-0.6,1.7H89.1z"/>
			<path class="st3" d="M94.6,34h1l2.5,3.6c0.3,0.5,0.5,0.8,0.6,1l0,0c0-0.1,0-0.4,0-0.9V34h0.9v6.1h-0.9l-2.6-3.8
				c-0.3-0.4-0.4-0.7-0.5-0.8l0,0c0,0.1,0,0.4,0,0.7v3.9h-0.9L94.6,34L94.6,34z"/>
			<path class="st3" d="M103.6,37c0-1.7,1.2-3.1,3.2-3.1c0.9,0,1.5,0.2,2,0.6l-0.5,0.8c-0.4-0.3-0.9-0.5-1.5-0.5
				c-1.4,0-2.1,1-2.1,2.2s0.6,2.3,2,2.3c0.6,0,1-0.1,1.3-0.3v-1.4h-1.2v-0.8h2.2v2.8c-0.4,0.3-1.2,0.6-2.3,0.6
				C104.7,40.2,103.6,38.7,103.6,37z"/>
			<path class="st3" d="M113.2,34h3.3v0.9h-2.3v1.6h2v0.8h-2v1.9h2.4v0.9h-3.4V34z"/>
		</g>
	</g>
</g>
<g id="Layer_2">
	<rect x="0.1" class="st3" width="125" height="45.9"/>
	<g id="_x32_" class="st0">
		<g id="S_1_" class="st1">
			<path class="st6" d="M115.7,30.3c-0.2,0.5-0.6,0.9-0.9,1.2c-0.4,0.3-0.8,0.6-1.3,0.7c-0.5,0.1-1.1,0.2-1.9,0.2h-1.5
				c-0.6,0-1.2-0.1-1.6-0.2c-0.4-0.1-0.7-0.4-0.9-0.6c-0.2-0.3-0.3-0.7-0.3-1.1c0-0.5,0.1-1.1,0.4-1.8l0.8-2.1h3.2l-0.6,2.1
				c-0.1,0.3-0.1,0.5,0,0.6s0.2,0.2,0.4,0.2h0.7c0.2,0,0.4-0.1,0.5-0.1c0.1-0.1,0.3-0.3,0.4-0.6l0.4-1.3c0.1-0.4,0.1-0.7,0.1-0.9
				c-0.1-0.1-0.3-0.4-0.6-0.6l-1.6-0.9c-0.4-0.3-0.8-0.5-1-0.7c-0.2-0.2-0.4-0.5-0.5-0.7c-0.1-0.2-0.1-0.6-0.1-0.9
				c0.1-0.4,0.1-0.8,0.4-1.4l0.3-0.8c0.2-0.7,0.5-1.4,0.8-1.9c0.3-0.5,0.6-0.9,1-1.2s0.8-0.6,1.3-0.6c0.5-0.1,1.1-0.2,1.7-0.2h1.6
				c0.6,0,1.1,0.1,1.6,0.2c0.4,0.1,0.6,0.4,0.9,0.7c0.1,0.3,0.2,0.6,0.2,1.1c0,0.4-0.1,0.9-0.3,1.6l-0.8,2.1h-3.2l0.6-1.8
				c0.1-0.2,0.1-0.4,0-0.6s-0.2-0.2-0.5-0.2h-0.6c-0.4,0-0.8,0.2-0.9,0.7l-0.4,1.2c-0.1,0.1-0.1,0.3-0.1,0.4c0,0.1,0,0.2,0.1,0.3
				s0.1,0.2,0.3,0.3c0.1,0.1,0.4,0.2,0.6,0.4l2,1.3c0.2,0.1,0.4,0.3,0.5,0.4c0.1,0.1,0.2,0.3,0.3,0.4c0.1,0.3,0.1,0.6,0.1,0.9
				c0,0.4-0.1,0.8-0.3,1.3l-0.5,1.6C116.2,29.2,116,29.8,115.7,30.3z"/>
		</g>
		<g id="T_1_" class="st1">
			<polygon class="st6" points="102.7,32.4 99,32.4 104.7,16.4 108.2,16.4 			"/>
			<polygon class="st6" points="110.6,16.4 102.7,16.4 101.8,18.4 109.8,18.4 			"/>
		</g>
		<g id="E_1_" class="st1">
			<polygon class="st6" points="90.8,32.4 87.2,32.4 93.5,16.4 97,16.4 			"/>
			<polygon class="st6" points="95.9,29.9 89.7,29.9 89.7,32.4 95,32.4 			"/>
			<polygon class="st6" points="98.1,22.8 91.9,22.8 91.9,25.4 97.2,25.4 			"/>
			<polygon class="st6" points="100.5,16.4 94.3,16.4 94.3,18.9 99.5,18.9 			"/>
		</g>
		<path id="K_1_" class="st7" d="M82.1,16.4l-5,16.1h3.4l2.3-7.3h0.4c0,0,1.1,0,0.8,1.4s-1.8,6-1.8,6h3.1l2.1-7.4
			c0,0,0.5-1.6-2.1-1.4l6-7.4h-3.1l-4.4,5.4l2.1-5.4L82.1,16.4L82.1,16.4z"/>
		<path class="st7" d="M78.8,17.1c-0.3-0.4-0.7-0.7-1.4-0.7h-4.1c-1.3,0-2.7,1.1-3.1,2.4l-3.5,10.6c-0.5,1.6,0.4,3,2,3h2.9
			c1.6,0,3.4-1.4,3.9-3l1.4-4.3h-3.7l-1.4,4.4c-0.1,0.3-0.4,0.6-0.8,0.6c-0.3,0-0.5-0.3-0.4-0.6l1.4-4.4l0.9-2.6l1-3.2
			c0.1-0.3,0.4-0.6,0.8-0.6c0.3,0,0.5,0.3,0.4,0.6l-1,3.2h3.7l1.2-3.7C79.1,18.1,79,17.5,78.8,17.1z"/>
		<g id="I_2_" class="st1">
			<polygon class="st6" points="61.7,13.2 59.7,13.2 52.5,32.4 54.5,32.4 			"/>
			<polygon class="st6" points="65.6,13.2 63.6,13.2 56.5,32.4 58.4,32.4 			"/>
			<polygon class="st6" points="69.5,13.2 67.5,13.2 60.3,32.4 62.3,32.4 			"/>
			<polygon class="st6" points="69.2,13.9 59.5,13.9 59.8,13 69.5,13 			"/>
			<path class="st6" d="M63.1,12h-0.8c-0.4,0-0.6,0.3-0.6,0.6V13h2v-0.5C63.7,12.2,63.4,12,63.1,12z"/>
			<path class="st6" d="M66.9,12h-0.8c-0.4,0-0.6,0.3-0.6,0.6V13h2v-0.5C67.5,12.2,67.3,12,66.9,12z"/>
		</g>
		<polygon id="W_1_" class="st7" points="41.6,16.4 38.2,16.4 37.5,32.4 40.2,32.4 44.8,23.9 44.9,32.4 47.5,32.4 55.6,16.4 
			52.4,16.4 47.8,24.4 48.6,16.4 45.2,16.4 41,24.4 		"/>
		<g id="_x39__1_" class="st1">
			<path class="st6" d="M14.6,14c2.8-2.2,5.6-3.8,8.3-4.6c-0.4,0-0.7-0.1-1.1-0.1c-6.7,0-12.3,4.9-13.3,11.3
				C9.9,18.4,12,16.1,14.6,14z"/>
			<path class="st6" d="M16,15.9c4-3.1,8.3-5.1,11.6-5.4c-0.7-0.4-1.5-0.6-2.3-0.9c-3.1,0.6-6.8,2.4-10.3,5.1
				c-3.3,2.6-5.8,5.6-7.2,8.4c0,0.9,0.1,1.6,0.3,2.4C9.4,22.4,12.2,18.9,16,15.9z"/>
			<path class="st6" d="M34.3,17.9c-0.2-0.6-0.4-1.1-0.7-1.6c-0.2-0.5-0.5-0.9-0.9-1.4c-0.3-0.4-0.6-0.8-0.9-1.1
				c-0.7-0.9-1.9-2.1-2.9-2.8c-3.4,0.2-7.9,2.3-12.3,5.8c-4.1,3.3-7.1,6.9-8.1,10.2c0,0-1.7,4.8-2.5,7.2c0,0,2.1-3.1,3.6-4.9
				c0.4,0.6,0.7,1.1,1,1.6c0.3,0.4,0.6,0.7,0.9,1.1c0.4,0.4,0.8,0.8,1.2,1.1c0.4,0.4,0.9,0.7,1.4,1.1c2.1,1.3,4.6,2.1,7.2,2.1
				c7.5,0,13.6-6.1,13.6-13.6C35.1,21,34.9,19.4,34.3,17.9z M29.9,19.9c0,0-1.2,12.6-12.8,11.9v-1.4c0,0,6,0,7.1-4.6
				c0,0-5.1,2.4-5.8-1.7c-0.3-1.6,2.5-5.8,2.5-5.8s1.2-2.1,5.1-2C30.4,16.6,29.9,19.9,29.9,19.9z"/>
			<path class="st6" d="M22.9,24.1L22.9,24.1c-0.9-0.4-1.2-1.4-0.8-2.2l1.1-2.3c0.4-0.9,1.4-1.2,2.2-0.8l0,0
				c0.9,0.4,1.2,1.4,0.8,2.2l-1.1,2.3C24.8,24.2,23.8,24.5,22.9,24.1z"/>
		</g>
	</g>
	<g class="st0">
		<g id="bet" class="st1">
			<path class="st8" d="M24.4,26.8c-0.2-0.8-0.7-2-1.9-2.7c0,0,1.8-1.2,1.9-2.9c0.1-1.4,0.4-4.3,0-5.6c-0.4-1.3-2-3.4-3.8-3.7
				c-3.1-0.4-9.6-0.4-12.7,0c-1.9,0.3-4.1,0.6-5.7,4.6v15.9c0,0,1.7,4.1,5.7,4.4c3.3,0.3,13.4,0,13.4,0s2.6-0.4,3.1-3.1
				C24.7,32,24.7,28.5,24.4,26.8z M6,18.1c0-1.7,1.6-2.6,2.5-2.7c2.6-0.3,9.5,0,10.8,0c1.3,0,1.3,1.3,1.3,1.3s0.1,2,0.1,4
				c0,1.5-1.3,1.8-1.3,1.8H6L6,18.1z M21.3,31.8c0,0,0,1.3-1.3,1.3s-8.6,0.4-11.4,0C7.7,33,6,32.4,6,30.6v-4.4h14
				c0,0,1.2,0.4,1.2,1.9C21.3,30,21.3,31.8,21.3,31.8z"/>
			<path id="E" class="st8" d="M44.6,26.8H29.4v4.5c0,0-0.2,1.3,1.2,1.3c1.4,0,14,0,14,0l-0.1,4.4H29.4c0,0-3.8-0.4-3.8-4.5v-17
				c0,0,0.5-3.9,4.4-3.9s14.6,0,14.6,0v3.8H31.4c0,0-1.9,0.1-1.9,1.9v5.1h15.2"/>
			<polygon class="st8" points="45.5,11.6 45.5,15.3 53.2,15.3 53.2,36.9 57.1,36.9 57.1,15.4 64,15.5 64,11.6 			"/>
		</g>
		<g class="st1">
			<rect x="66.1" y="11.6" class="st9" width="6.5" height="25.3"/>
			<path class="st9" d="M90.7,21.6h-5.3l0,0h-2.7c0,0-1.9,0.2-1.9-2.4c0-2.7,1.9-2.4,1.9-2.4h12.7v-5.1c0,0-9.5,0-15.3,0
				c-6.4,0-6.3,7.2-6.3,7.5c0,0.4-0.1,7.5,6.3,7.5c4.6,0,5.2,0,5.3,0l0,0h2.7c0,0,1.9-0.2,1.9,2.4c0,2.7-1.9,2.4-1.9,2.4H75.4v5.1
				c0,0,9.5,0,15.3,0c6.5,0,6.3-7.3,6.3-7.5C96.9,28.9,97.1,21.6,90.7,21.6z"/>
			<path class="st9" d="M104.9,18.6c0,4.6,0,18.3,0,18.3h-6.2V15.4c0,0-0.3-3.8,3.7-3.8h5.7c0,0,2.5,0.5,3.2,3.8
				c0.8,3.6,4.1,12.6,4.4,13.9c0.1,0.3,0.4,0.6,0.6,0.6c0.8,0,0.6-0.6,0.6-0.6V11.6h5.7v22.2c0,0,0.4,3.1-2.5,3.1
				c0,0-5.3,0.5-6.9-0.6c-0.8-0.5-1.3-1.9-2-3.2c-2.7-5.3-3.3-10.7-5.1-14.5c-0.1-0.2-0.4-0.6-0.6-0.6
				C104.9,17.9,104.9,18.4,104.9,18.6z"/>
		</g>
		<g class="st1">
			<g>
				<defs>
					<ellipse id="SVGID_3_" cx="95" cy="6" rx="39.7" ry="17.3"/>
				</defs>
				<clipPath id="SVGID_4_">
					<use xlink:href="#SVGID_3_"  style="overflow:visible;"/>
				</clipPath>
				<g class="st10">
					<rect x="66.1" y="11.6" class="st11" width="6.5" height="25.3"/>
					<path class="st11" d="M90.7,21.6h-5.3l0,0h-2.7c0,0-1.9,0.2-1.9-2.4c0-2.7,1.9-2.4,1.9-2.4h12.7v-5.1c0,0-9.5,0-15.3,0
						c-6.4,0-6.3,7.2-6.3,7.5c0,0.4-0.1,7.5,6.3,7.5c4.6,0,5.2,0,5.3,0l0,0h2.7c0,0,1.9-0.2,1.9,2.4c0,2.7-1.9,2.4-1.9,2.4H75.4v5.1
						c0,0,9.5,0,15.3,0c6.5,0,6.3-7.3,6.3-7.5C96.9,28.9,97.1,21.6,90.7,21.6z"/>
					<path class="st11" d="M104.9,18.6c0,4.6,0,18.3,0,18.3h-6.2V15.4c0,0-0.3-3.8,3.7-3.8h5.7c0,0,2.5,0.5,3.2,3.8
						c0.8,3.6,4.1,12.6,4.4,13.9c0.1,0.3,0.4,0.6,0.6,0.6c0.8,0,0.6-0.6,0.6-0.6V11.6h5.7v22.2c0,0,0.4,3.1-2.5,3.1
						c0,0-5.3,0.5-6.9-0.6c-0.8-0.5-1.3-1.9-2-3.2c-2.7-5.3-3.3-10.7-5.1-14.5c-0.1-0.2-0.4-0.6-0.6-0.6
						C104.9,17.9,104.9,18.4,104.9,18.6z"/>
				</g>
			</g>
		</g>
	</g>
	<g class="st0">
		<g class="st1">
			<polygon class="st12" points="116,24.7 113.7,27.2 118,31.7 122.2,31.7 122.2,31.2 			"/>
			<path class="st12" d="M119.7,19.8c0.5-0.5,0.4-1.5-0.3-2.1c-0.7-0.6-1.7-0.7-2.2-0.2l-4.3,4.6v-3.2c0-1-0.7-1.7-1.7-1.7
				s-1.7,0.7-1.7,1.7v12.9h3.4v-4.7L119.7,19.8z"/>
		</g>
		<path class="st13" d="M109.1,24.3c-0.1-4.1-3.5-7.2-7.6-7.1c-2.8,0.1-5.2,1.7-6.3,4l1.9,2.9c0.7-1.3,2.9-3.4,4.5-3.4
			c2.2-0.1,3.9,1.7,4,3.8c0.1,2.2-1.7,3.9-3.8,4c-1.3,0.1-2.8-0.6-3.6-1.7c-0.3-0.4-0.5-0.5-0.6-0.8c-0.1-0.2-0.6-0.7-0.6-0.7
			L96.8,25l-3.4-4.7l0,0c-1.3-1.9-3.5-3.1-6-3.1c-4.1,0-7.4,3.3-7.4,7.4s3.3,7.4,7.4,7.4c2.8,0,5.2-1.5,6.4-3.8l-2-2.9
			c-0.7,1.3-2.8,3.4-4.5,3.4c-2.2,0-3.9-1.8-3.9-3.9s1.8-3.9,3.9-3.9c1.3,0,2.8,0.7,3.5,1.8c0.3,0.4,0.6,0.7,0.7,1
			c0.1,0.2,0.5,0.9,0.5,0.9l0.1,0.1l2.3,3.4c0.3,0.6,0.7,1.1,1.1,1.6l0,0l0,0c1.5,1.7,3.7,2.7,6.1,2.6
			C106,31.8,109.2,28.4,109.1,24.3z"/>
		<path class="st13" d="M78.8,24.2c0.7-0.7,1.2-1.7,1.2-2.8c0-2.2-1.8-3.9-3.9-4l0,0h-6.6c-1,0-1.7,0.7-1.7,1.7v12.7h1.8h1.7h4.9
			c2.3,0,4.3-1.9,4.3-4.3C80.3,26.1,79.7,25,78.8,24.2z M76.3,21.6c0,0.5-0.4,1-1,1h-4.1l0,0v-2h0.9h3.3
			C75.9,20.5,76.3,21,76.3,21.6z M75.8,28.4H72h-0.7V26h0.9h3.7c0.5,0,1,0.5,1,1.2C76.8,27.9,76.4,28.4,75.8,28.4z"/>
		<path class="st13" d="M64.9,17.2c-1,0-1.7,0.7-1.7,1.7V23h-5.8v-4.2c0-1-0.7-1.7-1.7-1.7S54,17.9,54,18.8v12.9h3.4v-5.6h5.8v5.6
			h3.4V18.8C66.6,17.9,65.9,17.2,64.9,17.2z"/>
		<path class="st13" d="M40.2,17.2h-7.7c-1.3,0-2.3,1-2.3,2.3v1.1h0.3h3.9v11.2h3.8V20.6h3.9h0.3v-1.2
			C42.4,18.2,41.4,17.2,40.2,17.2z"/>
		<path class="st13" d="M30.1,31.7H34l-6-12.9c-0.4-0.9-1.2-1.6-2.3-1.6c-1,0-1.8,0.5-2.2,1.3l0,0l-6.1,13.2h3.8l1.2-2.6H29
			L30.1,31.7z M23.9,25.8l1.6-3.6c0.1,0,0.1,0,0.2,0c0.1,0,0.1,0,0.2,0l1.6,3.6H23.9z"/>
		<path class="st13" d="M18.3,19.2c0-1.2-1-2.2-2.3-2.2c-0.8,0-1.5,0.4-1.9,1h0l-3.5,4.7l-3.4-4.6C6.7,17.5,6,17,5.2,17
			c-1.3,0-2.3,1-2.3,2.2l0,0v12.5h3.6v-8.7l3.5,4.7h0.6h0.6l3.5-4.8v8.8h3.6L18.3,19.2L18.3,19.2z"/>
		<path class="st13" d="M51.4,27.7c-0.1,0-0.1,0-0.1,0c-0.5,0.5-1.2,0.8-2,1c-0.3,0.1-0.5,0.1-0.8,0.1c-2.3,0-4.3-1.9-4.3-4.3
			s1.9-4.3,4.3-4.3c0.3,0,0.6,0.1,1,0.1c0.6,0.2,1.2,0.4,1.7,0.8c0.1,0,0.2,0,0.3,0c1.2,0,2.1-0.7,2.6-1.8c-1.2-1.4-3-2.3-4.9-2.5
			c-0.3,0-0.5,0-0.7,0c-4.2,0-7.6,3.4-7.6,7.6c0,4.2,3.4,7.6,7.6,7.6c0.3,0,0.5,0,0.8-0.1c1.9-0.2,3.6-1.1,4.9-2.5
			C53.7,28.5,52.7,27.7,51.4,27.7z"/>
	</g>
	<g>
		<g id="MAX">
			
				<linearGradient id="SVGID_5_" gradientUnits="userSpaceOnUse" x1="14.2014" y1="14.2263" x2="14.2014" y2="28.9368" gradientTransform="matrix(1 0 0 -1 0 45.8898)">
				<stop  offset="2.165098e-07" style="stop-color:#3A6A94"/>
				<stop  offset="1" style="stop-color:#132E57"/>
			</linearGradient>
			<polygon class="st14" points="3.1,31.7 9.4,16.9 15.9,16.9 14.7,24.5 19,16.9 25.3,16.9 21.5,31.7 16.7,31.7 19.7,21.7 
				14.2,31.7 10.3,31.7 11.7,21.5 7.9,31.7 			"/>
			
				<linearGradient id="SVGID_6_" gradientUnits="userSpaceOnUse" x1="29.2715" y1="14.2263" x2="29.2715" y2="28.9368" gradientTransform="matrix(1 0 0 -1 0 45.8898)">
				<stop  offset="2.165098e-07" style="stop-color:#3A6A94"/>
				<stop  offset="1" style="stop-color:#132E57"/>
			</linearGradient>
			<path class="st15" d="M30.8,16.9l-9.1,14.7h5.1l1.1-2.1H31l-0.4,2.1h5.2l1.1-14.7H30.8z M31.6,26.6h-2.1l2.9-5.4L31.6,26.6z"/>
			
				<linearGradient id="SVGID_7_" gradientUnits="userSpaceOnUse" x1="44.8153" y1="14.2263" x2="44.8153" y2="28.9368" gradientTransform="matrix(1 0 0 -1 0 45.8898)">
				<stop  offset="2.165098e-07" style="stop-color:#3A6A94"/>
				<stop  offset="1" style="stop-color:#132E57"/>
			</linearGradient>
			<polygon class="st16" points="40,16.9 45.4,16.9 46.1,19.5 48.3,16.9 53.8,16.9 47.4,24.6 49.4,31.7 44,31.7 43.3,29.5 
				41.2,31.7 35.8,31.7 42.1,24.5 			"/>
		</g>
		<g id="chinese_chenes">
			
				<linearGradient id="SVGID_8_" gradientUnits="userSpaceOnUse" x1="91.7576" y1="8.832" x2="91.7576" y2="35.9919" gradientTransform="matrix(1 0 0 -1 0 45.8898)">
				<stop  offset="2.165098e-07" style="stop-color:#3A6A94"/>
				<stop  offset="1" style="stop-color:#132E57"/>
			</linearGradient>
			<path class="st17" d="M77.3,28.8c0,0-1.2,4.4,0.2,5.1c0,0,3,1.2,8.8-1.3c0,0,11.4-5.1,16-13c0,0,0.2-0.4-0.1-0.4
				c0,0-1.2,0.4-2.6-1.2c0,0,3.8-0.5,4.6-1.5l2.5-5.1c0,0,0.6-0.9-0.9-1c0,0-2.6-0.4-4.5,1.8c0,0,1.2-2.6,5.4-2.3c0,0,3.1,0.3,3,1.4
				l-3.9,4.4c0,0-0.3,0.4,0,0.5c0,0,0.4,0.2,0.9-0.2c0,0,2.3-1.1,3.3,1.3c0,0,0.5,1.2-1.1,3.7l-1.9,3.4l-1.7,2.4
				c0,0-1.5,1.5-2.4,0.6c0,0-0.8-1.7-0.9-2.7l1,0.7c0,0,1.1,0.9,1.7-0.4c0,0,2.8-3.9,3.4-6.8c0,0,0.3-1-0.9-1.3c0,0-2.4-0.1-3,2.2
				l-0.2,0.5c0,0-5.1,8.2-12.2,11.7c0,0-10,5.4-15,5.4C76.6,37.1,69.1,35.9,77.3,28.8z"/>
			
				<linearGradient id="SVGID_9_" gradientUnits="userSpaceOnUse" x1="93.6837" y1="27.7654" x2="93.6837" y2="30.1082" gradientTransform="matrix(1 0 0 -1 0 45.8898)">
				<stop  offset="2.165098e-07" style="stop-color:#3A6A94"/>
				<stop  offset="1" style="stop-color:#132E57"/>
			</linearGradient>
			<path class="st18" d="M93.1,15.8l0.2,0.8c0,0,0,0.3,0.2,0.3c0,0,0.2,0,0.3-0.2l0.9-0.8c0,0-0.5,1.7-0.9,2.2h-0.4l-0.8-0.9
				c0,0-0.1-0.2,0-0.4L93.1,15.8z"/>
			
				<linearGradient id="SVGID_10_" gradientUnits="userSpaceOnUse" x1="98.5894" y1="27.7654" x2="98.5894" y2="31.9674" gradientTransform="matrix(1 0 0 -1 0 45.8898)">
				<stop  offset="2.165098e-07" style="stop-color:#3A6A94"/>
				<stop  offset="1" style="stop-color:#132E57"/>
			</linearGradient>
			<path class="st19" d="M99.2,13.9c0,0,0.5,0.4,0.1,1.1c0,0-0.5,1.4-2.5,3.1c0,0,1.5-0.2,2.3-1c0,0,0.9-1,1.4-2.1
				C100.4,15,100.6,13.7,99.2,13.9z"/>
			
				<linearGradient id="SVGID_11_" gradientUnits="userSpaceOnUse" x1="97.0424" y1="28.9343" x2="97.0424" y2="31.9674" gradientTransform="matrix(1 0 0 -1 0 45.8898)">
				<stop  offset="2.165098e-07" style="stop-color:#3A6A94"/>
				<stop  offset="1" style="stop-color:#132E57"/>
			</linearGradient>
			<path class="st20" d="M95.9,15c0,0,0.9-0.1,2.2-1.1c0,0-0.1,0.2-0.3,0.6c-0.2,0.4-0.5,0.9-0.5,1.5c0,0,0.2,0.9-0.5,0.9
				C96.8,16.9,96.1,17.1,95.9,15z"/>
			
				<linearGradient id="SVGID_12_" gradientUnits="userSpaceOnUse" x1="98.0787" y1="32.5327" x2="98.0787" y2="32.8324" gradientTransform="matrix(1 0 0 -1 0 45.8898)">
				<stop  offset="2.165098e-07" style="stop-color:#3A6A94"/>
				<stop  offset="1" style="stop-color:#132E57"/>
			</linearGradient>
			<polygon class="st21" points="98,13.3 98.2,13.3 98.1,13 98,13.2 			"/>
			
				<linearGradient id="SVGID_13_" gradientUnits="userSpaceOnUse" x1="97.3089" y1="32.3488" x2="97.3089" y2="35.6462" gradientTransform="matrix(1 0 0 -1 0 45.8898)">
				<stop  offset="2.165098e-07" style="stop-color:#3A6A94"/>
				<stop  offset="1" style="stop-color:#132E57"/>
			</linearGradient>
			<path class="st22" d="M94.9,10.4c0,0,0.3,0.7,0.7,0.7c0,0,1.8-0.9,3-0.8c0,0,1,0,1.4,0.7v0.4c0,0-2.2,0.3-3.3,2.1h-0.5l-1.7-1.7
				C94.6,11.9,94.6,10.6,94.9,10.4z"/>
			
				<linearGradient id="SVGID_14_" gradientUnits="userSpaceOnUse" x1="96.4799" y1="20.8256" x2="96.4799" y2="27.1388" gradientTransform="matrix(1 0 0 -1 0 45.8898)">
				<stop  offset="2.165098e-07" style="stop-color:#3A6A94"/>
				<stop  offset="1" style="stop-color:#132E57"/>
			</linearGradient>
			<path class="st23" d="M95.5,18.8c0,0-0.2,0.5,0.2,0.5c0,0,0.4,0.1,0.4-0.1c0,0,0.4-0.2,1.5-0.2c1.1,0,0.8,1.1,0.8,1.1l-0.2,1.5
				l0.2,0.1h0.1l1.2-2c0,0-0.5,2-1.1,2.9L95.9,25c0,0-2.3-0.8-2.7-1.7c0,0,3.3-0.9,3.8-1.5c0,0,0.1-0.3,0.4-1.5c0,0,0.1-0.8-1-0.2
				c0,0-1,0.7-1.7-0.7C94.8,19.5,94.5,19.1,95.5,18.8z"/>
		</g>
		<g id="BET">
			
				<linearGradient id="SVGID_15_" gradientUnits="userSpaceOnUse" x1="58.6644" y1="14.2263" x2="58.6644" y2="28.9368" gradientTransform="matrix(1 0 0 -1 0 45.8898)">
				<stop  offset="4.330197e-07" style="stop-color:#E47D00"/>
				<stop  offset="1" style="stop-color:#D55200"/>
			</linearGradient>
			<path class="st24" d="M62.5,16.9h-6.9l-5.2,14.7h6.8c0,0,5.6,0,7.2-3.7c0,0,0.7-1.3,0.2-2.4c-0.3-0.7-1.1-1.4-2.6-1.6
				c0,0,4.3-0.5,4.7-4.1C66.9,19.7,67.4,17.1,62.5,16.9z M59.4,27c-1,1.7-2.5,1.2-2.5,1.2l1-2.8c1.1,0,1.4,0.3,1.6,0.5
				C59.7,26.2,59.5,26.7,59.4,27z M61.2,21.6c-1.1,1.4-2.4,0.9-2.4,0.9l0.8-2.5C62.4,20,61.2,21.6,61.2,21.6z"/>
			
				<linearGradient id="SVGID_16_" gradientUnits="userSpaceOnUse" x1="71.6098" y1="14.2263" x2="71.6098" y2="28.9368" gradientTransform="matrix(1 0 0 -1 0 45.8898)">
				<stop  offset="4.330197e-07" style="stop-color:#E47D00"/>
				<stop  offset="1" style="stop-color:#D55200"/>
			</linearGradient>
			<polygon class="st25" points="69.4,16.9 64.4,31.7 73.9,31.7 75.2,27.7 71.1,27.7 71.7,25.8 75.5,25.8 76.6,22.3 73,22.3 
				73.6,20.6 77.6,20.6 78.8,16.9 			"/>
			
				<linearGradient id="SVGID_17_" gradientUnits="userSpaceOnUse" x1="84.785" y1="14.2263" x2="84.785" y2="28.9368" gradientTransform="matrix(1 0 0 -1 0 45.8898)">
				<stop  offset="4.330197e-07" style="stop-color:#E47D00"/>
				<stop  offset="1" style="stop-color:#D55200"/>
			</linearGradient>
			<polygon class="st26" points="79.9,16.9 78.6,20.7 81.7,20.7 78,31.7 83.5,31.7 87.1,20.7 90.2,20.7 91.6,16.9 			"/>
			
				<linearGradient id="SVGID_18_" gradientUnits="userSpaceOnUse" x1="109.4183" y1="12.0861" x2="109.4183" y2="28.9343" gradientTransform="matrix(1 0 0 -1 0 45.8898)">
				<stop  offset="4.330197e-07" style="stop-color:#E47D00"/>
				<stop  offset="1" style="stop-color:#D55200"/>
			</linearGradient>
			<path class="st27" d="M120.6,27.3c0,0-1.1-0.2,0.4-0.4c0,0,1,0,1.2-0.2c0,0,0-0.5-2.1-1c0,0-1.4-0.3-1.6-1.2c0,0-0.3-0.7,1.7-0.4
				c0,0,0.8,0.2,1.3,0.8c0,0,0.2-1.1-1-1.3c0,0-0.9-0.2-1.1-0.9l-0.4-0.1c0,0-0.1,0.4-1.1,0c0,0-1.1-0.4-1.1-1c0,0-0.2-0.6,1.7-0.2
				c0,0,1.4,0.5,2.4,1.7c0,0-0.2-4.9-9.9-6.5c0,0,1,1.4-0.8,4.5c0,0-3.4,7.2-5.8,7.6c0,0-2,0.8-3.1-1.6c0,0-2,0.9-2.3,1.7l3.4,0.5
				c0,0-0.3,0.4-1.2,0.5c-0.2,0.1-0.4-0.1-0.4-0.1c-0.2-0.2-0.1-0.4-0.4-0.4c0,0-0.4,0.1-0.7,0.2c-0.2,0.1-0.4,0.4-0.7,0.6
				c-0.2,0.2-0.6,0.3-0.8,0.5c0,0-1.2-0.4-1.3,1.2h2.2c0,0,4.1-0.8,6.1-0.6c0,0,0.9,0.1,2,1.1c0,0,0.9,0,1-0.4c0,0,1.1-1.1,1.7-0.7
				c0,0,2.1,0.5,2.4,0.5c0.4,0-1.7-0.9-1.7-0.9s2.1-0.6,3.8,0c0,0,5.3,2.4,6,2.2c0.8-0.2-1.7-1.7-1.7-1.7l-4.1-1.2c0,0,5,0,5.8,0.4
				c0,0-0.8-0.5-0.7-1.2c0.1-0.2,0.2-0.4,0.4-0.6c0.1-0.2,0.2-0.4,0.4-0.5c0,0-1.1,0.4-2.2-0.3c-1.1-0.7,1.8-0.2,1.8-0.2
				s1.5,0.1,1.7-0.2c0.2-0.2,0.1-0.5,0.1-0.5S121.7,27.4,120.6,27.3z M103.5,31c0,0-1.7,0.6-1.5,0.2l1.6-0.7c0,0,0.5-0.2,0.9,0
				C104.5,30.6,104.6,30.7,103.5,31z"/>
		</g>
		<path class="st3" d="M111.8,24.9c0-0.4-0.4-0.3-0.4-0.3h-0.8v-1.8c0-0.2-0.2-0.4-0.4-0.4l0,0c-0.2,0-0.4,0.2-0.4,0.4v1.8h-0.5
			l-0.8,0.5c-0.4,0.4,0,0.7,0,0.7c0.2,0.2,1-0.3,1-0.3h0.2v4.8c0,0.2,0.2,0.4,0.4,0.4l0,0c0.2,0,0.4-0.2,0.4-0.4v-4.8h0.5
			C111.9,25.2,111.8,24.9,111.8,24.9z"/>
		<path class="st3" d="M113.4,29.7L113.4,29.7c-0.2,0-0.5-0.2-0.5-0.5l0,0c0-0.2,0.2-0.4,0.5-0.4l0.8-0.3c0,0,0,0.4-0.1,0.5
			C114,29.3,113.7,29.7,113.4,29.7z"/>
		<path class="st3" d="M112.2,27.6c0,0-0.9-0.1-1.1,0.7c0,0,0.1,0.5,0.5,0.5c0,0,0.5,0,0.8-0.4c0,0,1.2-0.4,3.4-0.2
			c0,0,0.2,0,0.2,0.2v0.8c0,0-0.1,0.4-0.8,0.7c0,0-0.7,0.3-1.3-0.2c0,0-0.2,0.8,1.2,1c0,0,1.1,0.1,1.5-0.9c0,0,0.1-0.9-0.1-1.3
			c0,0,0.4,0.1,0.8,0.2c0,0,0.9-0.1,0.9-1.1h-1.6c0,0,0-0.5-0.5-0.5c0,0-0.4-0.1-0.4,0.5L112.2,27.6z"/>
		<path class="st3" d="M117.4,23.6c0-0.5-0.5-0.5-0.5-0.5h-0.8c0.1-0.3,0.3-0.4,0.3-0.4c0-0.4-0.4-0.4-0.4-0.4
			c-0.4-0.1-0.4,0.8-0.4,0.8h-0.6v-0.5c0-0.4-0.4-0.4-0.4-0.4s-0.4-0.1-0.4,0.4v0.5h-1.8c0,0-0.5-0.1-0.5,0.5c0,0,0,0.4,0.5,0.4
			c0,0,0.3,0,0.4-0.1c0,0,0.7-0.2,1.5,0c0,0,0.1,0.1,0.1,0.2c0,0,0,0.2-0.1,0.2h-1.4c0,0-0.5-0.1-0.5,0.4v2.3c0,0,0,0.3,0.2,0.4
			c0,0,0,0,0.1,0c0.4,0,0.4-0.7,0.4-0.7h1.3v0.7c0,0,0.1,0.2,0.2,0.2c0.2,0,0.2-0.2,0.2-0.2v-0.7h1.3c0,0,0,0.7,0.4,0.7
			c0,0,0,0,0.1,0c0.3,0,0.2-0.4,0.2-0.4v-2.3c0-0.4-0.5-0.4-0.5-0.4H115c-0.1,0-0.1-0.2-0.1-0.2c0-0.1,0.1-0.2,0.1-0.2
			c0.8-0.2,1.5,0,1.5,0c0.1,0.1,0.4,0.1,0.4,0.1C117.4,24,117.4,23.6,117.4,23.6z M114.4,26.1C114.4,26.1,114.4,26.2,114.4,26.1
			l-1.2,0.1c-0.1,0-0.1,0-0.1-0.1v-0.5c0-0.1,0-0.1,0.1-0.1h1.2c0.1,0,0.1,0,0.1,0.1V26.1z M114.4,25.2
			C114.4,25.3,114.4,25.3,114.4,25.2l-1.2,0.1c-0.1,0-0.1-0.1-0.1-0.1l0.1-0.2c0,0,0.2-0.1,0.2-0.2c0,0,0,0,0.1,0l0.9-0.1
			c0,0,0.1,0,0.1,0.1L114.4,25.2L114.4,25.2z M115.1,24.8L115.1,24.8l0.9,0.1c0,0,0,0,0.1,0c0.1,0.1,0.2,0.2,0.2,0.2l0.1,0.2
			c0,0,0,0.1-0.1,0.1h-1.2c0,0-0.1,0-0.1-0.1L115.1,24.8L115.1,24.8z M115.1,25.6C115.1,25.6,115.1,25.6,115.1,25.6l1.2-0.1
			c0,0,0.1,0,0.1,0.1v0.5c0,0,0,0.1-0.1,0.1h-1.2c0,0-0.1,0-0.1-0.1V25.6z"/>
	</g>
</g>
</svg>
