<?xml version="1.0" encoding="utf-8"?>
<!-- Generator: Adobe Illustrator 22.1.0, SVG Export Plug-In . SVG Version: 6.00 Build 0)  -->
<svg version="1.1" id="Layer_1" xmlns="http://www.w3.org/2000/svg" xmlns:xlink="http://www.w3.org/1999/xlink" x="0px" y="0px"
	 viewBox="0 0 149.9 51.2" style="enable-background:new 0 0 149.9 51.2;" xml:space="preserve">
<style type="text/css">
	.st0{fill:#862165;}
	.st1{fill:#862265;}
</style>
<g>
	<path class="st0" d="M0.9,43.7c0-1.7,0-3.4,0-5.1c0-0.4,0.1-0.4,0.4-0.3c4.6,1.7,9.4,2.6,14.4,2.5c1.7,0,3.4-0.3,5-1.1
		c1.7-0.9,2.4-2.3,2.1-4c-0.2-1.2-0.9-1.9-1.9-2.4c-0.9-0.4-1.9-0.5-2.8-0.6c-3.1-0.2-6.2-0.7-9.1-1.9c-3.5-1.5-6.3-3.8-7.8-7.4
		C-1.6,17,0.8,9.6,6.6,5.9c2.4-1.5,5.1-2.4,7.9-2.8C17.8,2.7,21,2.8,24.2,3c3.8,0.3,7.5,1.1,11.1,2.3c0.3,0.1,0.4,0.2,0.4,0.5
		c0,3.3,0,6.7,0,10c0,0.4-0.1,0.4-0.4,0.3c-3.7-1.6-7.6-2.5-11.6-3c-2.2-0.3-4.4-0.3-6.5,0.2c-0.7,0.2-1.3,0.4-1.8,0.8
		c-1.9,1.3-1.9,4.2-0.1,5.4c0.7,0.5,1.6,0.7,2.5,0.8c1.8,0.2,3.6,0.3,5.3,0.6c3.1,0.6,6.1,1.6,8.8,3.4c3.9,2.8,5.8,6.5,5.8,11.3
		c-0.1,5.3-2.5,9.3-6.9,12.2c-2.7,1.7-5.6,2.6-8.8,3c-3.5,0.5-7,0.3-10.5,0c-3.3-0.2-6.5-0.7-9.8-1.5c-0.4-0.1-0.6-0.3-0.6-0.7
		C0.9,47.1,0.9,45.4,0.9,43.7z"/>
	<path class="st0" d="M53.5,27.8c1.5-1.8,2.7-3.6,3.8-5.4c1.2-2,2.3-4.2,3.1-6.4c0.1-0.2,0.1-0.3,0.4-0.3c4.7,0,9.5,0,14.2,0
		c0.1,0,0.1,0,0.2,0c-0.3,1.1-0.7,2.1-1.1,3.2c-2,4.8-4.5,9.4-7.7,13.5c-0.2,0.3-0.2,0.4,0,0.7c2.4,4.3,4.7,8.7,6.5,13.3
		c0.5,1.3,1,2.6,1.4,4c0.1,0.2,0.1,0.4-0.2,0.4c-4.9,0-9.9,0-14.8,0c-0.3,0-0.3-0.1-0.4-0.3c-0.9-3.4-1.9-6.8-3.5-10
		c-0.6-1.2-1.2-2.4-2-3.5c0,0.1,0,0.3,0,0.4c0,4.3,0,8.6,0,12.9c0,0.4-0.1,0.5-0.5,0.5c-4,0-8,0-12,0c-0.4,0-0.5-0.1-0.5-0.5
		c0-14.8,0-29.6,0-44.5c0-0.3,0.1-0.4,0.4-0.5c4-0.8,8.1-1.6,12.1-2.4c0.4-0.1,0.4,0.1,0.4,0.4c0,8,0,15.9,0,23.9
		C53.5,27.3,53.5,27.5,53.5,27.8z"/>
	<path class="st0" d="M131.7,26.8c0,7.8,0,15.6,0,23.4c0,0.4-0.1,0.5-0.5,0.5c-3.8,0-7.7,0-11.5,0c-0.4,0-0.5-0.1-0.5-0.5
		c0-14.9,0-29.8,0-44.7c0-0.4,0.1-0.5,0.4-0.5c3.2-0.6,6.4-1.1,9.6-1.7c0.7-0.1,1.4-0.2,2.1-0.4c0.2,0,0.4,0,0.3,0.3
		c0,0.2,0,0.3,0,0.5C131.7,11.4,131.7,19.1,131.7,26.8z"/>
	<path class="st0" d="M149.9,26.8c0,7.8,0,15.6,0,23.4c0,0.4-0.1,0.5-0.5,0.5c-3.8,0-7.7,0-11.5,0c-0.4,0-0.5-0.1-0.5-0.5
		c0-14.9,0-29.8,0-44.8c0-0.4,0.1-0.5,0.4-0.5c3.5-0.6,7-1.2,10.5-1.9c0.4-0.1,0.8-0.1,1.2-0.2c0.2,0,0.3,0,0.3,0.3
		c0,0.1,0,0.2,0,0.3C149.9,11.2,149.9,19,149.9,26.8z"/>
	<path class="st0" d="M77,39.9c0-3.3,0-6.5,0-9.8c0-2.3,0.4-4.6,1.4-6.8c1.4-3.2,3.9-5.3,7.1-6.6c3.7-1.5,7.6-1.8,11.6-1.6
		c0.4,0,0.6,0.1,0.6,0.6c0,3.1,0,6.2,0,9.3c0,0.3-0.1,0.4-0.4,0.5c-1.2,0-2.4,0.2-3.6,0.5c-2.3,0.6-3.5,2.1-3.9,4.4
		c-0.2,1.1-0.2,2.2-0.3,3.3c0,5.5,0,10.9,0,16.4c0,0.4-0.1,0.5-0.5,0.5c-3.9,0-7.8,0-11.6,0c-0.4,0-0.5-0.1-0.5-0.5
		C77,46.8,77,43.4,77,39.9C77,39.9,77,39.9,77,39.9z"/>
	<path class="st0" d="M101.5,33.1c0-5.7,0-11.3,0-17c0-0.4,0.1-0.5,0.5-0.5c3.9,0,7.7,0,11.6,0c0.4,0,0.5,0.1,0.5,0.5
		c0,11.4,0,22.7,0,34.1c0,0.4-0.1,0.5-0.5,0.5c-3.9,0-7.7,0-11.6,0c-0.4,0-0.5-0.1-0.5-0.5C101.5,44.5,101.5,38.8,101.5,33.1z"/>
	<path class="st1" d="M107.7,12.3c-3.4,0-6.1-2.7-6.1-6.2c0-3.4,2.7-6.1,6.1-6.1c3.4,0,6.2,2.8,6.2,6.1
		C113.8,9.5,111.1,12.3,107.7,12.3z"/>
</g>
</svg>
