<?xml version="1.0" encoding="utf-8"?>
<!-- Generator: Adobe Illustrator 22.1.0, SVG Export Plug-In . SVG Version: 6.00 Build 0)  -->
<svg version="1.1" id="Layer_1" xmlns="http://www.w3.org/2000/svg" xmlns:xlink="http://www.w3.org/1999/xlink" x="0px" y="0px"
	 viewBox="0 0 245.2 40" style="enable-background:new 0 0 245.2 40;" xml:space="preserve">
<style type="text/css">
	.st0{fill:#86BB3F;}
</style>
<g>
	<path class="st0" d="M230.2,6.4c-1-1.9-2.5-3.2-4.4-4.2c-1.6-0.8-3.3-1.4-5.1-1.7c-2.1-0.4-4.2-0.6-6.3-0.6c-5.1,0-10.3,0-15.4,0
		c-0.1,0-0.2,0-0.3,0c-0.2,0-0.3,0-0.3,0.3c0,0.1,0,0.2-0.1,0.3c-0.3,1.7-0.6,3.3-0.9,5c-0.7,3.6-1.3,7.1-2,10.7c-0.4,2-0.7,4-1.1,6
		c-0.3,1.8-0.7,3.6-1,5.4c-0.2,1-0.4,2.1-0.6,3.1c0,0.2-0.1,0.3-0.3,0.3c-0.1,0-0.1,0-0.2,0c-6.4,0-12.7,0-19.1,0
		c-0.1,0-0.3,0-0.5,0c0.1-0.7,0.3-1.4,0.4-2.1c0.3-1.5,0.5-2.9,0.8-4.4c0.1-0.4,0.1-0.4,0.5-0.4c0.1,0,0.1,0,0.2,0
		c3.6,0,7.2,0,10.9,0c0.1,0,0.2,0,0.3,0c0.2,0,0.3,0,0.3-0.3c0-0.1,0-0.2,0.1-0.3c0.4-2,0.8-4.1,1.1-6.1c0.1-0.4,0.2-0.8,0.2-1.3
		c-1.4,0-2.7,0-4,0c-1.3,0-2.7,0-4,0c-1.3,0-2.7,0-4,0c0-0.1,0-0.2,0-0.3c0.4-2.1,0.8-4.2,1.2-6.3c0.1-0.4,0.1-0.4,0.4-0.4
		c0.1,0,0.2,0,0.3,0c3.7,0,7.4,0,11.1,0c0.7,0,0.7,0,0.8-0.7c0.3-1.8,0.7-3.6,1-5.4c0.2-1,0.4-2,0.5-3c-0.2-0.1-0.4,0-0.5,0
		c-8,0-15.9,0-23.9,0c-0.3,0-0.7-0.1-0.8,0.1c-0.2,0.2-0.2,0.5-0.2,0.8c-0.4,1.9-0.7,3.9-1.1,5.8c-0.4,2-0.7,4-1.1,6
		c-0.4,2.1-0.8,4.2-1.2,6.3c-0.4,2-0.7,3.9-1.1,5.9c-0.3,1.4-0.5,2.7-0.7,4.1c0,0.3-0.1,0.3-0.4,0.3c-2.9,0-5.7,0-8.6,0
		c-0.3,0-0.3,0-0.3-0.3c0.3-1.4,0.5-2.9,0.8-4.3c0.5-2.7,1-5.5,1.5-8.2c0.5-2.9,1.1-5.8,1.6-8.7c0.4-2,0.7-4,1.1-5.9
		c0.1-0.6,0.2-1.2,0.3-1.9c-0.2,0-0.3,0-0.4,0c-4.1,0-8.3,0-12.4,0c-0.1,0-0.1,0-0.2,0c-0.2,0-0.2,0.1-0.2,0.2
		c-0.3,1.9-0.7,3.8-1,5.6c-0.4,2-0.7,3.9-1.1,5.9c-0.3,1.8-0.7,3.6-1,5.3c-0.3,1.8-0.7,3.7-1,5.5c-0.4,2.1-0.8,4.2-1.2,6.3
		c-0.1,0.4-0.1,0.4-0.5,0.4c-2.7,0-5.4,0-8.1,0c-0.1,0-0.3,0-0.4-0.1c0-0.3,0.1-0.6,0.1-0.9c0.5-2.9,1.1-5.8,1.6-8.7
		c0.4-2,0.7-4,1.1-6c0.3-1.8,0.6-3.5,1-5.3c0.4-1.9,0.7-3.9,1.1-5.8c0.1-0.8,0.3-1.6,0.4-2.3c0-0.2,0-0.2-0.2-0.2
		c-0.1,0-0.2,0-0.3,0c-1.2,0-2.5,0-3.7,0c-2.9,0-5.8,0-8.6,0c-0.4,0-0.4,0-0.5,0.3c-0.2,1.1-0.4,2.2-0.6,3.3c-0.4,2-0.7,4-1.1,6
		c-0.3,1.8-0.7,3.5-1,5.3c-0.4,2-0.7,4-1.1,5.9c-0.3,1.8-0.7,3.6-1,5.4c-0.3,1.4-0.5,2.9-0.8,4.3c-0.1,0.3-0.1,0.3-0.4,0.3
		c-6.5,0-13,0-19.5,0c-0.1,0-0.2,0-0.3-0.1c0.4-2.1,0.8-4.2,1.2-6.3c0.1-0.5,0.1-0.5,0.6-0.5c3.7,0,7.4,0,11.1,0
		c0.5,0,0.5,0,0.5-0.4c0.4-2.3,0.8-4.6,1.2-6.8c0.1-0.8,0.1-0.6-0.5-0.6c-3.7,0-7.4,0-11.1,0c-0.4,0-0.4,0-0.4-0.4
		c0.4-2,0.7-4.1,1.1-6.1c0.1-0.5,0-0.5,0.6-0.5c0.1,0,0.1,0,0.2,0c3.8,0,7.6,0,11.3,0c0.1,0,0.2,0,0.3,0c0.3,0,0.3,0,0.4-0.3
		c0.1-0.4,0.1-0.8,0.2-1.1c0.4-2,0.7-4.1,1.1-6.1c0.1-0.5,0.2-1,0.3-1.5c-0.2,0-0.4,0-0.6,0C94.9,0,77.2,0,59.4,0
		c-8.2,0-16.3,0-24.5,0c-0.5,0-0.5,0-0.5,0.4c-0.2,1-0.4,2-0.6,3c-0.4,2.2-0.8,4.5-1.2,6.7c-0.4,2.1-0.8,4.3-1.2,6.4
		c-0.4,2.5-0.9,4.9-1.4,7.4c0,0.1,0,0.2-0.1,0.2c-0.1,0-0.1-0.1-0.1-0.2c-0.9-2.5-1.8-4.9-2.7-7.4c-1.1-3.1-2.2-6.1-3.4-9.2
		c-0.8-2.3-1.7-4.6-2.5-7C21.1,0,21.1,0,20.7,0c-4.3,0-8.5,0-12.8,0C7.2,0,7.4-0.1,7.3,0.5c0,0,0,0,0,0C7,1.7,6.8,2.9,6.6,4.1
		c-0.5,2.6-1,5.1-1.4,7.7c-0.4,2.3-0.8,4.6-1.3,6.9c-0.5,2.6-1,5.1-1.4,7.7c-0.4,2.4-0.9,4.9-1.3,7.3c-0.4,2-0.8,4.1-1.1,6.1
		C0,39.9,0,40,0.2,40c0.1,0,0.1,0,0.2,0c4.1,0,8.2,0,12.2,0c0.4,0,0.4,0,0.5-0.4c0.2-1.4,0.5-2.8,0.7-4.2c0.4-2.1,0.7-4.2,1.1-6.2
		c0.4-2.1,0.8-4.3,1.1-6.4c0.4-2.1,0.7-4.1,1.1-6.2c0.1-0.5,0.1-0.9,0.3-1.4c0.1,0.1,0.1,0.2,0.2,0.3c0.8,2.4,1.6,4.7,2.4,7.1
		c0.7,2,1.4,4,2.1,6c1.3,3.7,2.5,7.3,3.8,11c0.2,0.6,0.1,0.5,0.7,0.5c15.3,0,30.6,0,45.8,0c0.1,0,0.2,0,0.3,0c0.3,0,0.3,0,0.4-0.3
		c0.2-0.8,0.3-1.6,0.5-2.5c0.4-1.9,0.7-3.9,1.1-5.8c0.4-2,0.7-3.9,1.1-5.9c0.4-2.1,0.8-4.2,1.2-6.3c0.6-3.2,1.2-6.5,1.8-9.7
		c0.1-0.4,0.1-0.4,0.5-0.4c2.1,0,4.3,0,6.4,0c0.1,0,0.3,0,0.4,0.1c-1.9,10.3-3.8,20.5-5.7,30.8c0.2,0,0.4,0,0.6,0
		c40.8,0,81.5,0,122.3,0c0.1,0,0.2,0,0.3,0c0.3,0,0.3,0,0.4-0.3c0.5-2.7,1-5.3,1.5-8c0.6-3.2,1.2-6.5,1.8-9.7
		c0.1-0.4,0.1-0.8,0.3-1.2c0.7,2.4,1.4,4.7,2.1,7.1c1.2,3.9,2.3,7.9,3.5,11.8c0.1,0.4,0.1,0.4,0.5,0.4c4.1,0,8.2,0,12.4,0
		c0.1,0,0.2,0,0.3-0.1c-2-5.3-4-10.5-5.9-15.8c0.2-0.1,0.3-0.1,0.4-0.2c1.1-0.2,2.2-0.5,3.3-0.9c2.1-0.9,3.9-2.2,5.1-4.1
		c1.3-2,1.8-4.1,1.9-6.4c0-0.8,0-1.6-0.1-2.4C231.1,8.8,230.7,7.6,230.2,6.4z M65.6,9.5c-0.4,2.1-0.8,4.3-1.2,6.4
		c-0.4,1.9-0.7,3.9-1.1,5.8c-0.3,1.8-0.7,3.6-1,5.4c-0.2,1-0.4,2.1-0.6,3.1c0,0,0,0.1,0,0.1c-0.1,0.5,0,0.4-0.5,0.4
		c-6.4,0-12.8,0-19.2,0c-0.1,0-0.2,0-0.4,0c0.1-0.7,0.3-1.4,0.4-2.1c0.3-1.5,0.6-3,0.8-4.5c0.1-0.3,0.1-0.3,0.4-0.3
		c2.2,0,4.5,0,6.7,0c1.6,0,3.3,0,4.9,0c0.1,0,0.2,0,0.3,0c0.2,0,0.3-0.1,0.3-0.2c0.1-0.6,0.2-1.1,0.3-1.7c0.3-1.9,0.7-3.7,1-5.6
		c0-0.1,0-0.1,0-0.2c0-0.3,0-0.3-0.3-0.3c-0.1,0-0.2,0-0.3,0c-3.8,0-7.5,0-11.3,0c-0.6,0-0.5,0-0.4-0.5c0.2-1.4,0.5-2.8,0.7-4.2
		c0.1-0.7,0.2-1.3,0.3-2c0-0.2,0.1-0.3,0.3-0.2c0.1,0,0.2,0,0.3,0c6.3,0,12.6,0,18.9,0c0,0,0.1,0,0.1,0C65.7,9.1,65.7,9.1,65.6,9.5z
		 M217.9,15.3c-0.6,1.4-1.6,2.3-3,2.8c-1.1,0.4-2.3,0.6-3.5,0.7c-1.1,0-2.2,0-3.4,0c-0.1,0-0.1,0-0.2,0c0.3-1.6,0.6-3.2,0.9-4.8
		c0.3-1.7,0.6-3.3,0.9-5c0-0.2,0.1-0.4,0.1-0.6c0-0.1,0.1-0.2,0.3-0.2c1.7,0,3.5-0.1,5.2,0.5c1.1,0.3,2,0.9,2.6,1.9
		c0.4,0.6,0.6,1.3,0.6,2C218.4,13.4,218.3,14.3,217.9,15.3z"/>
	<path class="st0" d="M239.4,28.2c-3.3-0.1-6,2.7-6,5.8c-0.1,3.4,2.9,6.1,5.9,6c3.1,0.1,5.8-2.5,5.9-5.6
		C245.3,30.9,242.5,28.2,239.4,28.2z M244.2,34.2c-0.1,2.6-2.3,4.8-4.9,4.7c-2.5,0.1-4.9-2.1-4.8-4.9c0-2.5,2.1-4.8,4.9-4.8
		C242,29.2,244.2,31.5,244.2,34.2z"/>
	<path class="st0" d="M240.6,34.7c-0.1-0.1-0.2-0.2-0.4-0.3c0.5-0.1,0.9-0.3,1.2-0.6c0.3-0.3,0.4-0.6,0.4-1.1c0-0.3-0.1-0.6-0.2-0.9
		c-0.2-0.3-0.4-0.5-0.6-0.6c-0.3-0.1-0.6-0.2-1.1-0.2h-2.5v6h0.7v-2.7h0.9c0.2,0,0.3,0,0.4,0c0.1,0,0.2,0.1,0.3,0.2
		c0.1,0.1,0.2,0.2,0.4,0.4c0.1,0.2,0.3,0.5,0.5,0.8l0.7,1.2h0.9l-1-1.6C241,35.2,240.8,35,240.6,34.7z M239.6,33.8H238v-2h1.8
		c0.4,0,0.7,0.1,0.9,0.3c0.2,0.2,0.3,0.4,0.3,0.7c0,0.2,0,0.4-0.1,0.5c-0.1,0.2-0.2,0.3-0.4,0.4C240.2,33.8,239.9,33.8,239.6,33.8z"
		/>
</g>
</svg>
