<?xml version="1.0" encoding="utf-8"?>
<!-- Generator: Adobe Illustrator 22.1.0, SVG Export Plug-In . SVG Version: 6.00 Build 0)  -->
<svg version="1.1" id="Layer_1" xmlns="http://www.w3.org/2000/svg" xmlns:xlink="http://www.w3.org/1999/xlink" x="0px" y="0px"
	 viewBox="0 0 245.2 38.3" style="enable-background:new 0 0 245.2 38.3;" xml:space="preserve">
<style type="text/css">
	.st0{fill:#EB4E32;}
	.st1{fill:#666666;}
</style>
<g>
	<path class="st0" d="M0,0h13.1c3.1,0,5.4,0.2,6.9,0.7s2.9,1.6,3.9,3.2c1.1,1.6,1.6,3.7,1.6,6.1c0,4.3-1.8,7-5.5,8.2
		c4.3,1.5,6.5,4.7,6.5,9.4c0,2.5-0.6,4.6-1.8,6.3c-1.2,1.7-2.6,2.9-4.4,3.4c-1.7,0.6-4.2,0.9-7.4,0.9H0V0z M8.1,15.5h2.7
		c2.7,0,4.4-0.5,5.1-1.5c0.7-1,1.1-2.1,1.1-3.3c0-1.2-0.4-2.2-1.1-3.1c-0.7-0.9-2.2-1.4-4.5-1.4H8.1V15.5z M8.1,31.7h4.1
		c3.9,0,5.8-1.7,5.8-5c0-1.9-0.5-3.2-1.4-3.9c-1-0.8-2.4-1.1-4.4-1.1H8.1V31.7z"/>
	<path class="st0" d="M39,0h8.5l10.9,38.3h-8.6l-1.9-7.9H37.2l-1.9,7.9h-7.7L39,0z M46.4,23.8L42.5,8.1l-3.7,15.7H46.4z"/>
	<path class="st0" d="M61.3,0h9.3l9.8,23.8V0H87v38.3h-7.5L67.8,10.6v27.7h-6.5V0z"/>
	<path class="st0" d="M93.9,0h8.4v16l9.3-16h8.5l-9.6,14.1L121,38.3h-8.7l-6.7-17.6l-3.2,4.6v13h-8.4V0z"/>
</g>
<g>
	<path class="st1" d="M165,0l-9.2,38.3H151l-8.4-29.7l-7.8,29.7h-4.9L120.2,0h5l7.7,31L141,0h3.9l8.8,31l7.1-31H165z"/>
	<path class="st1" d="M175.7,38.3h-4.8V0h4.8V38.3z"/>
	<path class="st1" d="M212.8,38.3h-5l-7.1-16.6h-11v16.6h-4.5V0h15.1c4.1,0,7.1,1.1,9.1,3.4c2,2.2,3,4.7,3,7.3c0,2-0.6,4-1.7,5.9
		c-1.1,1.9-2.9,3.2-5.5,4L212.8,38.3z M189.7,17.8h10c2.6,0,4.6-0.7,5.9-2.1c1.3-1.4,1.9-3.1,1.9-5.1s-0.7-3.6-2.1-4.7
		c-1.4-1.1-3.1-1.7-5.2-1.7h-10.6V17.8z"/>
	<path class="st1" d="M245.2,34.1v4.2h-24.8V0h24.2v4.2h-19.4v12.2h15.4v3.9h-15.4v13.8H245.2z"/>
</g>
</svg>
