<?xml version="1.0" encoding="utf-8"?>
<!-- Generator: Adobe Illustrator 22.1.0, SVG Export Plug-In . SVG Version: 6.00 Build 0)  -->
<svg version="1.1" id="Layer_1" xmlns="http://www.w3.org/2000/svg" xmlns:xlink="http://www.w3.org/1999/xlink" x="0px" y="0px"
	 viewBox="0 0 750 519" style="enable-background:new 0 0 750 519;" xml:space="preserve">
<style type="text/css">
	.st0{display:none;}
	.st1{display:inline;}
	.st2{clip-path:url(#SVGID_2_);fill:#FAD2DD;}
	.st3{clip-path:url(#SVGID_4_);fill:url(#SVGID_5_);}
	.st4{clip-path:url(#SVGID_7_);}
	.st5{opacity:5.000000e-02;clip-path:url(#SVGID_9_);}
	.st6{fill:#F2F2F2;}
	.st7{opacity:5.000000e-02;clip-path:url(#SVGID_11_);}
	.st8{opacity:5.000000e-02;clip-path:url(#SVGID_13_);}
</style>
<g>
	<g class="st0">
		<g class="st1">
			<defs>
				<rect id="SVGID_1_" width="750" height="519"/>
			</defs>
			<clipPath id="SVGID_2_">
				<use xlink:href="#SVGID_1_"  style="overflow:visible;"/>
			</clipPath>
			<path class="st2" d="M932.8,155.4c2.3,236.3-107.6,367-487.9,363.6C64.5,515.5-245.6,321.2-247.9,84.8
				C-250.2-151.5,56.2-340.4,436.5-337S930.5-81,932.8,155.4z"/>
		</g>
	</g>
	<g>
		<g>
			<defs>
				<rect id="SVGID_3_" width="750" height="519"/>
			</defs>
			<clipPath id="SVGID_4_">
				<use xlink:href="#SVGID_3_"  style="overflow:visible;"/>
			</clipPath>
			
				<linearGradient id="SVGID_5_" gradientUnits="userSpaceOnUse" x1="438.8073" y1="128.9558" x2="438.8073" y2="787.9418" gradientTransform="matrix(1 0 0 1 0 -248)">
				<stop  offset="0" style="stop-color:#C13A44"/>
				<stop  offset="1" style="stop-color:#C1272D"/>
			</linearGradient>
			<path class="st3" d="M2033.5,26.6c21.8,269.5-674.6,499-1555.5,512.7C-403,553-1134.1,345.7-1155.9,76.1
				c-21.8-269.5,696.2-107,1577.1-120.8S2011.9-242.9,2033.5,26.6z"/>
		</g>
	</g>
	<g>
		<g>
			<defs>
				<rect id="SVGID_6_" width="750" height="519"/>
			</defs>
			<clipPath id="SVGID_7_">
				<use xlink:href="#SVGID_6_"  style="overflow:visible;"/>
			</clipPath>
			<g class="st4">
				<g>
					<g>
						<defs>
							<path id="SVGID_8_" d="M1127,49.5C1136.4,285.8,836,487,456,499C76.2,511-239.4,329.2-248.8,93
								C-258.2-143.3,51.5-0.9,431.5-12.9S1117.7-186.8,1127,49.5z"/>
						</defs>
						<clipPath id="SVGID_9_">
							<use xlink:href="#SVGID_8_"  style="display:none;overflow:visible;"/>
						</clipPath>
						<g class="st5">
							<circle class="st6" cx="-36.1" cy="578" r="366.3"/>
						</g>
					</g>
					<g>
						<g>
							<defs>
								<rect id="SVGID_10_" width="750" height="519"/>
							</defs>
							<clipPath id="SVGID_11_">
								<use xlink:href="#SVGID_10_"  style="overflow:visible;"/>
							</clipPath>
							<g class="st7">
								<path class="st6" d="M640.7-260.8c38.7,0,76.2,7.6,111.4,22.5c34.1,14.4,64.7,35.1,91,61.4s47,56.9,61.4,91
									c15,35.2,22.5,72.7,22.5,111.4s-7.6,76.2-22.5,111.4c-14.4,34.1-35.1,64.7-61.4,91c-26.3,26.3-56.9,47-91,61.4
									c-35.2,14.9-72.7,22.5-111.4,22.5s-76.2-7.6-111.4-22.5c-34.1-14.4-64.7-35.1-91-61.4s-47-56.9-61.4-91
									c-14.9-35.2-22.5-72.7-22.5-111.4s7.6-76.2,22.5-111.4c14.4-34.1,35.1-64.7,61.4-91s56.9-47,91-61.4
									C564.5-253.3,602-260.8,640.7-260.8 M640.7-340.8c-202.3,0-366.3,164-366.3,366.3s164,366.3,366.3,366.3
									S1007,227.8,1007,25.5S843-340.8,640.7-340.8L640.7-340.8z"/>
							</g>
						</g>
						<g id="header-bg">
							<g>
								<defs>
									<rect id="SVGID_12_" width="750" height="519"/>
								</defs>
								<clipPath id="SVGID_13_">
									<use xlink:href="#SVGID_12_"  style="overflow:visible;"/>
								</clipPath>
								<g class="st8">
									<path class="st6" d="M-199.6-309.3c47.4,0,93.4,9.3,136.7,27.6c41.8,17.7,79.4,43,111.7,75.3s57.6,69.8,75.3,111.7
										C142.4-51.5,151.7-5.4,151.7,42s-9.3,93.4-27.6,136.7c-17.7,41.8-43,79.4-75.3,111.7S-21,348-62.9,365.7
										c-43.3,18.3-89.3,27.6-136.7,27.6s-93.4-9.3-136.7-27.6c-41.8-17.7-79.4-43-111.7-75.3s-57.6-69.8-75.3-111.7
										c-18.3-43.3-27.6-89.3-27.6-136.7s9.3-93.4,27.6-136.7c17.7-41.8,43-79.4,75.3-111.7s69.8-57.6,111.7-75.3
										C-293-300-247-309.3-199.6-309.3 M-199.6-324.3c-202.3,0-366.3,164-366.3,366.3s164,366.3,366.3,366.3
										S166.7,244.3,166.7,42S2.7-324.3-199.6-324.3L-199.6-324.3z"/>
								</g>
							</g>
						</g>
					</g>
				</g>
			</g>
		</g>
	</g>
</g>
</svg>
