<?xml version="1.0" encoding="utf-8"?>
<!-- Generator: Adobe Illustrator 22.1.0, SVG Export Plug-In . SVG Version: 6.00 Build 0)  -->
<svg version="1.1" id="Layer_1" xmlns="http://www.w3.org/2000/svg" xmlns:xlink="http://www.w3.org/1999/xlink" x="0px" y="0px"
	 viewBox="0 0 1222.6 703.1" style="enable-background:new 0 0 1222.6 703.1;" xml:space="preserve">
<style type="text/css">
	.st0{fill:#FFB400;}
	.st1{fill:#FFC953;}
	.st2{fill:url(#SVGID_1_);}
	.st3{fill:#F4A82F;}
</style>
<path class="st0" d="M920.7,64.1l-59.8,138.8l124.8,11.6L920.7,64.1z M1222.6,283.3l-157-14.6l-44.7,39.4L845.4,462.7l21.8,96.9
	l53.7-31.9l186.6,110.5l-47.6-211.6L1222.6,283.3z"/>
<path class="st1" d="M165.4,268L0,283.5l162.9,143.2l-47.4,211.6l186.5-110.6l62.3,36.9L387,462.8L211.3,308.4L165.4,268z
	 M362.2,204L301.7,64.1l-65.4,151.7l5.2-0.5L362.2,204z"/>
<linearGradient id="SVGID_1_" gradientUnits="userSpaceOnUse" x1="397.1136" y1="141.5689" x2="858.0659" y2="690.9105">
	<stop  offset="0" style="stop-color:#FFCA55"/>
	<stop  offset="0.1321" style="stop-color:#FFC749"/>
	<stop  offset="1" style="stop-color:#FFB400"/>
</linearGradient>
<polygon class="st2" points="843.8,702.9 615.3,567.6 387,703.1 445,444 245.6,268.7 510,243.8 615.1,0 720.4,243.7 984.8,268.3 
	785.5,443.8 "/>
<path class="st3" d="M486.5,385.8c-2.3-2.3-3.5-5.3-3.5-9c0-3.7,1.2-6.7,3.5-9l18.5-18c2.3-2.7,5.3-4,8.8-4s6.6,1.3,9.3,4l56.1,56.1
	l120.3-120.3c2.7-2.7,5.8-4,9.3-4s6.4,1.3,8.8,4l18.5,18c2.3,2.3,3.5,5.3,3.5,9c0,3.7-1.2,6.7-3.5,9L588.2,469.1c-2.3,2.7-5.3,4-9,4
	s-6.7-1.3-9-4L486.5,385.8z"/>
</svg>
