<?xml version="1.0" encoding="utf-8"?>
<!-- Generator: Adobe Illustrator 22.1.0, SVG Export Plug-In . SVG Version: 6.00 Build 0)  -->
<svg version="1.1" id="Layer_1" xmlns="http://www.w3.org/2000/svg" xmlns:xlink="http://www.w3.org/1999/xlink" x="0px" y="0px"
	 viewBox="0 0 500 500" style="enable-background:new 0 0 500 500;" xml:space="preserve">
<style type="text/css">
	.st0{fill:url(#SVGID_1_);}
	.st1{fill:#FFFFFF;}
</style>
<linearGradient id="SVGID_1_" gradientUnits="userSpaceOnUse" x1="0" y1="250" x2="500" y2="250">
	<stop  offset="2.512563e-03" style="stop-color:#FFB400"/>
	<stop  offset="1" style="stop-color:#FDCC57"/>
</linearGradient>
<circle class="st0" cx="250" cy="250" r="250"/>
<path class="st1" d="M300,360c0,27.6-22.4,50-50,50s-50-22.4-50-50s22.4-50,50-50S300,332.4,300,360z M205.8,105.7l8.5,170
	c0.4,8,7,14.3,15,14.3h41.5c8,0,14.6-6.3,15-14.3l8.5-170c0.4-8.6-6.4-15.7-15-15.7h-58.5C212.2,90,205.4,97.2,205.8,105.7z"/>
</svg>
