<?xml version="1.0" encoding="utf-8"?>
<!-- Generator: Adobe Illustrator 23.0.0, SVG Export Plug-In . SVG Version: 6.00 Build 0)  -->
<svg version="1.1" id="Layer_1" xmlns="http://www.w3.org/2000/svg" xmlns:xlink="http://www.w3.org/1999/xlink" x="0px" y="0px"
	 viewBox="0 0 496 493" style="enable-background:new 0 0 496 493;" xml:space="preserve">
<style type="text/css">
	.st0{fill:#FFFFFF;}
	.st1{fill:url(#SVGID_1_);}
</style>
<polygon class="st0" points="362,105 452,194 231,436 34,265 157,175 "/>
<linearGradient id="SVGID_1_" gradientUnits="userSpaceOnUse" x1="21.3833" y1="376.8963" x2="474.6167" y2="175.1037" gradientTransform="matrix(1 0 0 -1 0 524)">
	<stop  offset="0" style="stop-color:#529F7C"/>
	<stop  offset="1" style="stop-color:#8BC5A2"/>
</linearGradient>
<path class="st1" d="M496,248c0,136.97-111.03,248-248,248S0,384.97,0,248S111.03,0,248,0S496,111.03,496,248z M219.31,379.31
	l184-184c6.25-6.25,6.25-16.38,0-22.63l-22.63-22.63c-6.25-6.25-16.38-6.25-22.63,0L208,300.12l-70.06-70.06
	c-6.25-6.25-16.38-6.25-22.63,0l-22.63,22.63c-6.25,6.25-6.25,16.38,0,22.63l104,104C202.93,385.56,213.07,385.56,219.31,379.31
	L219.31,379.31z"/>
</svg>
